<?xml version="1.0" encoding="UTF-8" standalone="no"?>
<!DOCTYPE svg PUBLIC "-//W3C//DTD SVG 1.1//EN"
 "http://www.w3.org/Graphics/SVG/1.1/DTD/svg11.dtd">
<!-- Generated by graphviz version 2.47.0 (20210316.0004)
 -->
<!-- Title: dependencies Pages: 1 -->
<svg width="3774pt" height="284pt"
 viewBox="0.00 0.00 3774.00 284.00" xmlns="http://www.w3.org/2000/svg" xmlns:xlink="http://www.w3.org/1999/xlink">
<g id="graph0" class="graph" transform="scale(1 1) rotate(0) translate(4 280)">
<title>dependencies</title>
<polygon fill="white" stroke="transparent" points="-4,4 -4,-280 3770,-280 3770,4 -4,4"/>
<text text-anchor="start" x="1862.01" y="-42.4" font-family="sans-serif" font-weight="bold" font-size="14.00">Legend</text>
<polygon fill="#ffffb3" stroke="transparent" points="1649,-10 1649,-30 1669,-30 1669,-10 1649,-10"/>
<text text-anchor="start" x="1672.63" y="-15.4" font-family="sans-serif" font-size="14.00"> &#160;Declarations</text>
<polygon fill="#8dd3c7" stroke="transparent" points="1762,-10 1762,-30 1782,-30 1782,-10 1762,-10"/>
<text text-anchor="start" x="1785.73" y="-15.4" font-family="sans-serif" font-size="14.00"> &#160;Module</text>
<polygon fill="#80b1d3" stroke="transparent" points="1848,-10 1848,-30 1868,-30 1868,-10 1848,-10"/>
<text text-anchor="start" x="1871.78" y="-15.4" font-family="sans-serif" font-size="14.00"> &#160;Bootstrap</text>
<polygon fill="#fdb462" stroke="transparent" points="1945,-10 1945,-30 1965,-30 1965,-10 1945,-10"/>
<text text-anchor="start" x="1968.67" y="-15.4" font-family="sans-serif" font-size="14.00"> &#160;Providers</text>
<polygon fill="#fb8072" stroke="transparent" points="2041,-10 2041,-30 2061,-30 2061,-10 2041,-10"/>
<text text-anchor="start" x="2064.73" y="-15.4" font-family="sans-serif" font-size="14.00"> &#160;Exports</text>
<g id="clust1" class="cluster">
<title>cluster_WvrSharedModule</title>
<polygon fill="none" stroke="black" stroke-dasharray="1,5" points="8,-70 8,-268 3758,-268 3758,-70 8,-70"/>
</g>
<g id="clust27" class="cluster">
<title>cluster_WvrSharedModule_exports</title>
<polygon fill="none" stroke="black" points="16,-208 16,-260 3750,-260 3750,-208 16,-208"/>
</g>
<g id="clust2" class="cluster">
<title>cluster_WvrSharedModule_declarations</title>
<polygon fill="none" stroke="black" points="54,-78 54,-130 3710,-130 3710,-78 54,-78"/>
</g>
<!-- DefaultPipe -->
<g id="node1" class="node">
<title>DefaultPipe</title>
<polygon fill="#ffffb3" stroke="black" points="3702.37,-122 3619.63,-122 3619.63,-86 3702.37,-86 3702.37,-122"/>
<text text-anchor="middle" x="3661" y="-99.8" font-family="Times,serif" font-size="14.00">DefaultPipe</text>
</g>
<!-- WvrSharedModule -->
<g id="node24" class="node">
<title>WvrSharedModule</title>
<polygon fill="#8dd3c7" stroke="black" points="2017.8,-187 2014.8,-191 1993.8,-191 1990.8,-187 1894.2,-187 1894.2,-151 2017.8,-151 2017.8,-187"/>
<text text-anchor="middle" x="1956" y="-164.8" font-family="Times,serif" font-size="14.00">WvrSharedModule</text>
</g>
<!-- DefaultPipe&#45;&gt;WvrSharedModule -->
<g id="edge1" class="edge">
<title>DefaultPipe&#45;&gt;WvrSharedModule</title>
<path fill="none" stroke="black" d="M3628.6,-122.11C3628.6,-141.34 3628.6,-169 3628.6,-169 3628.6,-169 2027.76,-169 2027.76,-169"/>
<polygon fill="black" stroke="black" points="2027.76,-165.5 2017.76,-169 2027.76,-172.5 2027.76,-165.5"/>
</g>
<!-- SafePipe -->
<g id="node2" class="node">
<title>SafePipe</title>
<polygon fill="#ffffb3" stroke="black" points="3601.76,-122 3536.24,-122 3536.24,-86 3601.76,-86 3601.76,-122"/>
<text text-anchor="middle" x="3569" y="-99.8" font-family="Times,serif" font-size="14.00">SafePipe</text>
</g>
<!-- SafePipe&#45;&gt;WvrSharedModule -->
<g id="edge2" class="edge">
<title>SafePipe&#45;&gt;WvrSharedModule</title>
<path fill="none" stroke="black" d="M3543.18,-122.22C3543.18,-140.83 3543.18,-167 3543.18,-167 3543.18,-167 2027.73,-167 2027.73,-167"/>
<polygon fill="black" stroke="black" points="2027.73,-163.5 2017.73,-167 2027.73,-170.5 2027.73,-163.5"/>
</g>
<!-- WvrAlertComponent -->
<g id="node3" class="node">
<title>WvrAlertComponent</title>
<polygon fill="#ffffb3" stroke="black" points="3518.47,-122 3383.53,-122 3383.53,-86 3518.47,-86 3518.47,-122"/>
<text text-anchor="middle" x="3451" y="-99.8" font-family="Times,serif" font-size="14.00">WvrAlertComponent</text>
</g>
<!-- WvrAlertComponent&#45;&gt;WvrSharedModule -->
<g id="edge3" class="edge">
<title>WvrAlertComponent&#45;&gt;WvrSharedModule</title>
<path fill="none" stroke="black" d="M3388.71,-122.27C3388.71,-140.56 3388.71,-166 3388.71,-166 3388.71,-166 2028.02,-166 2028.02,-166"/>
<polygon fill="black" stroke="black" points="2028.02,-162.5 2018.02,-166 2028.02,-169.5 2028.02,-162.5"/>
</g>
<!-- WvrButtonComponent -->
<g id="node4" class="node">
<title>WvrButtonComponent</title>
<polygon fill="#ffffb3" stroke="black" points="3365.33,-122 3220.67,-122 3220.67,-86 3365.33,-86 3365.33,-122"/>
<text text-anchor="middle" x="3293" y="-99.8" font-family="Times,serif" font-size="14.00">WvrButtonComponent</text>
</g>
<!-- WvrButtonComponent&#45;&gt;WvrSharedModule -->
<g id="edge4" class="edge">
<title>WvrButtonComponent&#45;&gt;WvrSharedModule</title>
<path fill="none" stroke="black" d="M3224.65,-122C3224.65,-139.68 3224.65,-164 3224.65,-164 3224.65,-164 2028.05,-164 2028.05,-164"/>
<polygon fill="black" stroke="black" points="2028.05,-160.5 2018.05,-164 2028.05,-167.5 2028.05,-160.5"/>
</g>
<!-- WvrCardComponent -->
<g id="node5" class="node">
<title>WvrCardComponent</title>
<polygon fill="#ffffb3" stroke="black" points="3202.92,-122 3069.08,-122 3069.08,-86 3202.92,-86 3202.92,-122"/>
<text text-anchor="middle" x="3136" y="-99.8" font-family="Times,serif" font-size="14.00">WvrCardComponent</text>
</g>
<!-- WvrCardComponent&#45;&gt;WvrSharedModule -->
<g id="edge5" class="edge">
<title>WvrCardComponent&#45;&gt;WvrSharedModule</title>
<path fill="none" stroke="black" d="M3082.64,-122.03C3082.64,-139.06 3082.64,-162 3082.64,-162 3082.64,-162 2027.77,-162 2027.77,-162"/>
<polygon fill="black" stroke="black" points="2027.77,-158.5 2017.77,-162 2027.77,-165.5 2027.77,-158.5"/>
</g>
<!-- WvrColorPreviewComponent -->
<g id="node6" class="node">
<title>WvrColorPreviewComponent</title>
<polygon fill="#ffffb3" stroke="black" points="3050.97,-122 2867.03,-122 2867.03,-86 3050.97,-86 3050.97,-122"/>
<text text-anchor="middle" x="2959" y="-99.8" font-family="Times,serif" font-size="14.00">WvrColorPreviewComponent</text>
</g>
<!-- WvrColorPreviewComponent&#45;&gt;WvrSharedModule -->
<g id="edge6" class="edge">
<title>WvrColorPreviewComponent&#45;&gt;WvrSharedModule</title>
<path fill="none" stroke="black" d="M2877.03,-122.04C2877.03,-138.73 2877.03,-161 2877.03,-161 2877.03,-161 2027.86,-161 2027.86,-161"/>
<polygon fill="black" stroke="black" points="2027.86,-157.5 2017.86,-161 2027.86,-164.5 2027.86,-157.5"/>
</g>
<!-- WvrDropdownComponent -->
<g id="node7" class="node">
<title>WvrDropdownComponent</title>
<polygon fill="#ffffb3" stroke="black" points="2849.08,-122 2682.92,-122 2682.92,-86 2849.08,-86 2849.08,-122"/>
<text text-anchor="middle" x="2766" y="-99.8" font-family="Times,serif" font-size="14.00">WvrDropdownComponent</text>
</g>
<!-- WvrDropdownComponent&#45;&gt;WvrSharedModule -->
<g id="edge7" class="edge">
<title>WvrDropdownComponent&#45;&gt;WvrSharedModule</title>
<path fill="none" stroke="black" d="M2690.58,-122.01C2690.58,-138.05 2690.58,-159 2690.58,-159 2690.58,-159 2027.68,-159 2027.68,-159"/>
<polygon fill="black" stroke="black" points="2027.68,-155.5 2017.68,-159 2027.68,-162.5 2027.68,-155.5"/>
</g>
<!-- WvrFooterComponent -->
<g id="node8" class="node">
<title>WvrFooterComponent</title>
<polygon fill="#ffffb3" stroke="black" points="2665.26,-122 2522.74,-122 2522.74,-86 2665.26,-86 2665.26,-122"/>
<text text-anchor="middle" x="2594" y="-99.8" font-family="Times,serif" font-size="14.00">WvrFooterComponent</text>
</g>
<!-- WvrFooterComponent&#45;&gt;WvrSharedModule -->
<g id="edge8" class="edge">
<title>WvrFooterComponent&#45;&gt;WvrSharedModule</title>
<path fill="none" stroke="black" d="M2528.25,-122.28C2528.25,-137.95 2528.25,-158 2528.25,-158 2528.25,-158 2027.78,-158 2027.78,-158"/>
<polygon fill="black" stroke="black" points="2027.78,-154.5 2017.78,-158 2027.78,-161.5 2027.78,-154.5"/>
</g>
<!-- WvrHeaderComponent -->
<g id="node9" class="node">
<title>WvrHeaderComponent</title>
<polygon fill="#ffffb3" stroke="black" points="2504.12,-122 2357.88,-122 2357.88,-86 2504.12,-86 2504.12,-122"/>
<text text-anchor="middle" x="2431" y="-99.8" font-family="Times,serif" font-size="14.00">WvrHeaderComponent</text>
</g>
<!-- WvrHeaderComponent&#45;&gt;WvrSharedModule -->
<g id="edge9" class="edge">
<title>WvrHeaderComponent&#45;&gt;WvrSharedModule</title>
<path fill="none" stroke="black" d="M2361.82,-122.19C2361.82,-137.18 2361.82,-156 2361.82,-156 2361.82,-156 2028.08,-156 2028.08,-156"/>
<polygon fill="black" stroke="black" points="2028.08,-152.5 2018.08,-156 2028.08,-159.5 2028.08,-152.5"/>
</g>
<!-- WvrIconComponent -->
<g id="node10" class="node">
<title>WvrIconComponent</title>
<polygon fill="#ffffb3" stroke="black" points="2339.58,-122 2208.42,-122 2208.42,-86 2339.58,-86 2339.58,-122"/>
<text text-anchor="middle" x="2274" y="-99.8" font-family="Times,serif" font-size="14.00">WvrIconComponent</text>
</g>
<!-- WvrIconComponent&#45;&gt;WvrSharedModule -->
<g id="edge10" class="edge">
<title>WvrIconComponent&#45;&gt;WvrSharedModule</title>
<path fill="none" stroke="black" d="M2297.6,-122.12C2297.6,-136.78 2297.6,-155 2297.6,-155 2297.6,-155 2027.86,-155 2027.86,-155"/>
<polygon fill="black" stroke="black" points="2027.86,-151.5 2017.86,-155 2027.86,-158.5 2027.86,-151.5"/>
</g>
<!-- WvrItWorksComponent -->
<g id="node11" class="node">
<title>WvrItWorksComponent</title>
<polygon fill="#ffffb3" stroke="black" points="2190.08,-122 2037.92,-122 2037.92,-86 2190.08,-86 2190.08,-122"/>
<text text-anchor="middle" x="2114" y="-99.8" font-family="Times,serif" font-size="14.00">WvrItWorksComponent</text>
</g>
<!-- WvrItWorksComponent&#45;&gt;WvrSharedModule -->
<g id="edge11" class="edge">
<title>WvrItWorksComponent&#45;&gt;WvrSharedModule</title>
<path fill="none" stroke="black" d="M2140.1,-122.25C2140.1,-136.18 2140.1,-153 2140.1,-153 2140.1,-153 2027.81,-153 2027.81,-153"/>
<polygon fill="black" stroke="black" points="2027.81,-149.5 2017.81,-153 2027.81,-156.5 2027.81,-149.5"/>
</g>
<!-- WvrListComponent -->
<g id="node12" class="node">
<title>WvrListComponent</title>
<polygon fill="#ffffb3" stroke="black" points="2019.99,-122 1892.01,-122 1892.01,-86 2019.99,-86 2019.99,-122"/>
<text text-anchor="middle" x="1956" y="-99.8" font-family="Times,serif" font-size="14.00">WvrListComponent</text>
</g>
<!-- WvrListComponent&#45;&gt;WvrSharedModule -->
<g id="edge12" class="edge">
<title>WvrListComponent&#45;&gt;WvrSharedModule</title>
<path fill="none" stroke="black" d="M1956,-122.11C1956,-122.11 1956,-140.99 1956,-140.99"/>
<polygon fill="black" stroke="black" points="1952.5,-140.99 1956,-150.99 1959.5,-140.99 1952.5,-140.99"/>
</g>
<!-- WvrListItemComponent -->
<g id="node13" class="node">
<title>WvrListItemComponent</title>
<polygon fill="#ffffb3" stroke="black" points="1873.64,-122 1720.36,-122 1720.36,-86 1873.64,-86 1873.64,-122"/>
<text text-anchor="middle" x="1797" y="-99.8" font-family="Times,serif" font-size="14.00">WvrListItemComponent</text>
</g>
<!-- WvrListItemComponent&#45;&gt;WvrSharedModule -->
<g id="edge13" class="edge">
<title>WvrListItemComponent&#45;&gt;WvrSharedModule</title>
<path fill="none" stroke="black" d="M1821.77,-122.25C1821.77,-136.18 1821.77,-153 1821.77,-153 1821.77,-153 1883.99,-153 1883.99,-153"/>
<polygon fill="black" stroke="black" points="1883.99,-156.5 1893.99,-153 1883.99,-149.5 1883.99,-156.5"/>
</g>
<!-- WvrManifestComponent -->
<g id="node14" class="node">
<title>WvrManifestComponent</title>
<polygon fill="#ffffb3" stroke="black" points="1701.97,-122 1546.03,-122 1546.03,-86 1701.97,-86 1701.97,-122"/>
<text text-anchor="middle" x="1624" y="-99.8" font-family="Times,serif" font-size="14.00">WvrManifestComponent</text>
</g>
<!-- WvrManifestComponent&#45;&gt;WvrSharedModule -->
<g id="edge14" class="edge">
<title>WvrManifestComponent&#45;&gt;WvrSharedModule</title>
<path fill="none" stroke="black" d="M1647.16,-122.12C1647.16,-136.78 1647.16,-155 1647.16,-155 1647.16,-155 1884.24,-155 1884.24,-155"/>
<polygon fill="black" stroke="black" points="1884.24,-158.5 1894.24,-155 1884.24,-151.5 1884.24,-158.5"/>
</g>
<!-- WvrManifestEntryComponent -->
<g id="node15" class="node">
<title>WvrManifestEntryComponent</title>
<polygon fill="#ffffb3" stroke="black" points="1527.57,-122 1340.43,-122 1340.43,-86 1527.57,-86 1527.57,-122"/>
<text text-anchor="middle" x="1434" y="-99.8" font-family="Times,serif" font-size="14.00">WvrManifestEntryComponent</text>
</g>
<!-- WvrManifestEntryComponent&#45;&gt;WvrSharedModule -->
<g id="edge15" class="edge">
<title>WvrManifestEntryComponent&#45;&gt;WvrSharedModule</title>
<path fill="none" stroke="black" d="M1523.91,-122.19C1523.91,-137.18 1523.91,-156 1523.91,-156 1523.91,-156 1884.09,-156 1884.09,-156"/>
<polygon fill="black" stroke="black" points="1884.09,-159.5 1894.09,-156 1884.09,-152.5 1884.09,-159.5"/>
</g>
<!-- WvrModalComponent -->
<g id="node16" class="node">
<title>WvrModalComponent</title>
<polygon fill="#ffffb3" stroke="black" points="1322.26,-122 1179.74,-122 1179.74,-86 1322.26,-86 1322.26,-122"/>
<text text-anchor="middle" x="1251" y="-99.8" font-family="Times,serif" font-size="14.00">WvrModalComponent</text>
</g>
<!-- WvrModalComponent&#45;&gt;WvrSharedModule -->
<g id="edge16" class="edge">
<title>WvrModalComponent&#45;&gt;WvrSharedModule</title>
<path fill="none" stroke="black" d="M1317.25,-122.28C1317.25,-137.95 1317.25,-158 1317.25,-158 1317.25,-158 1884.17,-158 1884.17,-158"/>
<polygon fill="black" stroke="black" points="1884.17,-161.5 1894.17,-158 1884.17,-154.5 1884.17,-161.5"/>
</g>
<!-- WvrNavLiComponent -->
<g id="node17" class="node">
<title>WvrNavLiComponent</title>
<polygon fill="#ffffb3" stroke="black" points="1161.97,-122 1020.03,-122 1020.03,-86 1161.97,-86 1161.97,-122"/>
<text text-anchor="middle" x="1091" y="-99.8" font-family="Times,serif" font-size="14.00">WvrNavLiComponent</text>
</g>
<!-- WvrNavLiComponent&#45;&gt;WvrSharedModule -->
<g id="edge17" class="edge">
<title>WvrNavLiComponent&#45;&gt;WvrSharedModule</title>
<path fill="none" stroke="black" d="M1154.86,-122.01C1154.86,-138.05 1154.86,-159 1154.86,-159 1154.86,-159 1884.13,-159 1884.13,-159"/>
<polygon fill="black" stroke="black" points="1884.13,-162.5 1894.13,-159 1884.13,-155.5 1884.13,-162.5"/>
</g>
<!-- WvrNavListComponent -->
<g id="node18" class="node">
<title>WvrNavListComponent</title>
<polygon fill="#ffffb3" stroke="black" points="1001.81,-122 850.19,-122 850.19,-86 1001.81,-86 1001.81,-122"/>
<text text-anchor="middle" x="926" y="-99.8" font-family="Times,serif" font-size="14.00">WvrNavListComponent</text>
</g>
<!-- WvrNavListComponent&#45;&gt;WvrSharedModule -->
<g id="edge18" class="edge">
<title>WvrNavListComponent&#45;&gt;WvrSharedModule</title>
<path fill="none" stroke="black" d="M993.03,-122.04C993.03,-138.73 993.03,-161 993.03,-161 993.03,-161 1884.3,-161 1884.3,-161"/>
<polygon fill="black" stroke="black" points="1884.3,-164.5 1894.3,-161 1884.3,-157.5 1884.3,-164.5"/>
</g>
<!-- WvrTabComponent -->
<g id="node19" class="node">
<title>WvrTabComponent</title>
<polygon fill="#ffffb3" stroke="black" points="831.97,-122 704.03,-122 704.03,-86 831.97,-86 831.97,-122"/>
<text text-anchor="middle" x="768" y="-99.8" font-family="Times,serif" font-size="14.00">WvrTabComponent</text>
</g>
<!-- WvrTabComponent&#45;&gt;WvrSharedModule -->
<g id="edge19" class="edge">
<title>WvrTabComponent&#45;&gt;WvrSharedModule</title>
<path fill="none" stroke="black" d="M820.67,-122.03C820.67,-139.06 820.67,-162 820.67,-162 820.67,-162 1884.15,-162 1884.15,-162"/>
<polygon fill="black" stroke="black" points="1884.15,-165.5 1894.15,-162 1884.15,-158.5 1884.15,-165.5"/>
</g>
<!-- WvrTabsComponent -->
<g id="node20" class="node">
<title>WvrTabsComponent</title>
<polygon fill="#ffffb3" stroke="black" points="685.92,-122 552.08,-122 552.08,-86 685.92,-86 685.92,-122"/>
<text text-anchor="middle" x="619" y="-99.8" font-family="Times,serif" font-size="14.00">WvrTabsComponent</text>
</g>
<!-- WvrTabsComponent&#45;&gt;WvrSharedModule -->
<g id="edge20" class="edge">
<title>WvrTabsComponent&#45;&gt;WvrSharedModule</title>
<path fill="none" stroke="black" d="M671.36,-122C671.36,-139.68 671.36,-164 671.36,-164 671.36,-164 1884.04,-164 1884.04,-164"/>
<polygon fill="black" stroke="black" points="1884.04,-167.5 1894.04,-164 1884.04,-160.5 1884.04,-167.5"/>
</g>
<!-- WvrTextComponent -->
<g id="node21" class="node">
<title>WvrTextComponent</title>
<polygon fill="#ffffb3" stroke="black" points="533.87,-122 402.13,-122 402.13,-86 533.87,-86 533.87,-122"/>
<text text-anchor="middle" x="468" y="-99.8" font-family="Times,serif" font-size="14.00">WvrTextComponent</text>
</g>
<!-- WvrTextComponent&#45;&gt;WvrSharedModule -->
<g id="edge21" class="edge">
<title>WvrTextComponent&#45;&gt;WvrSharedModule</title>
<path fill="none" stroke="black" d="M529.74,-122.27C529.74,-140.56 529.74,-166 529.74,-166 529.74,-166 1884.26,-166 1884.26,-166"/>
<polygon fill="black" stroke="black" points="1884.26,-169.5 1894.26,-166 1884.26,-162.5 1884.26,-169.5"/>
</g>
<!-- WvrThemeComponent -->
<g id="node22" class="node">
<title>WvrThemeComponent</title>
<polygon fill="#ffffb3" stroke="black" points="384.58,-122 239.42,-122 239.42,-86 384.58,-86 384.58,-122"/>
<text text-anchor="middle" x="312" y="-99.8" font-family="Times,serif" font-size="14.00">WvrThemeComponent</text>
</g>
<!-- WvrThemeComponent&#45;&gt;WvrSharedModule -->
<g id="edge22" class="edge">
<title>WvrThemeComponent&#45;&gt;WvrSharedModule</title>
<path fill="none" stroke="black" d="M378.43,-122.22C378.43,-140.83 378.43,-167 378.43,-167 378.43,-167 1884.16,-167 1884.16,-167"/>
<polygon fill="black" stroke="black" points="1884.16,-170.5 1894.16,-167 1884.16,-163.5 1884.16,-170.5"/>
</g>
<!-- WvrWysiwygComponent -->
<g id="node23" class="node">
<title>WvrWysiwygComponent</title>
<polygon fill="#ffffb3" stroke="black" points="221.86,-122 62.14,-122 62.14,-86 221.86,-86 221.86,-122"/>
<text text-anchor="middle" x="142" y="-99.8" font-family="Times,serif" font-size="14.00">WvrWysiwygComponent</text>
</g>
<!-- WvrWysiwygComponent&#45;&gt;WvrSharedModule -->
<g id="edge23" class="edge">
<title>WvrWysiwygComponent&#45;&gt;WvrSharedModule</title>
<path fill="none" stroke="black" d="M213.82,-122.11C213.82,-141.34 213.82,-169 213.82,-169 213.82,-169 1884.25,-169 1884.25,-169"/>
<polygon fill="black" stroke="black" points="1884.25,-172.5 1894.25,-169 1884.25,-165.5 1884.25,-172.5"/>
</g>
<!-- DefaultPipe  -->
<g id="node25" class="node">
<title>DefaultPipe </title>
<polygon fill="#fb8072" stroke="black" points="3742.37,-252 3655.63,-252 3655.63,-216 3742.37,-216 3742.37,-252"/>
<text text-anchor="middle" x="3699" y="-229.8" font-family="Times,serif" font-size="14.00">DefaultPipe </text>
</g>
<!-- WvrSharedModule&#45;&gt;DefaultPipe  -->
<g id="edge24" class="edge">
<title>WvrSharedModule&#45;&gt;DefaultPipe </title>
<path fill="none" stroke="black" stroke-dasharray="5,2" d="M2017.83,-170C2325.77,-170 3679.12,-170 3679.12,-170 3679.12,-170 3679.12,-205.83 3679.12,-205.83"/>
<polygon fill="black" stroke="black" points="3675.63,-205.83 3679.12,-215.83 3682.63,-205.83 3675.63,-205.83"/>
</g>
<!-- SafePipe  -->
<g id="node26" class="node">
<title>SafePipe </title>
<polygon fill="#fb8072" stroke="black" points="3637.76,-252 3568.24,-252 3568.24,-216 3637.76,-216 3637.76,-252"/>
<text text-anchor="middle" x="3603" y="-229.8" font-family="Times,serif" font-size="14.00">SafePipe </text>
</g>
<!-- WvrSharedModule&#45;&gt;SafePipe  -->
<g id="edge25" class="edge">
<title>WvrSharedModule&#45;&gt;SafePipe </title>
<path fill="none" stroke="black" stroke-dasharray="5,2" d="M2017.87,-172C2315.45,-172 3585.12,-172 3585.12,-172 3585.12,-172 3585.12,-205.73 3585.12,-205.73"/>
<polygon fill="black" stroke="black" points="3581.63,-205.73 3585.12,-215.73 3588.63,-205.73 3581.63,-205.73"/>
</g>
<!-- WvrAlertComponent  -->
<g id="node27" class="node">
<title>WvrAlertComponent </title>
<polygon fill="#fb8072" stroke="black" points="3550.47,-252 3411.53,-252 3411.53,-216 3550.47,-216 3550.47,-252"/>
<text text-anchor="middle" x="3481" y="-229.8" font-family="Times,serif" font-size="14.00">WvrAlertComponent </text>
</g>
<!-- WvrSharedModule&#45;&gt;WvrAlertComponent  -->
<g id="edge26" class="edge">
<title>WvrSharedModule&#45;&gt;WvrAlertComponent </title>
<path fill="none" stroke="black" stroke-dasharray="5,2" d="M2017.97,-173C2301.95,-173 3465.12,-173 3465.12,-173 3465.12,-173 3465.12,-205.7 3465.12,-205.7"/>
<polygon fill="black" stroke="black" points="3461.63,-205.7 3465.12,-215.7 3468.63,-205.7 3461.63,-205.7"/>
</g>
<!-- WvrButtonComponent  -->
<g id="node28" class="node">
<title>WvrButtonComponent </title>
<polygon fill="#fb8072" stroke="black" points="3393.83,-252 3246.17,-252 3246.17,-216 3393.83,-216 3393.83,-252"/>
<text text-anchor="middle" x="3320" y="-229.8" font-family="Times,serif" font-size="14.00">WvrButtonComponent </text>
</g>
<!-- WvrSharedModule&#45;&gt;WvrButtonComponent  -->
<g id="edge27" class="edge">
<title>WvrSharedModule&#45;&gt;WvrButtonComponent </title>
<path fill="none" stroke="black" stroke-dasharray="5,2" d="M2017.94,-175C2282.67,-175 3305.62,-175 3305.62,-175 3305.62,-175 3305.62,-205.98 3305.62,-205.98"/>
<polygon fill="black" stroke="black" points="3302.13,-205.98 3305.62,-215.98 3309.13,-205.98 3302.13,-205.98"/>
</g>
<!-- WvrCardComponent  -->
<g id="node29" class="node">
<title>WvrCardComponent </title>
<polygon fill="#fb8072" stroke="black" points="3228.42,-252 3091.58,-252 3091.58,-216 3228.42,-216 3228.42,-252"/>
<text text-anchor="middle" x="3160" y="-229.8" font-family="Times,serif" font-size="14.00">WvrCardComponent </text>
</g>
<!-- WvrSharedModule&#45;&gt;WvrCardComponent  -->
<g id="edge28" class="edge">
<title>WvrSharedModule&#45;&gt;WvrCardComponent </title>
<path fill="none" stroke="black" stroke-dasharray="5,2" d="M2017.95,-177C2262.44,-177 3147.12,-177 3147.12,-177 3147.12,-177 3147.12,-205.96 3147.12,-205.96"/>
<polygon fill="black" stroke="black" points="3143.63,-205.96 3147.12,-215.96 3150.63,-205.96 3143.63,-205.96"/>
</g>
<!-- WvrColorPreviewComponent  -->
<g id="node30" class="node">
<title>WvrColorPreviewComponent </title>
<polygon fill="#fb8072" stroke="black" points="3073.97,-252 2886.03,-252 2886.03,-216 3073.97,-216 3073.97,-252"/>
<text text-anchor="middle" x="2980" y="-229.8" font-family="Times,serif" font-size="14.00">WvrColorPreviewComponent </text>
</g>
<!-- WvrSharedModule&#45;&gt;WvrColorPreviewComponent  -->
<g id="edge29" class="edge">
<title>WvrSharedModule&#45;&gt;WvrColorPreviewComponent </title>
<path fill="none" stroke="black" stroke-dasharray="5,2" d="M2017.82,-178C2237.68,-178 2968.62,-178 2968.62,-178 2968.62,-178 2968.62,-205.97 2968.62,-205.97"/>
<polygon fill="black" stroke="black" points="2965.13,-205.97 2968.62,-215.97 2972.13,-205.97 2965.13,-205.97"/>
</g>
<!-- WvrDropdownComponent  -->
<g id="node31" class="node">
<title>WvrDropdownComponent </title>
<polygon fill="#fb8072" stroke="black" points="2867.58,-252 2698.42,-252 2698.42,-216 2867.58,-216 2867.58,-252"/>
<text text-anchor="middle" x="2783" y="-229.8" font-family="Times,serif" font-size="14.00">WvrDropdownComponent </text>
</g>
<!-- WvrSharedModule&#45;&gt;WvrDropdownComponent  -->
<g id="edge30" class="edge">
<title>WvrSharedModule&#45;&gt;WvrDropdownComponent </title>
<path fill="none" stroke="black" stroke-dasharray="5,2" d="M2017.79,-180C2208.27,-180 2773.62,-180 2773.62,-180 2773.62,-180 2773.62,-205.72 2773.62,-205.72"/>
<polygon fill="black" stroke="black" points="2770.13,-205.72 2773.62,-215.72 2777.13,-205.72 2770.13,-205.72"/>
</g>
<!-- WvrFooterComponent  -->
<g id="node32" class="node">
<title>WvrFooterComponent </title>
<polygon fill="#fb8072" stroke="black" points="2680.26,-252 2533.74,-252 2533.74,-216 2680.26,-216 2680.26,-252"/>
<text text-anchor="middle" x="2607" y="-229.8" font-family="Times,serif" font-size="14.00">WvrFooterComponent </text>
</g>
<!-- WvrSharedModule&#45;&gt;WvrFooterComponent  -->
<g id="edge31" class="edge">
<title>WvrSharedModule&#45;&gt;WvrFooterComponent </title>
<path fill="none" stroke="black" stroke-dasharray="5,2" d="M2017.71,-181C2178.81,-181 2599.62,-181 2599.62,-181 2599.62,-181 2599.62,-205.76 2599.62,-205.76"/>
<polygon fill="black" stroke="black" points="2596.13,-205.76 2599.62,-215.76 2603.13,-205.76 2596.13,-205.76"/>
</g>
<!-- WvrHeaderComponent  -->
<g id="node33" class="node">
<title>WvrHeaderComponent </title>
<polygon fill="#fb8072" stroke="black" points="2516.12,-252 2365.88,-252 2365.88,-216 2516.12,-216 2516.12,-252"/>
<text text-anchor="middle" x="2441" y="-229.8" font-family="Times,serif" font-size="14.00">WvrHeaderComponent </text>
</g>
<!-- WvrSharedModule&#45;&gt;WvrHeaderComponent  -->
<g id="edge32" class="edge">
<title>WvrSharedModule&#45;&gt;WvrHeaderComponent </title>
<path fill="none" stroke="black" stroke-dasharray="5,2" d="M2017.66,-183C2147.06,-183 2435.12,-183 2435.12,-183 2435.12,-183 2435.12,-205.88 2435.12,-205.88"/>
<polygon fill="black" stroke="black" points="2431.63,-205.88 2435.12,-215.88 2438.63,-205.88 2431.63,-205.88"/>
</g>
<!-- WvrIconComponent  -->
<g id="node34" class="node">
<title>WvrIconComponent </title>
<polygon fill="#fb8072" stroke="black" points="2348.08,-252 2213.92,-252 2213.92,-216 2348.08,-216 2348.08,-252"/>
<text text-anchor="middle" x="2281" y="-229.8" font-family="Times,serif" font-size="14.00">WvrIconComponent </text>
</g>
<!-- WvrSharedModule&#45;&gt;WvrIconComponent  -->
<g id="edge33" class="edge">
<title>WvrSharedModule&#45;&gt;WvrIconComponent </title>
<path fill="none" stroke="black" stroke-dasharray="5,2" d="M2017.72,-184C2105.44,-184 2255.65,-184 2255.65,-184 2255.65,-184 2255.65,-205.95 2255.65,-205.95"/>
<polygon fill="black" stroke="black" points="2252.15,-205.95 2255.65,-215.95 2259.15,-205.95 2252.15,-205.95"/>
</g>
<!-- WvrItWorksComponent  -->
<g id="node35" class="node">
<title>WvrItWorksComponent </title>
<polygon fill="#fb8072" stroke="black" points="2195.58,-252 2040.42,-252 2040.42,-216 2195.58,-216 2195.58,-252"/>
<text text-anchor="middle" x="2118" y="-229.8" font-family="Times,serif" font-size="14.00">WvrItWorksComponent </text>
</g>
<!-- WvrSharedModule&#45;&gt;WvrItWorksComponent  -->
<g id="edge34" class="edge">
<title>WvrSharedModule&#45;&gt;WvrItWorksComponent </title>
<path fill="none" stroke="black" stroke-dasharray="5,2" d="M2017.97,-186C2053.12,-186 2090.15,-186 2090.15,-186 2090.15,-186 2090.15,-205.85 2090.15,-205.85"/>
<polygon fill="black" stroke="black" points="2086.65,-205.85 2090.15,-215.85 2093.65,-205.85 2086.65,-205.85"/>
</g>
<!-- WvrListComponent  -->
<g id="node36" class="node">
<title>WvrListComponent </title>
<polygon fill="#fb8072" stroke="black" points="2021.99,-252 1890.01,-252 1890.01,-216 2021.99,-216 2021.99,-252"/>
<text text-anchor="middle" x="1956" y="-229.8" font-family="Times,serif" font-size="14.00">WvrListComponent </text>
</g>
<!-- WvrSharedModule&#45;&gt;WvrListComponent  -->
<g id="edge35" class="edge">
<title>WvrSharedModule&#45;&gt;WvrListComponent </title>
<path fill="none" stroke="black" stroke-dasharray="5,2" d="M1956,-187.11C1956,-187.11 1956,-205.99 1956,-205.99"/>
<polygon fill="black" stroke="black" points="1952.5,-205.99 1956,-215.99 1959.5,-205.99 1952.5,-205.99"/>
</g>
<!-- WvrListItemComponent  -->
<g id="node37" class="node">
<title>WvrListItemComponent </title>
<polygon fill="#fb8072" stroke="black" points="1872.64,-252 1715.36,-252 1715.36,-216 1872.64,-216 1872.64,-252"/>
<text text-anchor="middle" x="1794" y="-229.8" font-family="Times,serif" font-size="14.00">WvrListItemComponent </text>
</g>
<!-- WvrSharedModule&#45;&gt;WvrListItemComponent  -->
<g id="edge36" class="edge">
<title>WvrSharedModule&#45;&gt;WvrListItemComponent </title>
<path fill="none" stroke="black" stroke-dasharray="5,2" d="M1894.13,-186C1840.34,-186 1770.98,-186 1770.98,-186 1770.98,-186 1770.98,-205.85 1770.98,-205.85"/>
<polygon fill="black" stroke="black" points="1767.48,-205.85 1770.98,-215.85 1774.48,-205.85 1767.48,-205.85"/>
</g>
<!-- WvrManifestComponent  -->
<g id="node38" class="node">
<title>WvrManifestComponent </title>
<polygon fill="#fb8072" stroke="black" points="1697.97,-252 1538.03,-252 1538.03,-216 1697.97,-216 1697.97,-252"/>
<text text-anchor="middle" x="1618" y="-229.8" font-family="Times,serif" font-size="14.00">WvrManifestComponent </text>
</g>
<!-- WvrSharedModule&#45;&gt;WvrManifestComponent  -->
<g id="edge37" class="edge">
<title>WvrSharedModule&#45;&gt;WvrManifestComponent </title>
<path fill="none" stroke="black" stroke-dasharray="5,2" d="M1894.21,-184C1791.45,-184 1596.59,-184 1596.59,-184 1596.59,-184 1596.59,-205.95 1596.59,-205.95"/>
<polygon fill="black" stroke="black" points="1593.09,-205.95 1596.59,-215.95 1600.09,-205.95 1593.09,-205.95"/>
</g>
<!-- WvrManifestEntryComponent  -->
<g id="node39" class="node">
<title>WvrManifestEntryComponent </title>
<polygon fill="#fb8072" stroke="black" points="1520.07,-252 1329.93,-252 1329.93,-216 1520.07,-216 1520.07,-252"/>
<text text-anchor="middle" x="1425" y="-229.8" font-family="Times,serif" font-size="14.00">WvrManifestEntryComponent </text>
</g>
<!-- WvrSharedModule&#45;&gt;WvrManifestEntryComponent  -->
<g id="edge38" class="edge">
<title>WvrSharedModule&#45;&gt;WvrManifestEntryComponent </title>
<path fill="none" stroke="black" stroke-dasharray="5,2" d="M1894.16,-183C1755.21,-183 1430.38,-183 1430.38,-183 1430.38,-183 1430.38,-205.88 1430.38,-205.88"/>
<polygon fill="black" stroke="black" points="1426.88,-205.88 1430.38,-215.88 1433.88,-205.88 1426.88,-205.88"/>
</g>
<!-- WvrModalComponent  -->
<g id="node40" class="node">
<title>WvrModalComponent </title>
<polygon fill="#fb8072" stroke="black" points="1312.26,-252 1165.74,-252 1165.74,-216 1312.26,-216 1312.26,-252"/>
<text text-anchor="middle" x="1239" y="-229.8" font-family="Times,serif" font-size="14.00">WvrModalComponent </text>
</g>
<!-- WvrSharedModule&#45;&gt;WvrModalComponent  -->
<g id="edge39" class="edge">
<title>WvrSharedModule&#45;&gt;WvrModalComponent </title>
<path fill="none" stroke="black" stroke-dasharray="5,2" d="M1894.22,-181C1721.45,-181 1245.88,-181 1245.88,-181 1245.88,-181 1245.88,-205.76 1245.88,-205.76"/>
<polygon fill="black" stroke="black" points="1242.38,-205.76 1245.88,-215.76 1249.38,-205.76 1242.38,-205.76"/>
</g>
<!-- WvrNavLiComponent  -->
<g id="node41" class="node">
<title>WvrNavLiComponent </title>
<polygon fill="#fb8072" stroke="black" points="1147.97,-252 1002.03,-252 1002.03,-216 1147.97,-216 1147.97,-252"/>
<text text-anchor="middle" x="1075" y="-229.8" font-family="Times,serif" font-size="14.00">WvrNavLiComponent </text>
</g>
<!-- WvrSharedModule&#45;&gt;WvrNavLiComponent  -->
<g id="edge40" class="edge">
<title>WvrSharedModule&#45;&gt;WvrNavLiComponent </title>
<path fill="none" stroke="black" stroke-dasharray="5,2" d="M1894.33,-180C1695.45,-180 1083.88,-180 1083.88,-180 1083.88,-180 1083.88,-205.72 1083.88,-205.72"/>
<polygon fill="black" stroke="black" points="1080.38,-205.72 1083.88,-215.72 1087.38,-205.72 1080.38,-205.72"/>
</g>
<!-- WvrNavListComponent  -->
<g id="node42" class="node">
<title>WvrNavListComponent </title>
<polygon fill="#fb8072" stroke="black" points="984.31,-252 829.69,-252 829.69,-216 984.31,-216 984.31,-252"/>
<text text-anchor="middle" x="907" y="-229.8" font-family="Times,serif" font-size="14.00">WvrNavListComponent </text>
</g>
<!-- WvrSharedModule&#45;&gt;WvrNavListComponent  -->
<g id="edge41" class="edge">
<title>WvrSharedModule&#45;&gt;WvrNavListComponent </title>
<path fill="none" stroke="black" stroke-dasharray="5,2" d="M1894.14,-178C1670.54,-178 917.38,-178 917.38,-178 917.38,-178 917.38,-205.97 917.38,-205.97"/>
<polygon fill="black" stroke="black" points="913.88,-205.97 917.38,-215.97 920.88,-205.97 913.88,-205.97"/>
</g>
<!-- WvrTabComponent  -->
<g id="node43" class="node">
<title>WvrTabComponent </title>
<polygon fill="#fb8072" stroke="black" points="811.98,-252 680.02,-252 680.02,-216 811.98,-216 811.98,-252"/>
<text text-anchor="middle" x="746" y="-229.8" font-family="Times,serif" font-size="14.00">WvrTabComponent </text>
</g>
<!-- WvrSharedModule&#45;&gt;WvrTabComponent  -->
<g id="edge42" class="edge">
<title>WvrSharedModule&#45;&gt;WvrTabComponent </title>
<path fill="none" stroke="black" stroke-dasharray="5,2" d="M1894.11,-177C1648.76,-177 757.88,-177 757.88,-177 757.88,-177 757.88,-205.96 757.88,-205.96"/>
<polygon fill="black" stroke="black" points="754.38,-205.96 757.88,-215.96 761.38,-205.96 754.38,-205.96"/>
</g>
<!-- WvrTabsComponent  -->
<g id="node44" class="node">
<title>WvrTabsComponent </title>
<polygon fill="#fb8072" stroke="black" points="662.42,-252 525.58,-252 525.58,-216 662.42,-216 662.42,-252"/>
<text text-anchor="middle" x="594" y="-229.8" font-family="Times,serif" font-size="14.00">WvrTabsComponent </text>
</g>
<!-- WvrSharedModule&#45;&gt;WvrTabsComponent  -->
<g id="edge43" class="edge">
<title>WvrSharedModule&#45;&gt;WvrTabsComponent </title>
<path fill="none" stroke="black" stroke-dasharray="5,2" d="M1894.1,-175C1629.57,-175 607.38,-175 607.38,-175 607.38,-175 607.38,-205.98 607.38,-205.98"/>
<polygon fill="black" stroke="black" points="603.88,-205.98 607.38,-215.98 610.88,-205.98 603.88,-205.98"/>
</g>
<!-- WvrTextComponent  -->
<g id="node45" class="node">
<title>WvrTextComponent </title>
<polygon fill="#fb8072" stroke="black" points="507.87,-252 372.13,-252 372.13,-216 507.87,-216 507.87,-252"/>
<text text-anchor="middle" x="440" y="-229.8" font-family="Times,serif" font-size="14.00">WvrTextComponent </text>
</g>
<!-- WvrSharedModule&#45;&gt;WvrTextComponent  -->
<g id="edge44" class="edge">
<title>WvrSharedModule&#45;&gt;WvrTextComponent </title>
<path fill="none" stroke="black" stroke-dasharray="5,2" d="M1893.88,-173C1610.6,-173 454.88,-173 454.88,-173 454.88,-173 454.88,-205.7 454.88,-205.7"/>
<polygon fill="black" stroke="black" points="451.38,-205.7 454.88,-215.7 458.38,-205.7 451.38,-205.7"/>
</g>
<!-- WvrThemeComponent  -->
<g id="node46" class="node">
<title>WvrThemeComponent </title>
<polygon fill="#fb8072" stroke="black" points="354.08,-252 205.92,-252 205.92,-216 354.08,-216 354.08,-252"/>
<text text-anchor="middle" x="280" y="-229.8" font-family="Times,serif" font-size="14.00">WvrThemeComponent </text>
</g>
<!-- WvrSharedModule&#45;&gt;WvrThemeComponent  -->
<g id="edge45" class="edge">
<title>WvrSharedModule&#45;&gt;WvrThemeComponent </title>
<path fill="none" stroke="black" stroke-dasharray="5,2" d="M1893.99,-172C1592.79,-172 296.88,-172 296.88,-172 296.88,-172 296.88,-205.73 296.88,-205.73"/>
<polygon fill="black" stroke="black" points="293.38,-205.73 296.88,-215.73 300.38,-205.73 293.38,-205.73"/>
</g>
<!-- WvrWysiwygComponent  -->
<g id="node47" class="node">
<title>WvrWysiwygComponent </title>
<polygon fill="#fb8072" stroke="black" points="187.86,-252 24.14,-252 24.14,-216 187.86,-216 187.86,-252"/>
<text text-anchor="middle" x="106" y="-229.8" font-family="Times,serif" font-size="14.00">WvrWysiwygComponent </text>
</g>
<!-- WvrSharedModule&#45;&gt;WvrWysiwygComponent  -->
<g id="edge46" class="edge">
<title>WvrSharedModule&#45;&gt;WvrWysiwygComponent </title>
<path fill="none" stroke="black" stroke-dasharray="5,2" d="M1894.29,-170C1574.96,-170 124.88,-170 124.88,-170 124.88,-170 124.88,-205.83 124.88,-205.83"/>
<polygon fill="black" stroke="black" points="121.38,-205.83 124.88,-215.83 128.38,-205.83 121.38,-205.83"/>
</g>
</g>
</svg>
