<?xml version="1.0" encoding="UTF-8" standalone="no"?>
<!DOCTYPE svg PUBLIC "-//W3C//DTD SVG 1.1//EN"
 "http://www.w3.org/Graphics/SVG/1.1/DTD/svg11.dtd">
<!-- Generated by graphviz version 2.47.0 (20210316.0004)
 -->
<!-- Title: dependencies Pages: 1 -->
<svg width="4326pt" height="284pt"
 viewBox="0.00 0.00 4326.00 284.00" xmlns="http://www.w3.org/2000/svg" xmlns:xlink="http://www.w3.org/1999/xlink">
<g id="graph0" class="graph" transform="scale(1 1) rotate(0) translate(4 280)">
<title>dependencies</title>
<polygon fill="white" stroke="transparent" points="-4,4 -4,-280 4322,-280 4322,4 -4,4"/>
<text text-anchor="start" x="2138.01" y="-42.4" font-family="Times-12" font-weight="bold" font-size="14.00">Legend</text>
<polygon fill="#ffffb3" stroke="transparent" points="1925,-10 1925,-30 1945,-30 1945,-10 1925,-10"/>
<text text-anchor="start" x="1948.63" y="-15.4" font-family="Times-12" font-size="14.00"> &#160;Declarations</text>
<polygon fill="#8dd3c7" stroke="transparent" points="2038,-10 2038,-30 2058,-30 2058,-10 2038,-10"/>
<text text-anchor="start" x="2061.73" y="-15.4" font-family="Times-12" font-size="14.00"> &#160;Module</text>
<polygon fill="#80b1d3" stroke="transparent" points="2124,-10 2124,-30 2144,-30 2144,-10 2124,-10"/>
<text text-anchor="start" x="2147.78" y="-15.4" font-family="Times-12" font-size="14.00"> &#160;Bootstrap</text>
<polygon fill="#fdb462" stroke="transparent" points="2221,-10 2221,-30 2241,-30 2241,-10 2221,-10"/>
<text text-anchor="start" x="2244.67" y="-15.4" font-family="Times-12" font-size="14.00"> &#160;Providers</text>
<polygon fill="#fb8072" stroke="transparent" points="2317,-10 2317,-30 2337,-30 2337,-10 2317,-10"/>
<text text-anchor="start" x="2340.73" y="-15.4" font-family="Times-12" font-size="14.00"> &#160;Exports</text>
<g id="clust1" class="cluster">
<title>cluster_WvrSharedModule</title>
<polygon fill="none" stroke="black" stroke-dasharray="1,5" points="8,-70 8,-268 4310,-268 4310,-70 8,-70"/>
</g>
<g id="clust2" class="cluster">
<title>cluster_WvrSharedModule_declarations</title>
<polygon fill="none" stroke="black" points="61,-78 61,-130 4258,-130 4258,-78 61,-78"/>
</g>
<g id="clust29" class="cluster">
<title>cluster_WvrSharedModule_exports</title>
<polygon fill="none" stroke="black" points="16,-208 16,-260 4302,-260 4302,-208 16,-208"/>
</g>
<!-- DefaultPipe -->
<g id="node1" class="node">
<title>DefaultPipe</title>
<polygon fill="#ffffb3" stroke="black" points="4250.37,-122 4167.63,-122 4167.63,-86 4250.37,-86 4250.37,-122"/>
<text text-anchor="middle" x="4209" y="-99.8" font-family="Times,serif" font-size="14.00">DefaultPipe</text>
</g>
<!-- WvrSharedModule -->
<g id="node26" class="node">
<title>WvrSharedModule</title>
<polygon fill="#8dd3c7" stroke="black" points="2353.8,-187 2350.8,-191 2329.8,-191 2326.8,-187 2230.2,-187 2230.2,-151 2353.8,-151 2353.8,-187"/>
<text text-anchor="middle" x="2292" y="-164.8" font-family="Times,serif" font-size="14.00">WvrSharedModule</text>
</g>
<!-- DefaultPipe&#45;&gt;WvrSharedModule -->
<g id="edge1" class="edge">
<title>DefaultPipe&#45;&gt;WvrSharedModule</title>
<path fill="none" stroke="black" d="M4178.6,-122.11C4178.6,-141.34 4178.6,-169 4178.6,-169 4178.6,-169 2363.7,-169 2363.7,-169"/>
<polygon fill="black" stroke="black" points="2363.7,-165.5 2353.7,-169 2363.7,-172.5 2363.7,-165.5"/>
</g>
<!-- SafePipe -->
<g id="node2" class="node">
<title>SafePipe</title>
<polygon fill="#ffffb3" stroke="black" points="4149.76,-122 4084.24,-122 4084.24,-86 4149.76,-86 4149.76,-122"/>
<text text-anchor="middle" x="4117" y="-99.8" font-family="Times,serif" font-size="14.00">SafePipe</text>
</g>
<!-- SafePipe&#45;&gt;WvrSharedModule -->
<g id="edge2" class="edge">
<title>SafePipe&#45;&gt;WvrSharedModule</title>
<path fill="none" stroke="black" d="M4093.18,-122.22C4093.18,-140.83 4093.18,-167 4093.18,-167 4093.18,-167 2363.74,-167 2363.74,-167"/>
<polygon fill="black" stroke="black" points="2363.74,-163.5 2353.74,-167 2363.74,-170.5 2363.74,-163.5"/>
</g>
<!-- WvrAlertComponent -->
<g id="node3" class="node">
<title>WvrAlertComponent</title>
<polygon fill="#ffffb3" stroke="black" points="4066.47,-122 3931.53,-122 3931.53,-86 4066.47,-86 4066.47,-122"/>
<text text-anchor="middle" x="3999" y="-99.8" font-family="Times,serif" font-size="14.00">WvrAlertComponent</text>
</g>
<!-- WvrAlertComponent&#45;&gt;WvrSharedModule -->
<g id="edge3" class="edge">
<title>WvrAlertComponent&#45;&gt;WvrSharedModule</title>
<path fill="none" stroke="black" d="M3938.71,-122.27C3938.71,-140.56 3938.71,-166 3938.71,-166 3938.71,-166 2364.04,-166 2364.04,-166"/>
<polygon fill="black" stroke="black" points="2364.04,-162.5 2354.04,-166 2364.04,-169.5 2364.04,-162.5"/>
</g>
<!-- WvrButtonComponent -->
<g id="node4" class="node">
<title>WvrButtonComponent</title>
<polygon fill="#ffffb3" stroke="black" points="3913.33,-122 3768.67,-122 3768.67,-86 3913.33,-86 3913.33,-122"/>
<text text-anchor="middle" x="3841" y="-99.8" font-family="Times,serif" font-size="14.00">WvrButtonComponent</text>
</g>
<!-- WvrButtonComponent&#45;&gt;WvrSharedModule -->
<g id="edge4" class="edge">
<title>WvrButtonComponent&#45;&gt;WvrSharedModule</title>
<path fill="none" stroke="black" d="M3774.65,-122C3774.65,-139.68 3774.65,-164 3774.65,-164 3774.65,-164 2363.82,-164 2363.82,-164"/>
<polygon fill="black" stroke="black" points="2363.82,-160.5 2353.82,-164 2363.82,-167.5 2363.82,-160.5"/>
</g>
<!-- WvrCardComponent -->
<g id="node5" class="node">
<title>WvrCardComponent</title>
<polygon fill="#ffffb3" stroke="black" points="3750.92,-122 3617.08,-122 3617.08,-86 3750.92,-86 3750.92,-122"/>
<text text-anchor="middle" x="3684" y="-99.8" font-family="Times,serif" font-size="14.00">WvrCardComponent</text>
</g>
<!-- WvrCardComponent&#45;&gt;WvrSharedModule -->
<g id="edge5" class="edge">
<title>WvrCardComponent&#45;&gt;WvrSharedModule</title>
<path fill="none" stroke="black" d="M3621.51,-122.02C3621.51,-139.37 3621.51,-163 3621.51,-163 3621.51,-163 2363.9,-163 2363.9,-163"/>
<polygon fill="black" stroke="black" points="2363.9,-159.5 2353.9,-163 2363.9,-166.5 2363.9,-159.5"/>
</g>
<!-- WvrColorPreviewComponent -->
<g id="node6" class="node">
<title>WvrColorPreviewComponent</title>
<polygon fill="#ffffb3" stroke="black" points="3598.97,-122 3415.03,-122 3415.03,-86 3598.97,-86 3598.97,-122"/>
<text text-anchor="middle" x="3507" y="-99.8" font-family="Times,serif" font-size="14.00">WvrColorPreviewComponent</text>
</g>
<!-- WvrColorPreviewComponent&#45;&gt;WvrSharedModule -->
<g id="edge6" class="edge">
<title>WvrColorPreviewComponent&#45;&gt;WvrSharedModule</title>
<path fill="none" stroke="black" d="M3429.22,-122.03C3429.22,-139.06 3429.22,-162 3429.22,-162 3429.22,-162 2363.95,-162 2363.95,-162"/>
<polygon fill="black" stroke="black" points="2363.95,-158.5 2353.95,-162 2363.95,-165.5 2363.95,-158.5"/>
</g>
<!-- WvrContentProjectionDirective -->
<g id="node7" class="node">
<title>WvrContentProjectionDirective</title>
<polygon fill="#ffffb3" stroke="black" points="3397.33,-122 3202.67,-122 3202.67,-86 3397.33,-86 3397.33,-122"/>
<text text-anchor="middle" x="3300" y="-99.8" font-family="Times,serif" font-size="14.00">WvrContentProjectionDirective</text>
</g>
<!-- WvrContentProjectionDirective&#45;&gt;WvrSharedModule -->
<g id="edge7" class="edge">
<title>WvrContentProjectionDirective&#45;&gt;WvrSharedModule</title>
<path fill="none" stroke="black" d="M3212.81,-122.03C3212.81,-138.4 3212.81,-160 3212.81,-160 3212.81,-160 2363.85,-160 2363.85,-160"/>
<polygon fill="black" stroke="black" points="2363.85,-156.5 2353.85,-160 2363.85,-163.5 2363.85,-156.5"/>
</g>
<!-- WvrDropdownComponent -->
<g id="node8" class="node">
<title>WvrDropdownComponent</title>
<polygon fill="#ffffb3" stroke="black" points="3185.08,-122 3018.92,-122 3018.92,-86 3185.08,-86 3185.08,-122"/>
<text text-anchor="middle" x="3102" y="-99.8" font-family="Times,serif" font-size="14.00">WvrDropdownComponent</text>
</g>
<!-- WvrDropdownComponent&#45;&gt;WvrSharedModule -->
<g id="edge8" class="edge">
<title>WvrDropdownComponent&#45;&gt;WvrSharedModule</title>
<path fill="none" stroke="black" d="M3026.58,-122.01C3026.58,-138.05 3026.58,-159 3026.58,-159 3026.58,-159 2363.68,-159 2363.68,-159"/>
<polygon fill="black" stroke="black" points="2363.68,-155.5 2353.68,-159 2363.68,-162.5 2363.68,-155.5"/>
</g>
<!-- WvrFooterComponent -->
<g id="node9" class="node">
<title>WvrFooterComponent</title>
<polygon fill="#ffffb3" stroke="black" points="3001.26,-122 2858.74,-122 2858.74,-86 3001.26,-86 3001.26,-122"/>
<text text-anchor="middle" x="2930" y="-99.8" font-family="Times,serif" font-size="14.00">WvrFooterComponent</text>
</g>
<!-- WvrFooterComponent&#45;&gt;WvrSharedModule -->
<g id="edge9" class="edge">
<title>WvrFooterComponent&#45;&gt;WvrSharedModule</title>
<path fill="none" stroke="black" d="M2864.25,-122.24C2864.25,-137.57 2864.25,-157 2864.25,-157 2864.25,-157 2363.78,-157 2363.78,-157"/>
<polygon fill="black" stroke="black" points="2363.78,-153.5 2353.78,-157 2363.78,-160.5 2363.78,-153.5"/>
</g>
<!-- WvrHeaderComponent -->
<g id="node10" class="node">
<title>WvrHeaderComponent</title>
<polygon fill="#ffffb3" stroke="black" points="2840.12,-122 2693.88,-122 2693.88,-86 2840.12,-86 2840.12,-122"/>
<text text-anchor="middle" x="2767" y="-99.8" font-family="Times,serif" font-size="14.00">WvrHeaderComponent</text>
</g>
<!-- WvrHeaderComponent&#45;&gt;WvrSharedModule -->
<g id="edge10" class="edge">
<title>WvrHeaderComponent&#45;&gt;WvrSharedModule</title>
<path fill="none" stroke="black" d="M2697.82,-122.19C2697.82,-137.18 2697.82,-156 2697.82,-156 2697.82,-156 2364.08,-156 2364.08,-156"/>
<polygon fill="black" stroke="black" points="2364.08,-152.5 2354.08,-156 2364.08,-159.5 2364.08,-152.5"/>
</g>
<!-- WvrIconComponent -->
<g id="node11" class="node">
<title>WvrIconComponent</title>
<polygon fill="#ffffb3" stroke="black" points="2675.58,-122 2544.42,-122 2544.42,-86 2675.58,-86 2675.58,-122"/>
<text text-anchor="middle" x="2610" y="-99.8" font-family="Times,serif" font-size="14.00">WvrIconComponent</text>
</g>
<!-- WvrIconComponent&#45;&gt;WvrSharedModule -->
<g id="edge11" class="edge">
<title>WvrIconComponent&#45;&gt;WvrSharedModule</title>
<path fill="none" stroke="black" d="M2633.6,-122.05C2633.6,-136.37 2633.6,-154 2633.6,-154 2633.6,-154 2363.86,-154 2363.86,-154"/>
<polygon fill="black" stroke="black" points="2363.86,-150.5 2353.86,-154 2363.86,-157.5 2363.86,-150.5"/>
</g>
<!-- WvrItWorksComponent -->
<g id="node12" class="node">
<title>WvrItWorksComponent</title>
<polygon fill="#ffffb3" stroke="black" points="2526.08,-122 2373.92,-122 2373.92,-86 2526.08,-86 2526.08,-122"/>
<text text-anchor="middle" x="2450" y="-99.8" font-family="Times,serif" font-size="14.00">WvrItWorksComponent</text>
</g>
<!-- WvrItWorksComponent&#45;&gt;WvrSharedModule -->
<g id="edge12" class="edge">
<title>WvrItWorksComponent&#45;&gt;WvrSharedModule</title>
<path fill="none" stroke="black" d="M2476.1,-122.25C2476.1,-136.18 2476.1,-153 2476.1,-153 2476.1,-153 2363.81,-153 2363.81,-153"/>
<polygon fill="black" stroke="black" points="2363.81,-149.5 2353.81,-153 2363.81,-156.5 2363.81,-149.5"/>
</g>
<!-- WvrListComponent -->
<g id="node13" class="node">
<title>WvrListComponent</title>
<polygon fill="#ffffb3" stroke="black" points="2355.99,-122 2228.01,-122 2228.01,-86 2355.99,-86 2355.99,-122"/>
<text text-anchor="middle" x="2292" y="-99.8" font-family="Times,serif" font-size="14.00">WvrListComponent</text>
</g>
<!-- WvrListComponent&#45;&gt;WvrSharedModule -->
<g id="edge13" class="edge">
<title>WvrListComponent&#45;&gt;WvrSharedModule</title>
<path fill="none" stroke="black" d="M2292,-122.11C2292,-122.11 2292,-140.99 2292,-140.99"/>
<polygon fill="black" stroke="black" points="2288.5,-140.99 2292,-150.99 2295.5,-140.99 2288.5,-140.99"/>
</g>
<!-- WvrListItemComponent -->
<g id="node14" class="node">
<title>WvrListItemComponent</title>
<polygon fill="#ffffb3" stroke="black" points="2209.64,-122 2056.36,-122 2056.36,-86 2209.64,-86 2209.64,-122"/>
<text text-anchor="middle" x="2133" y="-99.8" font-family="Times,serif" font-size="14.00">WvrListItemComponent</text>
</g>
<!-- WvrListItemComponent&#45;&gt;WvrSharedModule -->
<g id="edge14" class="edge">
<title>WvrListItemComponent&#45;&gt;WvrSharedModule</title>
<path fill="none" stroke="black" d="M2157.77,-122.25C2157.77,-136.18 2157.77,-153 2157.77,-153 2157.77,-153 2219.99,-153 2219.99,-153"/>
<polygon fill="black" stroke="black" points="2219.99,-156.5 2229.99,-153 2219.99,-149.5 2219.99,-156.5"/>
</g>
<!-- WvrManifestComponent -->
<g id="node15" class="node">
<title>WvrManifestComponent</title>
<polygon fill="#ffffb3" stroke="black" points="2037.97,-122 1882.03,-122 1882.03,-86 2037.97,-86 2037.97,-122"/>
<text text-anchor="middle" x="1960" y="-99.8" font-family="Times,serif" font-size="14.00">WvrManifestComponent</text>
</g>
<!-- WvrManifestComponent&#45;&gt;WvrSharedModule -->
<g id="edge15" class="edge">
<title>WvrManifestComponent&#45;&gt;WvrSharedModule</title>
<path fill="none" stroke="black" d="M1983.16,-122.05C1983.16,-136.37 1983.16,-154 1983.16,-154 1983.16,-154 2220.24,-154 2220.24,-154"/>
<polygon fill="black" stroke="black" points="2220.24,-157.5 2230.24,-154 2220.24,-150.5 2220.24,-157.5"/>
</g>
<!-- WvrManifestEntryComponent -->
<g id="node16" class="node">
<title>WvrManifestEntryComponent</title>
<polygon fill="#ffffb3" stroke="black" points="1863.57,-122 1676.43,-122 1676.43,-86 1863.57,-86 1863.57,-122"/>
<text text-anchor="middle" x="1770" y="-99.8" font-family="Times,serif" font-size="14.00">WvrManifestEntryComponent</text>
</g>
<!-- WvrManifestEntryComponent&#45;&gt;WvrSharedModule -->
<g id="edge16" class="edge">
<title>WvrManifestEntryComponent&#45;&gt;WvrSharedModule</title>
<path fill="none" stroke="black" d="M1859.91,-122.19C1859.91,-137.18 1859.91,-156 1859.91,-156 1859.91,-156 2220.09,-156 2220.09,-156"/>
<polygon fill="black" stroke="black" points="2220.09,-159.5 2230.09,-156 2220.09,-152.5 2220.09,-159.5"/>
</g>
<!-- WvrMessageManifestComponent -->
<g id="node17" class="node">
<title>WvrMessageManifestComponent</title>
<polygon fill="#ffffb3" stroke="black" points="1658.45,-122 1453.55,-122 1453.55,-86 1658.45,-86 1658.45,-122"/>
<text text-anchor="middle" x="1556" y="-99.8" font-family="Times,serif" font-size="14.00">WvrMessageManifestComponent</text>
</g>
<!-- WvrMessageManifestComponent&#45;&gt;WvrSharedModule -->
<g id="edge17" class="edge">
<title>WvrMessageManifestComponent&#45;&gt;WvrSharedModule</title>
<path fill="none" stroke="black" d="M1652.85,-122.24C1652.85,-137.57 1652.85,-157 1652.85,-157 1652.85,-157 2220.13,-157 2220.13,-157"/>
<polygon fill="black" stroke="black" points="2220.13,-160.5 2230.13,-157 2220.13,-153.5 2220.13,-160.5"/>
</g>
<!-- WvrMessageManifestEntryComponent -->
<g id="node18" class="node">
<title>WvrMessageManifestEntryComponent</title>
<polygon fill="#ffffb3" stroke="black" points="1436.05,-122 1199.95,-122 1199.95,-86 1436.05,-86 1436.05,-122"/>
<text text-anchor="middle" x="1318" y="-99.8" font-family="Times,serif" font-size="14.00">WvrMessageManifestEntryComponent</text>
</g>
<!-- WvrMessageManifestEntryComponent&#45;&gt;WvrSharedModule -->
<g id="edge18" class="edge">
<title>WvrMessageManifestEntryComponent&#45;&gt;WvrSharedModule</title>
<path fill="none" stroke="black" d="M1428.4,-122.01C1428.4,-138.05 1428.4,-159 1428.4,-159 1428.4,-159 2220.24,-159 2220.24,-159"/>
<polygon fill="black" stroke="black" points="2220.24,-162.5 2230.24,-159 2220.24,-155.5 2220.24,-162.5"/>
</g>
<!-- WvrModalComponent -->
<g id="node19" class="node">
<title>WvrModalComponent</title>
<polygon fill="#ffffb3" stroke="black" points="1182.26,-122 1039.74,-122 1039.74,-86 1182.26,-86 1182.26,-122"/>
<text text-anchor="middle" x="1111" y="-99.8" font-family="Times,serif" font-size="14.00">WvrModalComponent</text>
</g>
<!-- WvrModalComponent&#45;&gt;WvrSharedModule -->
<g id="edge19" class="edge">
<title>WvrModalComponent&#45;&gt;WvrSharedModule</title>
<path fill="none" stroke="black" d="M1172.18,-122.03C1172.18,-138.4 1172.18,-160 1172.18,-160 1172.18,-160 2220.2,-160 2220.2,-160"/>
<polygon fill="black" stroke="black" points="2220.2,-163.5 2230.2,-160 2220.2,-156.5 2220.2,-163.5"/>
</g>
<!-- WvrNavLiComponent -->
<g id="node20" class="node">
<title>WvrNavLiComponent</title>
<polygon fill="#ffffb3" stroke="black" points="1021.97,-122 880.03,-122 880.03,-86 1021.97,-86 1021.97,-122"/>
<text text-anchor="middle" x="951" y="-99.8" font-family="Times,serif" font-size="14.00">WvrNavLiComponent</text>
</g>
<!-- WvrNavLiComponent&#45;&gt;WvrSharedModule -->
<g id="edge20" class="edge">
<title>WvrNavLiComponent&#45;&gt;WvrSharedModule</title>
<path fill="none" stroke="black" d="M1007.8,-122.03C1007.8,-139.06 1007.8,-162 1007.8,-162 1007.8,-162 2220.06,-162 2220.06,-162"/>
<polygon fill="black" stroke="black" points="2220.06,-165.5 2230.06,-162 2220.06,-158.5 2220.06,-165.5"/>
</g>
<!-- WvrNavListComponent -->
<g id="node21" class="node">
<title>WvrNavListComponent</title>
<polygon fill="#ffffb3" stroke="black" points="861.81,-122 710.19,-122 710.19,-86 861.81,-86 861.81,-122"/>
<text text-anchor="middle" x="786" y="-99.8" font-family="Times,serif" font-size="14.00">WvrNavListComponent</text>
</g>
<!-- WvrNavListComponent&#45;&gt;WvrSharedModule -->
<g id="edge21" class="edge">
<title>WvrNavListComponent&#45;&gt;WvrSharedModule</title>
<path fill="none" stroke="black" d="M857.46,-122.02C857.46,-139.37 857.46,-163 857.46,-163 857.46,-163 2219.9,-163 2219.9,-163"/>
<polygon fill="black" stroke="black" points="2219.9,-166.5 2229.9,-163 2219.9,-159.5 2219.9,-166.5"/>
</g>
<!-- WvrTabsComponent -->
<g id="node22" class="node">
<title>WvrTabsComponent</title>
<polygon fill="#ffffb3" stroke="black" points="692.92,-122 559.08,-122 559.08,-86 692.92,-86 692.92,-122"/>
<text text-anchor="middle" x="626" y="-99.8" font-family="Times,serif" font-size="14.00">WvrTabsComponent</text>
</g>
<!-- WvrTabsComponent&#45;&gt;WvrSharedModule -->
<g id="edge22" class="edge">
<title>WvrTabsComponent&#45;&gt;WvrSharedModule</title>
<path fill="none" stroke="black" d="M686.65,-122C686.65,-139.68 686.65,-164 686.65,-164 686.65,-164 2220.05,-164 2220.05,-164"/>
<polygon fill="black" stroke="black" points="2220.05,-167.5 2230.05,-164 2220.05,-160.5 2220.05,-167.5"/>
</g>
<!-- WvrTextComponent -->
<g id="node23" class="node">
<title>WvrTextComponent</title>
<polygon fill="#ffffb3" stroke="black" points="540.87,-122 409.13,-122 409.13,-86 540.87,-86 540.87,-122"/>
<text text-anchor="middle" x="475" y="-99.8" font-family="Times,serif" font-size="14.00">WvrTextComponent</text>
</g>
<!-- WvrTextComponent&#45;&gt;WvrSharedModule -->
<g id="edge23" class="edge">
<title>WvrTextComponent&#45;&gt;WvrSharedModule</title>
<path fill="none" stroke="black" d="M533.24,-122.27C533.24,-140.56 533.24,-166 533.24,-166 533.24,-166 2220.18,-166 2220.18,-166"/>
<polygon fill="black" stroke="black" points="2220.18,-169.5 2230.18,-166 2220.18,-162.5 2220.18,-169.5"/>
</g>
<!-- WvrThemeComponent -->
<g id="node24" class="node">
<title>WvrThemeComponent</title>
<polygon fill="#ffffb3" stroke="black" points="391.58,-122 246.42,-122 246.42,-86 391.58,-86 391.58,-122"/>
<text text-anchor="middle" x="319" y="-99.8" font-family="Times,serif" font-size="14.00">WvrThemeComponent</text>
</g>
<!-- WvrThemeComponent&#45;&gt;WvrSharedModule -->
<g id="edge24" class="edge">
<title>WvrThemeComponent&#45;&gt;WvrSharedModule</title>
<path fill="none" stroke="black" d="M381.93,-122.22C381.93,-140.83 381.93,-167 381.93,-167 381.93,-167 2220.34,-167 2220.34,-167"/>
<polygon fill="black" stroke="black" points="2220.34,-170.5 2230.34,-167 2220.34,-163.5 2220.34,-170.5"/>
</g>
<!-- WvrWysiwygComponent -->
<g id="node25" class="node">
<title>WvrWysiwygComponent</title>
<polygon fill="#ffffb3" stroke="black" points="228.86,-122 69.14,-122 69.14,-86 228.86,-86 228.86,-122"/>
<text text-anchor="middle" x="149" y="-99.8" font-family="Times,serif" font-size="14.00">WvrWysiwygComponent</text>
</g>
<!-- WvrWysiwygComponent&#45;&gt;WvrSharedModule -->
<g id="edge25" class="edge">
<title>WvrWysiwygComponent&#45;&gt;WvrSharedModule</title>
<path fill="none" stroke="black" d="M217.32,-122.11C217.32,-141.34 217.32,-169 217.32,-169 217.32,-169 2220.19,-169 2220.19,-169"/>
<polygon fill="black" stroke="black" points="2220.19,-172.5 2230.19,-169 2220.19,-165.5 2220.19,-172.5"/>
</g>
<!-- DefaultPipe  -->
<g id="node27" class="node">
<title>DefaultPipe </title>
<polygon fill="#fb8072" stroke="black" points="4294.37,-252 4207.63,-252 4207.63,-216 4294.37,-216 4294.37,-252"/>
<text text-anchor="middle" x="4251" y="-229.8" font-family="Times,serif" font-size="14.00">DefaultPipe </text>
</g>
<!-- WvrSharedModule&#45;&gt;DefaultPipe  -->
<g id="edge26" class="edge">
<title>WvrSharedModule&#45;&gt;DefaultPipe </title>
<path fill="none" stroke="black" stroke-dasharray="5,2" d="M2353.71,-170C2684.14,-170 4229.12,-170 4229.12,-170 4229.12,-170 4229.12,-205.83 4229.12,-205.83"/>
<polygon fill="black" stroke="black" points="4225.63,-205.83 4229.12,-215.83 4232.63,-205.83 4225.63,-205.83"/>
</g>
<!-- SafePipe  -->
<g id="node28" class="node">
<title>SafePipe </title>
<polygon fill="#fb8072" stroke="black" points="4189.76,-252 4120.24,-252 4120.24,-216 4189.76,-216 4189.76,-252"/>
<text text-anchor="middle" x="4155" y="-229.8" font-family="Times,serif" font-size="14.00">SafePipe </text>
</g>
<!-- WvrSharedModule&#45;&gt;SafePipe  -->
<g id="edge27" class="edge">
<title>WvrSharedModule&#45;&gt;SafePipe </title>
<path fill="none" stroke="black" stroke-dasharray="5,2" d="M2353.85,-172C2674.74,-172 4135.12,-172 4135.12,-172 4135.12,-172 4135.12,-205.73 4135.12,-205.73"/>
<polygon fill="black" stroke="black" points="4131.63,-205.73 4135.12,-215.73 4138.63,-205.73 4131.63,-205.73"/>
</g>
<!-- WvrAlertComponent  -->
<g id="node29" class="node">
<title>WvrAlertComponent </title>
<polygon fill="#fb8072" stroke="black" points="4102.47,-252 3963.53,-252 3963.53,-216 4102.47,-216 4102.47,-252"/>
<text text-anchor="middle" x="4033" y="-229.8" font-family="Times,serif" font-size="14.00">WvrAlertComponent </text>
</g>
<!-- WvrSharedModule&#45;&gt;WvrAlertComponent  -->
<g id="edge28" class="edge">
<title>WvrSharedModule&#45;&gt;WvrAlertComponent </title>
<path fill="none" stroke="black" stroke-dasharray="5,2" d="M2353.83,-173C2661.77,-173 4015.12,-173 4015.12,-173 4015.12,-173 4015.12,-205.7 4015.12,-205.7"/>
<polygon fill="black" stroke="black" points="4011.63,-205.7 4015.12,-215.7 4018.63,-205.7 4011.63,-205.7"/>
</g>
<!-- WvrButtonComponent  -->
<g id="node30" class="node">
<title>WvrButtonComponent </title>
<polygon fill="#fb8072" stroke="black" points="3945.83,-252 3798.17,-252 3798.17,-216 3945.83,-216 3945.83,-252"/>
<text text-anchor="middle" x="3872" y="-229.8" font-family="Times,serif" font-size="14.00">WvrButtonComponent </text>
</g>
<!-- WvrSharedModule&#45;&gt;WvrButtonComponent  -->
<g id="edge29" class="edge">
<title>WvrSharedModule&#45;&gt;WvrButtonComponent </title>
<path fill="none" stroke="black" stroke-dasharray="5,2" d="M2353.78,-175C2643.73,-175 3855.62,-175 3855.62,-175 3855.62,-175 3855.62,-205.98 3855.62,-205.98"/>
<polygon fill="black" stroke="black" points="3852.13,-205.98 3855.62,-215.98 3859.13,-205.98 3852.13,-205.98"/>
</g>
<!-- WvrCardComponent  -->
<g id="node31" class="node">
<title>WvrCardComponent </title>
<polygon fill="#fb8072" stroke="black" points="3780.42,-252 3643.58,-252 3643.58,-216 3780.42,-216 3780.42,-252"/>
<text text-anchor="middle" x="3712" y="-229.8" font-family="Times,serif" font-size="14.00">WvrCardComponent </text>
</g>
<!-- WvrSharedModule&#45;&gt;WvrCardComponent  -->
<g id="edge30" class="edge">
<title>WvrSharedModule&#45;&gt;WvrCardComponent </title>
<path fill="none" stroke="black" stroke-dasharray="5,2" d="M2353.73,-176C2624.93,-176 3697.12,-176 3697.12,-176 3697.12,-176 3697.12,-205.97 3697.12,-205.97"/>
<polygon fill="black" stroke="black" points="3693.63,-205.97 3697.12,-215.97 3700.63,-205.97 3693.63,-205.97"/>
</g>
<!-- WvrColorPreviewComponent  -->
<g id="node32" class="node">
<title>WvrColorPreviewComponent </title>
<polygon fill="#fb8072" stroke="black" points="3625.97,-252 3438.03,-252 3438.03,-216 3625.97,-216 3625.97,-252"/>
<text text-anchor="middle" x="3532" y="-229.8" font-family="Times,serif" font-size="14.00">WvrColorPreviewComponent </text>
</g>
<!-- WvrSharedModule&#45;&gt;WvrColorPreviewComponent  -->
<g id="edge31" class="edge">
<title>WvrSharedModule&#45;&gt;WvrColorPreviewComponent </title>
<path fill="none" stroke="black" stroke-dasharray="5,2" d="M2353.67,-177C2602.41,-177 3518.62,-177 3518.62,-177 3518.62,-177 3518.62,-205.96 3518.62,-205.96"/>
<polygon fill="black" stroke="black" points="3515.13,-205.96 3518.62,-215.96 3522.13,-205.96 3515.13,-205.96"/>
</g>
<!-- WvrContentProjectionDirective  -->
<g id="node33" class="node">
<title>WvrContentProjectionDirective </title>
<polygon fill="#fb8072" stroke="black" points="3420.33,-252 3221.67,-252 3221.67,-216 3420.33,-216 3420.33,-252"/>
<text text-anchor="middle" x="3321" y="-229.8" font-family="Times,serif" font-size="14.00">WvrContentProjectionDirective </text>
</g>
<!-- WvrSharedModule&#45;&gt;WvrContentProjectionDirective  -->
<g id="edge32" class="edge">
<title>WvrSharedModule&#45;&gt;WvrContentProjectionDirective </title>
<path fill="none" stroke="black" stroke-dasharray="5,2" d="M2353.74,-179C2574.22,-179 3309.62,-179 3309.62,-179 3309.62,-179 3309.62,-205.99 3309.62,-205.99"/>
<polygon fill="black" stroke="black" points="3306.13,-205.99 3309.62,-215.99 3313.13,-205.99 3306.13,-205.99"/>
</g>
<!-- WvrDropdownComponent  -->
<g id="node34" class="node">
<title>WvrDropdownComponent </title>
<polygon fill="#fb8072" stroke="black" points="3203.58,-252 3034.42,-252 3034.42,-216 3203.58,-216 3203.58,-252"/>
<text text-anchor="middle" x="3119" y="-229.8" font-family="Times,serif" font-size="14.00">WvrDropdownComponent </text>
</g>
<!-- WvrSharedModule&#45;&gt;WvrDropdownComponent  -->
<g id="edge33" class="edge">
<title>WvrSharedModule&#45;&gt;WvrDropdownComponent </title>
<path fill="none" stroke="black" stroke-dasharray="5,2" d="M2353.79,-180C2544.27,-180 3109.62,-180 3109.62,-180 3109.62,-180 3109.62,-205.72 3109.62,-205.72"/>
<polygon fill="black" stroke="black" points="3106.13,-205.72 3109.62,-215.72 3113.13,-205.72 3106.13,-205.72"/>
</g>
<!-- WvrFooterComponent  -->
<g id="node35" class="node">
<title>WvrFooterComponent </title>
<polygon fill="#fb8072" stroke="black" points="3016.26,-252 2869.74,-252 2869.74,-216 3016.26,-216 3016.26,-252"/>
<text text-anchor="middle" x="2943" y="-229.8" font-family="Times,serif" font-size="14.00">WvrFooterComponent </text>
</g>
<!-- WvrSharedModule&#45;&gt;WvrFooterComponent  -->
<g id="edge34" class="edge">
<title>WvrSharedModule&#45;&gt;WvrFooterComponent </title>
<path fill="none" stroke="black" stroke-dasharray="5,2" d="M2353.71,-182C2514.81,-182 2935.62,-182 2935.62,-182 2935.62,-182 2935.62,-205.81 2935.62,-205.81"/>
<polygon fill="black" stroke="black" points="2932.13,-205.81 2935.62,-215.81 2939.13,-205.81 2932.13,-205.81"/>
</g>
<!-- WvrHeaderComponent  -->
<g id="node36" class="node">
<title>WvrHeaderComponent </title>
<polygon fill="#fb8072" stroke="black" points="2852.12,-252 2701.88,-252 2701.88,-216 2852.12,-216 2852.12,-252"/>
<text text-anchor="middle" x="2777" y="-229.8" font-family="Times,serif" font-size="14.00">WvrHeaderComponent </text>
</g>
<!-- WvrSharedModule&#45;&gt;WvrHeaderComponent  -->
<g id="edge35" class="edge">
<title>WvrSharedModule&#45;&gt;WvrHeaderComponent </title>
<path fill="none" stroke="black" stroke-dasharray="5,2" d="M2353.66,-183C2483.06,-183 2771.12,-183 2771.12,-183 2771.12,-183 2771.12,-205.88 2771.12,-205.88"/>
<polygon fill="black" stroke="black" points="2767.63,-205.88 2771.12,-215.88 2774.63,-205.88 2767.63,-205.88"/>
</g>
<!-- WvrIconComponent  -->
<g id="node37" class="node">
<title>WvrIconComponent </title>
<polygon fill="#fb8072" stroke="black" points="2684.08,-252 2549.92,-252 2549.92,-216 2684.08,-216 2684.08,-252"/>
<text text-anchor="middle" x="2617" y="-229.8" font-family="Times,serif" font-size="14.00">WvrIconComponent </text>
</g>
<!-- WvrSharedModule&#45;&gt;WvrIconComponent  -->
<g id="edge36" class="edge">
<title>WvrSharedModule&#45;&gt;WvrIconComponent </title>
<path fill="none" stroke="black" stroke-dasharray="5,2" d="M2353.72,-185C2441.44,-185 2591.65,-185 2591.65,-185 2591.65,-185 2591.65,-205.75 2591.65,-205.75"/>
<polygon fill="black" stroke="black" points="2588.15,-205.75 2591.65,-215.75 2595.15,-205.75 2588.15,-205.75"/>
</g>
<!-- WvrItWorksComponent  -->
<g id="node38" class="node">
<title>WvrItWorksComponent </title>
<polygon fill="#fb8072" stroke="black" points="2531.58,-252 2376.42,-252 2376.42,-216 2531.58,-216 2531.58,-252"/>
<text text-anchor="middle" x="2454" y="-229.8" font-family="Times,serif" font-size="14.00">WvrItWorksComponent </text>
</g>
<!-- WvrSharedModule&#45;&gt;WvrItWorksComponent  -->
<g id="edge37" class="edge">
<title>WvrSharedModule&#45;&gt;WvrItWorksComponent </title>
<path fill="none" stroke="black" stroke-dasharray="5,2" d="M2353.97,-186C2389.12,-186 2426.15,-186 2426.15,-186 2426.15,-186 2426.15,-205.85 2426.15,-205.85"/>
<polygon fill="black" stroke="black" points="2422.65,-205.85 2426.15,-215.85 2429.65,-205.85 2422.65,-205.85"/>
</g>
<!-- WvrListComponent  -->
<g id="node39" class="node">
<title>WvrListComponent </title>
<polygon fill="#fb8072" stroke="black" points="2357.99,-252 2226.01,-252 2226.01,-216 2357.99,-216 2357.99,-252"/>
<text text-anchor="middle" x="2292" y="-229.8" font-family="Times,serif" font-size="14.00">WvrListComponent </text>
</g>
<!-- WvrSharedModule&#45;&gt;WvrListComponent  -->
<g id="edge38" class="edge">
<title>WvrSharedModule&#45;&gt;WvrListComponent </title>
<path fill="none" stroke="black" stroke-dasharray="5,2" d="M2292,-187.11C2292,-187.11 2292,-205.99 2292,-205.99"/>
<polygon fill="black" stroke="black" points="2288.5,-205.99 2292,-215.99 2295.5,-205.99 2288.5,-205.99"/>
</g>
<!-- WvrListItemComponent  -->
<g id="node40" class="node">
<title>WvrListItemComponent </title>
<polygon fill="#fb8072" stroke="black" points="2208.64,-252 2051.36,-252 2051.36,-216 2208.64,-216 2208.64,-252"/>
<text text-anchor="middle" x="2130" y="-229.8" font-family="Times,serif" font-size="14.00">WvrListItemComponent </text>
</g>
<!-- WvrSharedModule&#45;&gt;WvrListItemComponent  -->
<g id="edge39" class="edge">
<title>WvrSharedModule&#45;&gt;WvrListItemComponent </title>
<path fill="none" stroke="black" stroke-dasharray="5,2" d="M2230.13,-186C2176.34,-186 2106.98,-186 2106.98,-186 2106.98,-186 2106.98,-205.85 2106.98,-205.85"/>
<polygon fill="black" stroke="black" points="2103.48,-205.85 2106.98,-215.85 2110.48,-205.85 2103.48,-205.85"/>
</g>
<!-- WvrManifestComponent  -->
<g id="node41" class="node">
<title>WvrManifestComponent </title>
<polygon fill="#fb8072" stroke="black" points="2033.97,-252 1874.03,-252 1874.03,-216 2033.97,-216 2033.97,-252"/>
<text text-anchor="middle" x="1954" y="-229.8" font-family="Times,serif" font-size="14.00">WvrManifestComponent </text>
</g>
<!-- WvrSharedModule&#45;&gt;WvrManifestComponent  -->
<g id="edge40" class="edge">
<title>WvrSharedModule&#45;&gt;WvrManifestComponent </title>
<path fill="none" stroke="black" stroke-dasharray="5,2" d="M2230.21,-185C2127.45,-185 1932.59,-185 1932.59,-185 1932.59,-185 1932.59,-205.75 1932.59,-205.75"/>
<polygon fill="black" stroke="black" points="1929.09,-205.75 1932.59,-215.75 1936.09,-205.75 1929.09,-205.75"/>
</g>
<!-- WvrManifestEntryComponent  -->
<g id="node42" class="node">
<title>WvrManifestEntryComponent </title>
<polygon fill="#fb8072" stroke="black" points="1856.07,-252 1665.93,-252 1665.93,-216 1856.07,-216 1856.07,-252"/>
<text text-anchor="middle" x="1761" y="-229.8" font-family="Times,serif" font-size="14.00">WvrManifestEntryComponent </text>
</g>
<!-- WvrSharedModule&#45;&gt;WvrManifestEntryComponent  -->
<g id="edge41" class="edge">
<title>WvrSharedModule&#45;&gt;WvrManifestEntryComponent </title>
<path fill="none" stroke="black" stroke-dasharray="5,2" d="M2230.16,-183C2091.21,-183 1766.38,-183 1766.38,-183 1766.38,-183 1766.38,-205.88 1766.38,-205.88"/>
<polygon fill="black" stroke="black" points="1762.88,-205.88 1766.38,-215.88 1769.88,-205.88 1762.88,-205.88"/>
</g>
<!-- WvrMessageManifestComponent  -->
<g id="node43" class="node">
<title>WvrMessageManifestComponent </title>
<polygon fill="#fb8072" stroke="black" points="1647.45,-252 1438.55,-252 1438.55,-216 1647.45,-216 1647.45,-252"/>
<text text-anchor="middle" x="1543" y="-229.8" font-family="Times,serif" font-size="14.00">WvrMessageManifestComponent </text>
</g>
<!-- WvrSharedModule&#45;&gt;WvrMessageManifestComponent  -->
<g id="edge42" class="edge">
<title>WvrSharedModule&#45;&gt;WvrMessageManifestComponent </title>
<path fill="none" stroke="black" stroke-dasharray="5,2" d="M2230.05,-182C2051.8,-182 1550.38,-182 1550.38,-182 1550.38,-182 1550.38,-205.81 1550.38,-205.81"/>
<polygon fill="black" stroke="black" points="1546.88,-205.81 1550.38,-215.81 1553.88,-205.81 1546.88,-205.81"/>
</g>
<!-- WvrMessageManifestEntryComponent  -->
<g id="node44" class="node">
<title>WvrMessageManifestEntryComponent </title>
<polygon fill="#fb8072" stroke="black" points="1420.55,-252 1181.45,-252 1181.45,-216 1420.55,-216 1420.55,-252"/>
<text text-anchor="middle" x="1301" y="-229.8" font-family="Times,serif" font-size="14.00">WvrMessageManifestEntryComponent </text>
</g>
<!-- WvrSharedModule&#45;&gt;WvrMessageManifestEntryComponent  -->
<g id="edge43" class="edge">
<title>WvrSharedModule&#45;&gt;WvrMessageManifestEntryComponent </title>
<path fill="none" stroke="black" stroke-dasharray="5,2" d="M2230.22,-180C2014.88,-180 1310.38,-180 1310.38,-180 1310.38,-180 1310.38,-205.72 1310.38,-205.72"/>
<polygon fill="black" stroke="black" points="1306.88,-205.72 1310.38,-215.72 1313.88,-205.72 1306.88,-205.72"/>
</g>
<!-- WvrModalComponent  -->
<g id="node45" class="node">
<title>WvrModalComponent </title>
<polygon fill="#fb8072" stroke="black" points="1163.26,-252 1016.74,-252 1016.74,-216 1163.26,-216 1163.26,-252"/>
<text text-anchor="middle" x="1090" y="-229.8" font-family="Times,serif" font-size="14.00">WvrModalComponent </text>
</g>
<!-- WvrSharedModule&#45;&gt;WvrModalComponent  -->
<g id="edge44" class="edge">
<title>WvrSharedModule&#45;&gt;WvrModalComponent </title>
<path fill="none" stroke="black" stroke-dasharray="5,2" d="M2230.08,-179C1985.68,-179 1101.38,-179 1101.38,-179 1101.38,-179 1101.38,-205.99 1101.38,-205.99"/>
<polygon fill="black" stroke="black" points="1097.88,-205.99 1101.38,-215.99 1104.88,-205.99 1097.88,-205.99"/>
</g>
<!-- WvrNavLiComponent  -->
<g id="node46" class="node">
<title>WvrNavLiComponent </title>
<polygon fill="#fb8072" stroke="black" points="998.97,-252 853.03,-252 853.03,-216 998.97,-216 998.97,-252"/>
<text text-anchor="middle" x="926" y="-229.8" font-family="Times,serif" font-size="14.00">WvrNavLiComponent </text>
</g>
<!-- WvrSharedModule&#45;&gt;WvrNavLiComponent  -->
<g id="edge45" class="edge">
<title>WvrSharedModule&#45;&gt;WvrNavLiComponent </title>
<path fill="none" stroke="black" stroke-dasharray="5,2" d="M2229.92,-177C1964.6,-177 939.38,-177 939.38,-177 939.38,-177 939.38,-205.96 939.38,-205.96"/>
<polygon fill="black" stroke="black" points="935.88,-205.96 939.38,-215.96 942.88,-205.96 935.88,-205.96"/>
</g>
<!-- WvrNavListComponent  -->
<g id="node47" class="node">
<title>WvrNavListComponent </title>
<polygon fill="#fb8072" stroke="black" points="835.31,-252 680.69,-252 680.69,-216 835.31,-216 835.31,-252"/>
<text text-anchor="middle" x="758" y="-229.8" font-family="Times,serif" font-size="14.00">WvrNavListComponent </text>
</g>
<!-- WvrSharedModule&#45;&gt;WvrNavListComponent  -->
<g id="edge46" class="edge">
<title>WvrSharedModule&#45;&gt;WvrNavListComponent </title>
<path fill="none" stroke="black" stroke-dasharray="5,2" d="M2230.09,-176C1945.06,-176 772.88,-176 772.88,-176 772.88,-176 772.88,-205.97 772.88,-205.97"/>
<polygon fill="black" stroke="black" points="769.38,-205.97 772.88,-215.97 776.38,-205.97 769.38,-205.97"/>
</g>
<!-- WvrTabsComponent  -->
<g id="node48" class="node">
<title>WvrTabsComponent </title>
<polygon fill="#fb8072" stroke="black" points="662.42,-252 525.58,-252 525.58,-216 662.42,-216 662.42,-252"/>
<text text-anchor="middle" x="594" y="-229.8" font-family="Times,serif" font-size="14.00">WvrTabsComponent </text>
</g>
<!-- WvrSharedModule&#45;&gt;WvrTabsComponent  -->
<g id="edge47" class="edge">
<title>WvrSharedModule&#45;&gt;WvrTabsComponent </title>
<path fill="none" stroke="black" stroke-dasharray="5,2" d="M2230.17,-175C1926.88,-175 610.88,-175 610.88,-175 610.88,-175 610.88,-205.98 610.88,-205.98"/>
<polygon fill="black" stroke="black" points="607.38,-205.98 610.88,-215.98 614.38,-205.98 607.38,-205.98"/>
</g>
<!-- WvrTextComponent  -->
<g id="node49" class="node">
<title>WvrTextComponent </title>
<polygon fill="#fb8072" stroke="black" points="507.87,-252 372.13,-252 372.13,-216 507.87,-216 507.87,-252"/>
<text text-anchor="middle" x="440" y="-229.8" font-family="Times,serif" font-size="14.00">WvrTextComponent </text>
</g>
<!-- WvrSharedModule&#45;&gt;WvrTextComponent  -->
<g id="edge48" class="edge">
<title>WvrSharedModule&#45;&gt;WvrTextComponent </title>
<path fill="none" stroke="black" stroke-dasharray="5,2" d="M2230.2,-173C1910.44,-173 458.38,-173 458.38,-173 458.38,-173 458.38,-205.7 458.38,-205.7"/>
<polygon fill="black" stroke="black" points="454.88,-205.7 458.38,-215.7 461.88,-205.7 454.88,-205.7"/>
</g>
<!-- WvrThemeComponent  -->
<g id="node50" class="node">
<title>WvrThemeComponent </title>
<polygon fill="#fb8072" stroke="black" points="354.08,-252 205.92,-252 205.92,-216 354.08,-216 354.08,-252"/>
<text text-anchor="middle" x="280" y="-229.8" font-family="Times,serif" font-size="14.00">WvrThemeComponent </text>
</g>
<!-- WvrSharedModule&#45;&gt;WvrThemeComponent  -->
<g id="edge49" class="edge">
<title>WvrSharedModule&#45;&gt;WvrThemeComponent </title>
<path fill="none" stroke="black" stroke-dasharray="5,2" d="M2230.21,-172C1894.05,-172 300.38,-172 300.38,-172 300.38,-172 300.38,-205.73 300.38,-205.73"/>
<polygon fill="black" stroke="black" points="296.88,-205.73 300.38,-215.73 303.88,-205.73 296.88,-205.73"/>
</g>
<!-- WvrWysiwygComponent  -->
<g id="node51" class="node">
<title>WvrWysiwygComponent </title>
<polygon fill="#fb8072" stroke="black" points="187.86,-252 24.14,-252 24.14,-216 187.86,-216 187.86,-252"/>
<text text-anchor="middle" x="106" y="-229.8" font-family="Times,serif" font-size="14.00">WvrWysiwygComponent </text>
</g>
<!-- WvrSharedModule&#45;&gt;WvrWysiwygComponent  -->
<g id="edge50" class="edge">
<title>WvrSharedModule&#45;&gt;WvrWysiwygComponent </title>
<path fill="none" stroke="black" stroke-dasharray="5,2" d="M2230.16,-170C1876.73,-170 128.38,-170 128.38,-170 128.38,-170 128.38,-205.83 128.38,-205.83"/>
<polygon fill="black" stroke="black" points="124.88,-205.83 128.38,-215.83 131.88,-205.83 124.88,-205.83"/>
</g>
</g>
</svg>
