<?xml version="1.0" encoding="UTF-8" standalone="no"?>
<!DOCTYPE svg PUBLIC "-//W3C//DTD SVG 1.1//EN"
 "http://www.w3.org/Graphics/SVG/1.1/DTD/svg11.dtd">
<!-- Generated by graphviz version 5.0.0 (20220707.1540)
 -->
<!-- Title: dependencies Pages: 1 -->
<svg width="4326pt" height="247pt"
 viewBox="0.00 0.00 4326.00 246.80" xmlns="http://www.w3.org/2000/svg" xmlns:xlink="http://www.w3.org/1999/xlink">
<g id="graph0" class="graph" transform="scale(1 1) rotate(0) translate(4 242.8)">
<title>dependencies</title>
<polygon fill="white" stroke="transparent" points="-4,4 -4,-242.8 4322,-242.8 4322,4 -4,4"/>
<text text-anchor="middle" x="2159" y="-8.2" font-family="sans-serif" font-size="14.00">dependencies</text>
<g id="clust1" class="cluster">
<title>cluster_WvrSharedModule</title>
<polygon fill="none" stroke="black" stroke-dasharray="1,5" points="8,-32.8 8,-230.8 4310,-230.8 4310,-32.8 8,-32.8"/>
</g>
<g id="clust2" class="cluster">
<title>cluster_WvrSharedModule_declarations</title>
<polygon fill="none" stroke="black" points="60,-40.8 60,-92.8 4258,-92.8 4258,-40.8 60,-40.8"/>
</g>
<g id="clust29" class="cluster">
<title>cluster_WvrSharedModule_exports</title>
<polygon fill="none" stroke="black" points="16,-170.8 16,-222.8 4302,-222.8 4302,-170.8 16,-170.8"/>
</g>
<!-- DefaultPipe -->
<g id="node1" class="node">
<title>DefaultPipe</title>
<polygon fill="#ffffb3" stroke="black" points="4250.37,-84.8 4167.63,-84.8 4167.63,-48.8 4250.37,-48.8 4250.37,-84.8"/>
<text text-anchor="middle" x="4209" y="-62.6" font-family="Times,serif" font-size="14.00">DefaultPipe</text>
</g>
<!-- WvrSharedModule -->
<g id="node26" class="node">
<title>WvrSharedModule</title>
<polygon fill="#8dd3c7" stroke="black" points="2353.8,-149.8 2350.8,-153.8 2329.8,-153.8 2326.8,-149.8 2230.2,-149.8 2230.2,-113.8 2353.8,-113.8 2353.8,-149.8"/>
<text text-anchor="middle" x="2292" y="-127.6" font-family="Times,serif" font-size="14.00">WvrSharedModule</text>
</g>
<!-- DefaultPipe&#45;&gt;WvrSharedModule -->
<g id="edge1" class="edge">
<title>DefaultPipe&#45;&gt;WvrSharedModule</title>
<path fill="none" stroke="black" d="M4178.6,-84.91C4178.6,-104.14 4178.6,-131.8 4178.6,-131.8 4178.6,-131.8 2363.7,-131.8 2363.7,-131.8"/>
<polygon fill="black" stroke="black" points="2363.7,-128.3 2353.7,-131.8 2363.7,-135.3 2363.7,-128.3"/>
</g>
<!-- SafePipe -->
<g id="node2" class="node">
<title>SafePipe</title>
<polygon fill="#ffffb3" stroke="black" points="4149.77,-84.8 4084.23,-84.8 4084.23,-48.8 4149.77,-48.8 4149.77,-84.8"/>
<text text-anchor="middle" x="4117" y="-62.6" font-family="Times,serif" font-size="14.00">SafePipe</text>
</g>
<!-- SafePipe&#45;&gt;WvrSharedModule -->
<g id="edge2" class="edge">
<title>SafePipe&#45;&gt;WvrSharedModule</title>
<path fill="none" stroke="black" d="M4093.18,-85.02C4093.18,-103.63 4093.18,-129.8 4093.18,-129.8 4093.18,-129.8 2363.74,-129.8 2363.74,-129.8"/>
<polygon fill="black" stroke="black" points="2363.74,-126.3 2353.74,-129.8 2363.74,-133.3 2363.74,-126.3"/>
</g>
<!-- WvrAlertComponent -->
<g id="node3" class="node">
<title>WvrAlertComponent</title>
<polygon fill="#ffffb3" stroke="black" points="4066.47,-84.8 3931.53,-84.8 3931.53,-48.8 4066.47,-48.8 4066.47,-84.8"/>
<text text-anchor="middle" x="3999" y="-62.6" font-family="Times,serif" font-size="14.00">WvrAlertComponent</text>
</g>
<!-- WvrAlertComponent&#45;&gt;WvrSharedModule -->
<g id="edge3" class="edge">
<title>WvrAlertComponent&#45;&gt;WvrSharedModule</title>
<path fill="none" stroke="black" d="M3938.71,-85.07C3938.71,-103.36 3938.71,-128.8 3938.71,-128.8 3938.71,-128.8 2364.04,-128.8 2364.04,-128.8"/>
<polygon fill="black" stroke="black" points="2364.04,-125.3 2354.04,-128.8 2364.04,-132.3 2364.04,-125.3"/>
</g>
<!-- WvrButtonComponent -->
<g id="node4" class="node">
<title>WvrButtonComponent</title>
<polygon fill="#ffffb3" stroke="black" points="3913.32,-84.8 3768.68,-84.8 3768.68,-48.8 3913.32,-48.8 3913.32,-84.8"/>
<text text-anchor="middle" x="3841" y="-62.6" font-family="Times,serif" font-size="14.00">WvrButtonComponent</text>
</g>
<!-- WvrButtonComponent&#45;&gt;WvrSharedModule -->
<g id="edge4" class="edge">
<title>WvrButtonComponent&#45;&gt;WvrSharedModule</title>
<path fill="none" stroke="black" d="M3774.65,-84.8C3774.65,-102.48 3774.65,-126.8 3774.65,-126.8 3774.65,-126.8 2363.82,-126.8 2363.82,-126.8"/>
<polygon fill="black" stroke="black" points="2363.82,-123.3 2353.82,-126.8 2363.82,-130.3 2363.82,-123.3"/>
</g>
<!-- WvrCardComponent -->
<g id="node5" class="node">
<title>WvrCardComponent</title>
<polygon fill="#ffffb3" stroke="black" points="3750.92,-84.8 3617.08,-84.8 3617.08,-48.8 3750.92,-48.8 3750.92,-84.8"/>
<text text-anchor="middle" x="3684" y="-62.6" font-family="Times,serif" font-size="14.00">WvrCardComponent</text>
</g>
<!-- WvrCardComponent&#45;&gt;WvrSharedModule -->
<g id="edge5" class="edge">
<title>WvrCardComponent&#45;&gt;WvrSharedModule</title>
<path fill="none" stroke="black" d="M3621.51,-84.82C3621.51,-102.17 3621.51,-125.8 3621.51,-125.8 3621.51,-125.8 2363.9,-125.8 2363.9,-125.8"/>
<polygon fill="black" stroke="black" points="2363.9,-122.3 2353.9,-125.8 2363.9,-129.3 2363.9,-122.3"/>
</g>
<!-- WvrColorPreviewComponent -->
<g id="node6" class="node">
<title>WvrColorPreviewComponent</title>
<polygon fill="#ffffb3" stroke="black" points="3598.97,-84.8 3415.03,-84.8 3415.03,-48.8 3598.97,-48.8 3598.97,-84.8"/>
<text text-anchor="middle" x="3507" y="-62.6" font-family="Times,serif" font-size="14.00">WvrColorPreviewComponent</text>
</g>
<!-- WvrColorPreviewComponent&#45;&gt;WvrSharedModule -->
<g id="edge6" class="edge">
<title>WvrColorPreviewComponent&#45;&gt;WvrSharedModule</title>
<path fill="none" stroke="black" d="M3429.22,-84.83C3429.22,-101.86 3429.22,-124.8 3429.22,-124.8 3429.22,-124.8 2363.95,-124.8 2363.95,-124.8"/>
<polygon fill="black" stroke="black" points="2363.95,-121.3 2353.95,-124.8 2363.95,-128.3 2363.95,-121.3"/>
</g>
<!-- WvrContentProjectionDirective -->
<g id="node7" class="node">
<title>WvrContentProjectionDirective</title>
<polygon fill="#ffffb3" stroke="black" points="3397.34,-84.8 3202.66,-84.8 3202.66,-48.8 3397.34,-48.8 3397.34,-84.8"/>
<text text-anchor="middle" x="3300" y="-62.6" font-family="Times,serif" font-size="14.00">WvrContentProjectionDirective</text>
</g>
<!-- WvrContentProjectionDirective&#45;&gt;WvrSharedModule -->
<g id="edge7" class="edge">
<title>WvrContentProjectionDirective&#45;&gt;WvrSharedModule</title>
<path fill="none" stroke="black" d="M3212.81,-84.83C3212.81,-101.2 3212.81,-122.8 3212.81,-122.8 3212.81,-122.8 2363.85,-122.8 2363.85,-122.8"/>
<polygon fill="black" stroke="black" points="2363.85,-119.3 2353.85,-122.8 2363.85,-126.3 2363.85,-119.3"/>
</g>
<!-- WvrDropdownComponent -->
<g id="node8" class="node">
<title>WvrDropdownComponent</title>
<polygon fill="#ffffb3" stroke="black" points="3185.09,-84.8 3018.91,-84.8 3018.91,-48.8 3185.09,-48.8 3185.09,-84.8"/>
<text text-anchor="middle" x="3102" y="-62.6" font-family="Times,serif" font-size="14.00">WvrDropdownComponent</text>
</g>
<!-- WvrDropdownComponent&#45;&gt;WvrSharedModule -->
<g id="edge8" class="edge">
<title>WvrDropdownComponent&#45;&gt;WvrSharedModule</title>
<path fill="none" stroke="black" d="M3026.58,-84.81C3026.58,-100.85 3026.58,-121.8 3026.58,-121.8 3026.58,-121.8 2363.68,-121.8 2363.68,-121.8"/>
<polygon fill="black" stroke="black" points="2363.68,-118.3 2353.68,-121.8 2363.68,-125.3 2363.68,-118.3"/>
</g>
<!-- WvrFooterComponent -->
<g id="node9" class="node">
<title>WvrFooterComponent</title>
<polygon fill="#ffffb3" stroke="black" points="3001.26,-84.8 2858.74,-84.8 2858.74,-48.8 3001.26,-48.8 3001.26,-84.8"/>
<text text-anchor="middle" x="2930" y="-62.6" font-family="Times,serif" font-size="14.00">WvrFooterComponent</text>
</g>
<!-- WvrFooterComponent&#45;&gt;WvrSharedModule -->
<g id="edge9" class="edge">
<title>WvrFooterComponent&#45;&gt;WvrSharedModule</title>
<path fill="none" stroke="black" d="M2864.25,-85.04C2864.25,-100.37 2864.25,-119.8 2864.25,-119.8 2864.25,-119.8 2363.78,-119.8 2363.78,-119.8"/>
<polygon fill="black" stroke="black" points="2363.78,-116.3 2353.78,-119.8 2363.78,-123.3 2363.78,-116.3"/>
</g>
<!-- WvrHeaderComponent -->
<g id="node10" class="node">
<title>WvrHeaderComponent</title>
<polygon fill="#ffffb3" stroke="black" points="2840.12,-84.8 2693.88,-84.8 2693.88,-48.8 2840.12,-48.8 2840.12,-84.8"/>
<text text-anchor="middle" x="2767" y="-62.6" font-family="Times,serif" font-size="14.00">WvrHeaderComponent</text>
</g>
<!-- WvrHeaderComponent&#45;&gt;WvrSharedModule -->
<g id="edge10" class="edge">
<title>WvrHeaderComponent&#45;&gt;WvrSharedModule</title>
<path fill="none" stroke="black" d="M2697.81,-84.99C2697.81,-99.98 2697.81,-118.8 2697.81,-118.8 2697.81,-118.8 2364.08,-118.8 2364.08,-118.8"/>
<polygon fill="black" stroke="black" points="2364.08,-115.3 2354.08,-118.8 2364.08,-122.3 2364.08,-115.3"/>
</g>
<!-- WvrIconComponent -->
<g id="node11" class="node">
<title>WvrIconComponent</title>
<polygon fill="#ffffb3" stroke="black" points="2675.58,-84.8 2544.42,-84.8 2544.42,-48.8 2675.58,-48.8 2675.58,-84.8"/>
<text text-anchor="middle" x="2610" y="-62.6" font-family="Times,serif" font-size="14.00">WvrIconComponent</text>
</g>
<!-- WvrIconComponent&#45;&gt;WvrSharedModule -->
<g id="edge11" class="edge">
<title>WvrIconComponent&#45;&gt;WvrSharedModule</title>
<path fill="none" stroke="black" d="M2633.6,-84.85C2633.6,-99.17 2633.6,-116.8 2633.6,-116.8 2633.6,-116.8 2363.86,-116.8 2363.86,-116.8"/>
<polygon fill="black" stroke="black" points="2363.86,-113.3 2353.86,-116.8 2363.86,-120.3 2363.86,-113.3"/>
</g>
<!-- WvrItWorksComponent -->
<g id="node12" class="node">
<title>WvrItWorksComponent</title>
<polygon fill="#ffffb3" stroke="black" points="2526.08,-84.8 2373.92,-84.8 2373.92,-48.8 2526.08,-48.8 2526.08,-84.8"/>
<text text-anchor="middle" x="2450" y="-62.6" font-family="Times,serif" font-size="14.00">WvrItWorksComponent</text>
</g>
<!-- WvrItWorksComponent&#45;&gt;WvrSharedModule -->
<g id="edge12" class="edge">
<title>WvrItWorksComponent&#45;&gt;WvrSharedModule</title>
<path fill="none" stroke="black" d="M2476.1,-85.05C2476.1,-98.98 2476.1,-115.8 2476.1,-115.8 2476.1,-115.8 2363.81,-115.8 2363.81,-115.8"/>
<polygon fill="black" stroke="black" points="2363.81,-112.3 2353.81,-115.8 2363.81,-119.3 2363.81,-112.3"/>
</g>
<!-- WvrListComponent -->
<g id="node13" class="node">
<title>WvrListComponent</title>
<polygon fill="#ffffb3" stroke="black" points="2355.99,-84.8 2228.01,-84.8 2228.01,-48.8 2355.99,-48.8 2355.99,-84.8"/>
<text text-anchor="middle" x="2292" y="-62.6" font-family="Times,serif" font-size="14.00">WvrListComponent</text>
</g>
<!-- WvrListComponent&#45;&gt;WvrSharedModule -->
<g id="edge13" class="edge">
<title>WvrListComponent&#45;&gt;WvrSharedModule</title>
<path fill="none" stroke="black" d="M2292,-84.91C2292,-84.91 2292,-103.79 2292,-103.79"/>
<polygon fill="black" stroke="black" points="2288.5,-103.79 2292,-113.79 2295.5,-103.79 2288.5,-103.79"/>
</g>
<!-- WvrListItemComponent -->
<g id="node14" class="node">
<title>WvrListItemComponent</title>
<polygon fill="#ffffb3" stroke="black" points="2209.64,-84.8 2056.36,-84.8 2056.36,-48.8 2209.64,-48.8 2209.64,-84.8"/>
<text text-anchor="middle" x="2133" y="-62.6" font-family="Times,serif" font-size="14.00">WvrListItemComponent</text>
</g>
<!-- WvrListItemComponent&#45;&gt;WvrSharedModule -->
<g id="edge14" class="edge">
<title>WvrListItemComponent&#45;&gt;WvrSharedModule</title>
<path fill="none" stroke="black" d="M2157.77,-85.05C2157.77,-98.98 2157.77,-115.8 2157.77,-115.8 2157.77,-115.8 2219.99,-115.8 2219.99,-115.8"/>
<polygon fill="black" stroke="black" points="2219.99,-119.3 2229.99,-115.8 2219.99,-112.3 2219.99,-119.3"/>
</g>
<!-- WvrManifestComponent -->
<g id="node15" class="node">
<title>WvrManifestComponent</title>
<polygon fill="#ffffb3" stroke="black" points="2037.97,-84.8 1882.03,-84.8 1882.03,-48.8 2037.97,-48.8 2037.97,-84.8"/>
<text text-anchor="middle" x="1960" y="-62.6" font-family="Times,serif" font-size="14.00">WvrManifestComponent</text>
</g>
<!-- WvrManifestComponent&#45;&gt;WvrSharedModule -->
<g id="edge15" class="edge">
<title>WvrManifestComponent&#45;&gt;WvrSharedModule</title>
<path fill="none" stroke="black" d="M1983.16,-84.85C1983.16,-99.17 1983.16,-116.8 1983.16,-116.8 1983.16,-116.8 2220.24,-116.8 2220.24,-116.8"/>
<polygon fill="black" stroke="black" points="2220.24,-120.3 2230.24,-116.8 2220.24,-113.3 2220.24,-120.3"/>
</g>
<!-- WvrManifestEntryComponent -->
<g id="node16" class="node">
<title>WvrManifestEntryComponent</title>
<polygon fill="#ffffb3" stroke="black" points="1863.58,-84.8 1676.42,-84.8 1676.42,-48.8 1863.58,-48.8 1863.58,-84.8"/>
<text text-anchor="middle" x="1770" y="-62.6" font-family="Times,serif" font-size="14.00">WvrManifestEntryComponent</text>
</g>
<!-- WvrManifestEntryComponent&#45;&gt;WvrSharedModule -->
<g id="edge16" class="edge">
<title>WvrManifestEntryComponent&#45;&gt;WvrSharedModule</title>
<path fill="none" stroke="black" d="M1859.91,-84.99C1859.91,-99.98 1859.91,-118.8 1859.91,-118.8 1859.91,-118.8 2220.09,-118.8 2220.09,-118.8"/>
<polygon fill="black" stroke="black" points="2220.09,-122.3 2230.09,-118.8 2220.09,-115.3 2220.09,-122.3"/>
</g>
<!-- WvrMessageManifestComponent -->
<g id="node17" class="node">
<title>WvrMessageManifestComponent</title>
<polygon fill="#ffffb3" stroke="black" points="1658.46,-84.8 1453.54,-84.8 1453.54,-48.8 1658.46,-48.8 1658.46,-84.8"/>
<text text-anchor="middle" x="1556" y="-62.6" font-family="Times,serif" font-size="14.00">WvrMessageManifestComponent</text>
</g>
<!-- WvrMessageManifestComponent&#45;&gt;WvrSharedModule -->
<g id="edge17" class="edge">
<title>WvrMessageManifestComponent&#45;&gt;WvrSharedModule</title>
<path fill="none" stroke="black" d="M1652.85,-85.04C1652.85,-100.37 1652.85,-119.8 1652.85,-119.8 1652.85,-119.8 2220.14,-119.8 2220.14,-119.8"/>
<polygon fill="black" stroke="black" points="2220.14,-123.3 2230.14,-119.8 2220.14,-116.3 2220.14,-123.3"/>
</g>
<!-- WvrMessageManifestEntryComponent -->
<g id="node18" class="node">
<title>WvrMessageManifestEntryComponent</title>
<polygon fill="#ffffb3" stroke="black" points="1435.06,-84.8 1198.94,-84.8 1198.94,-48.8 1435.06,-48.8 1435.06,-84.8"/>
<text text-anchor="middle" x="1317" y="-62.6" font-family="Times,serif" font-size="14.00">WvrMessageManifestEntryComponent</text>
</g>
<!-- WvrMessageManifestEntryComponent&#45;&gt;WvrSharedModule -->
<g id="edge18" class="edge">
<title>WvrMessageManifestEntryComponent&#45;&gt;WvrSharedModule</title>
<path fill="none" stroke="black" d="M1427.91,-84.81C1427.91,-100.85 1427.91,-121.8 1427.91,-121.8 1427.91,-121.8 2220.2,-121.8 2220.2,-121.8"/>
<polygon fill="black" stroke="black" points="2220.2,-125.3 2230.2,-121.8 2220.2,-118.3 2220.2,-125.3"/>
</g>
<!-- WvrModalComponent -->
<g id="node19" class="node">
<title>WvrModalComponent</title>
<polygon fill="#ffffb3" stroke="black" points="1181.26,-84.8 1038.74,-84.8 1038.74,-48.8 1181.26,-48.8 1181.26,-84.8"/>
<text text-anchor="middle" x="1110" y="-62.6" font-family="Times,serif" font-size="14.00">WvrModalComponent</text>
</g>
<!-- WvrModalComponent&#45;&gt;WvrSharedModule -->
<g id="edge19" class="edge">
<title>WvrModalComponent&#45;&gt;WvrSharedModule</title>
<path fill="none" stroke="black" d="M1172.17,-84.83C1172.17,-101.2 1172.17,-122.8 1172.17,-122.8 1172.17,-122.8 2220.2,-122.8 2220.2,-122.8"/>
<polygon fill="black" stroke="black" points="2220.2,-126.3 2230.2,-122.8 2220.2,-119.3 2220.2,-126.3"/>
</g>
<!-- WvrNavLiComponent -->
<g id="node20" class="node">
<title>WvrNavLiComponent</title>
<polygon fill="#ffffb3" stroke="black" points="1020.97,-84.8 879.03,-84.8 879.03,-48.8 1020.97,-48.8 1020.97,-84.8"/>
<text text-anchor="middle" x="950" y="-62.6" font-family="Times,serif" font-size="14.00">WvrNavLiComponent</text>
</g>
<!-- WvrNavLiComponent&#45;&gt;WvrSharedModule -->
<g id="edge20" class="edge">
<title>WvrNavLiComponent&#45;&gt;WvrSharedModule</title>
<path fill="none" stroke="black" d="M1007.8,-84.83C1007.8,-101.86 1007.8,-124.8 1007.8,-124.8 1007.8,-124.8 2220.06,-124.8 2220.06,-124.8"/>
<polygon fill="black" stroke="black" points="2220.06,-128.3 2230.06,-124.8 2220.06,-121.3 2220.06,-128.3"/>
</g>
<!-- WvrNavListComponent -->
<g id="node21" class="node">
<title>WvrNavListComponent</title>
<polygon fill="#ffffb3" stroke="black" points="860.81,-84.8 709.19,-84.8 709.19,-48.8 860.81,-48.8 860.81,-84.8"/>
<text text-anchor="middle" x="785" y="-62.6" font-family="Times,serif" font-size="14.00">WvrNavListComponent</text>
</g>
<!-- WvrNavListComponent&#45;&gt;WvrSharedModule -->
<g id="edge21" class="edge">
<title>WvrNavListComponent&#45;&gt;WvrSharedModule</title>
<path fill="none" stroke="black" d="M856.96,-84.82C856.96,-102.17 856.96,-125.8 856.96,-125.8 856.96,-125.8 2220.34,-125.8 2220.34,-125.8"/>
<polygon fill="black" stroke="black" points="2220.34,-129.3 2230.34,-125.8 2220.34,-122.3 2220.34,-129.3"/>
</g>
<!-- WvrTabsComponent -->
<g id="node22" class="node">
<title>WvrTabsComponent</title>
<polygon fill="#ffffb3" stroke="black" points="691.92,-84.8 558.08,-84.8 558.08,-48.8 691.92,-48.8 691.92,-84.8"/>
<text text-anchor="middle" x="625" y="-62.6" font-family="Times,serif" font-size="14.00">WvrTabsComponent</text>
</g>
<!-- WvrTabsComponent&#45;&gt;WvrSharedModule -->
<g id="edge22" class="edge">
<title>WvrTabsComponent&#45;&gt;WvrSharedModule</title>
<path fill="none" stroke="black" d="M686.15,-84.8C686.15,-102.48 686.15,-126.8 686.15,-126.8 686.15,-126.8 2220.03,-126.8 2220.03,-126.8"/>
<polygon fill="black" stroke="black" points="2220.03,-130.3 2230.03,-126.8 2220.03,-123.3 2220.03,-130.3"/>
</g>
<!-- WvrTextComponent -->
<g id="node23" class="node">
<title>WvrTextComponent</title>
<polygon fill="#ffffb3" stroke="black" points="539.86,-84.8 408.14,-84.8 408.14,-48.8 539.86,-48.8 539.86,-84.8"/>
<text text-anchor="middle" x="474" y="-62.6" font-family="Times,serif" font-size="14.00">WvrTextComponent</text>
</g>
<!-- WvrTextComponent&#45;&gt;WvrSharedModule -->
<g id="edge23" class="edge">
<title>WvrTextComponent&#45;&gt;WvrSharedModule</title>
<path fill="none" stroke="black" d="M532.74,-85.07C532.74,-103.36 532.74,-128.8 532.74,-128.8 532.74,-128.8 2220.16,-128.8 2220.16,-128.8"/>
<polygon fill="black" stroke="black" points="2220.16,-132.3 2230.16,-128.8 2220.16,-125.3 2220.16,-132.3"/>
</g>
<!-- WvrThemeComponent -->
<g id="node24" class="node">
<title>WvrThemeComponent</title>
<polygon fill="#ffffb3" stroke="black" points="390.58,-84.8 245.42,-84.8 245.42,-48.8 390.58,-48.8 390.58,-84.8"/>
<text text-anchor="middle" x="318" y="-62.6" font-family="Times,serif" font-size="14.00">WvrThemeComponent</text>
</g>
<!-- WvrThemeComponent&#45;&gt;WvrSharedModule -->
<g id="edge24" class="edge">
<title>WvrThemeComponent&#45;&gt;WvrSharedModule</title>
<path fill="none" stroke="black" d="M381.43,-85.02C381.43,-103.63 381.43,-129.8 381.43,-129.8 381.43,-129.8 2220.33,-129.8 2220.33,-129.8"/>
<polygon fill="black" stroke="black" points="2220.33,-133.3 2230.33,-129.8 2220.33,-126.3 2220.33,-133.3"/>
</g>
<!-- WvrWysiwygComponent -->
<g id="node25" class="node">
<title>WvrWysiwygComponent</title>
<polygon fill="#ffffb3" stroke="black" points="227.87,-84.8 68.13,-84.8 68.13,-48.8 227.87,-48.8 227.87,-84.8"/>
<text text-anchor="middle" x="148" y="-62.6" font-family="Times,serif" font-size="14.00">WvrWysiwygComponent</text>
</g>
<!-- WvrWysiwygComponent&#45;&gt;WvrSharedModule -->
<g id="edge25" class="edge">
<title>WvrWysiwygComponent&#45;&gt;WvrSharedModule</title>
<path fill="none" stroke="black" d="M216.82,-84.91C216.82,-104.14 216.82,-131.8 216.82,-131.8 216.82,-131.8 2220.18,-131.8 2220.18,-131.8"/>
<polygon fill="black" stroke="black" points="2220.18,-135.3 2230.18,-131.8 2220.18,-128.3 2220.18,-135.3"/>
</g>
<!-- DefaultPipe  -->
<g id="node27" class="node">
<title>DefaultPipe </title>
<polygon fill="#fb8072" stroke="black" points="4294.37,-214.8 4207.63,-214.8 4207.63,-178.8 4294.37,-178.8 4294.37,-214.8"/>
<text text-anchor="middle" x="4251" y="-192.6" font-family="Times,serif" font-size="14.00">DefaultPipe </text>
</g>
<!-- WvrSharedModule&#45;&gt;DefaultPipe  -->
<g id="edge26" class="edge">
<title>WvrSharedModule&#45;&gt;DefaultPipe </title>
<path fill="none" stroke="black" stroke-dasharray="5,2" d="M2353.71,-132.8C2684.14,-132.8 4229.12,-132.8 4229.12,-132.8 4229.12,-132.8 4229.12,-168.63 4229.12,-168.63"/>
<polygon fill="black" stroke="black" points="4225.63,-168.63 4229.12,-178.63 4232.63,-168.63 4225.63,-168.63"/>
</g>
<!-- SafePipe  -->
<g id="node28" class="node">
<title>SafePipe </title>
<polygon fill="#fb8072" stroke="black" points="4189.77,-214.8 4120.23,-214.8 4120.23,-178.8 4189.77,-178.8 4189.77,-214.8"/>
<text text-anchor="middle" x="4155" y="-192.6" font-family="Times,serif" font-size="14.00">SafePipe </text>
</g>
<!-- WvrSharedModule&#45;&gt;SafePipe  -->
<g id="edge27" class="edge">
<title>WvrSharedModule&#45;&gt;SafePipe </title>
<path fill="none" stroke="black" stroke-dasharray="5,2" d="M2353.85,-134.8C2674.74,-134.8 4135.12,-134.8 4135.12,-134.8 4135.12,-134.8 4135.12,-168.53 4135.12,-168.53"/>
<polygon fill="black" stroke="black" points="4131.63,-168.53 4135.12,-178.53 4138.63,-168.53 4131.63,-168.53"/>
</g>
<!-- WvrAlertComponent  -->
<g id="node29" class="node">
<title>WvrAlertComponent </title>
<polygon fill="#fb8072" stroke="black" points="4102.47,-214.8 3963.53,-214.8 3963.53,-178.8 4102.47,-178.8 4102.47,-214.8"/>
<text text-anchor="middle" x="4033" y="-192.6" font-family="Times,serif" font-size="14.00">WvrAlertComponent </text>
</g>
<!-- WvrSharedModule&#45;&gt;WvrAlertComponent  -->
<g id="edge28" class="edge">
<title>WvrSharedModule&#45;&gt;WvrAlertComponent </title>
<path fill="none" stroke="black" stroke-dasharray="5,2" d="M2353.83,-135.8C2661.77,-135.8 4015.12,-135.8 4015.12,-135.8 4015.12,-135.8 4015.12,-168.5 4015.12,-168.5"/>
<polygon fill="black" stroke="black" points="4011.63,-168.5 4015.12,-178.5 4018.63,-168.5 4011.63,-168.5"/>
</g>
<!-- WvrButtonComponent  -->
<g id="node30" class="node">
<title>WvrButtonComponent </title>
<polygon fill="#fb8072" stroke="black" points="3945.82,-214.8 3798.18,-214.8 3798.18,-178.8 3945.82,-178.8 3945.82,-214.8"/>
<text text-anchor="middle" x="3872" y="-192.6" font-family="Times,serif" font-size="14.00">WvrButtonComponent </text>
</g>
<!-- WvrSharedModule&#45;&gt;WvrButtonComponent  -->
<g id="edge29" class="edge">
<title>WvrSharedModule&#45;&gt;WvrButtonComponent </title>
<path fill="none" stroke="black" stroke-dasharray="5,2" d="M2353.78,-137.8C2643.73,-137.8 3855.62,-137.8 3855.62,-137.8 3855.62,-137.8 3855.62,-168.78 3855.62,-168.78"/>
<polygon fill="black" stroke="black" points="3852.13,-168.78 3855.62,-178.78 3859.13,-168.78 3852.13,-168.78"/>
</g>
<!-- WvrCardComponent  -->
<g id="node31" class="node">
<title>WvrCardComponent </title>
<polygon fill="#fb8072" stroke="black" points="3780.42,-214.8 3643.58,-214.8 3643.58,-178.8 3780.42,-178.8 3780.42,-214.8"/>
<text text-anchor="middle" x="3712" y="-192.6" font-family="Times,serif" font-size="14.00">WvrCardComponent </text>
</g>
<!-- WvrSharedModule&#45;&gt;WvrCardComponent  -->
<g id="edge30" class="edge">
<title>WvrSharedModule&#45;&gt;WvrCardComponent </title>
<path fill="none" stroke="black" stroke-dasharray="5,2" d="M2353.73,-138.8C2624.93,-138.8 3697.12,-138.8 3697.12,-138.8 3697.12,-138.8 3697.12,-168.77 3697.12,-168.77"/>
<polygon fill="black" stroke="black" points="3693.63,-168.77 3697.12,-178.77 3700.63,-168.77 3693.63,-168.77"/>
</g>
<!-- WvrColorPreviewComponent  -->
<g id="node32" class="node">
<title>WvrColorPreviewComponent </title>
<polygon fill="#fb8072" stroke="black" points="3625.97,-214.8 3438.03,-214.8 3438.03,-178.8 3625.97,-178.8 3625.97,-214.8"/>
<text text-anchor="middle" x="3532" y="-192.6" font-family="Times,serif" font-size="14.00">WvrColorPreviewComponent </text>
</g>
<!-- WvrSharedModule&#45;&gt;WvrColorPreviewComponent  -->
<g id="edge31" class="edge">
<title>WvrSharedModule&#45;&gt;WvrColorPreviewComponent </title>
<path fill="none" stroke="black" stroke-dasharray="5,2" d="M2353.67,-139.8C2602.41,-139.8 3518.62,-139.8 3518.62,-139.8 3518.62,-139.8 3518.62,-168.76 3518.62,-168.76"/>
<polygon fill="black" stroke="black" points="3515.13,-168.76 3518.62,-178.76 3522.13,-168.76 3515.13,-168.76"/>
</g>
<!-- WvrContentProjectionDirective  -->
<g id="node33" class="node">
<title>WvrContentProjectionDirective </title>
<polygon fill="#fb8072" stroke="black" points="3420.34,-214.8 3221.66,-214.8 3221.66,-178.8 3420.34,-178.8 3420.34,-214.8"/>
<text text-anchor="middle" x="3321" y="-192.6" font-family="Times,serif" font-size="14.00">WvrContentProjectionDirective </text>
</g>
<!-- WvrSharedModule&#45;&gt;WvrContentProjectionDirective  -->
<g id="edge32" class="edge">
<title>WvrSharedModule&#45;&gt;WvrContentProjectionDirective </title>
<path fill="none" stroke="black" stroke-dasharray="5,2" d="M2353.74,-141.8C2574.22,-141.8 3309.62,-141.8 3309.62,-141.8 3309.62,-141.8 3309.62,-168.79 3309.62,-168.79"/>
<polygon fill="black" stroke="black" points="3306.13,-168.79 3309.62,-178.79 3313.13,-168.79 3306.13,-168.79"/>
</g>
<!-- WvrDropdownComponent  -->
<g id="node34" class="node">
<title>WvrDropdownComponent </title>
<polygon fill="#fb8072" stroke="black" points="3203.59,-214.8 3034.41,-214.8 3034.41,-178.8 3203.59,-178.8 3203.59,-214.8"/>
<text text-anchor="middle" x="3119" y="-192.6" font-family="Times,serif" font-size="14.00">WvrDropdownComponent </text>
</g>
<!-- WvrSharedModule&#45;&gt;WvrDropdownComponent  -->
<g id="edge33" class="edge">
<title>WvrSharedModule&#45;&gt;WvrDropdownComponent </title>
<path fill="none" stroke="black" stroke-dasharray="5,2" d="M2353.79,-142.8C2544.27,-142.8 3109.62,-142.8 3109.62,-142.8 3109.62,-142.8 3109.62,-168.52 3109.62,-168.52"/>
<polygon fill="black" stroke="black" points="3106.13,-168.52 3109.62,-178.52 3113.13,-168.52 3106.13,-168.52"/>
</g>
<!-- WvrFooterComponent  -->
<g id="node35" class="node">
<title>WvrFooterComponent </title>
<polygon fill="#fb8072" stroke="black" points="3016.26,-214.8 2869.74,-214.8 2869.74,-178.8 3016.26,-178.8 3016.26,-214.8"/>
<text text-anchor="middle" x="2943" y="-192.6" font-family="Times,serif" font-size="14.00">WvrFooterComponent </text>
</g>
<!-- WvrSharedModule&#45;&gt;WvrFooterComponent  -->
<g id="edge34" class="edge">
<title>WvrSharedModule&#45;&gt;WvrFooterComponent </title>
<path fill="none" stroke="black" stroke-dasharray="5,2" d="M2353.71,-144.8C2514.81,-144.8 2935.62,-144.8 2935.62,-144.8 2935.62,-144.8 2935.62,-168.61 2935.62,-168.61"/>
<polygon fill="black" stroke="black" points="2932.13,-168.61 2935.62,-178.61 2939.13,-168.61 2932.13,-168.61"/>
</g>
<!-- WvrHeaderComponent  -->
<g id="node36" class="node">
<title>WvrHeaderComponent </title>
<polygon fill="#fb8072" stroke="black" points="2852.12,-214.8 2701.88,-214.8 2701.88,-178.8 2852.12,-178.8 2852.12,-214.8"/>
<text text-anchor="middle" x="2777" y="-192.6" font-family="Times,serif" font-size="14.00">WvrHeaderComponent </text>
</g>
<!-- WvrSharedModule&#45;&gt;WvrHeaderComponent  -->
<g id="edge35" class="edge">
<title>WvrSharedModule&#45;&gt;WvrHeaderComponent </title>
<path fill="none" stroke="black" stroke-dasharray="5,2" d="M2353.66,-145.8C2483.06,-145.8 2771.12,-145.8 2771.12,-145.8 2771.12,-145.8 2771.12,-168.68 2771.12,-168.68"/>
<polygon fill="black" stroke="black" points="2767.63,-168.68 2771.12,-178.68 2774.63,-168.68 2767.63,-168.68"/>
</g>
<!-- WvrIconComponent  -->
<g id="node37" class="node">
<title>WvrIconComponent </title>
<polygon fill="#fb8072" stroke="black" points="2684.08,-214.8 2549.92,-214.8 2549.92,-178.8 2684.08,-178.8 2684.08,-214.8"/>
<text text-anchor="middle" x="2617" y="-192.6" font-family="Times,serif" font-size="14.00">WvrIconComponent </text>
</g>
<!-- WvrSharedModule&#45;&gt;WvrIconComponent  -->
<g id="edge36" class="edge">
<title>WvrSharedModule&#45;&gt;WvrIconComponent </title>
<path fill="none" stroke="black" stroke-dasharray="5,2" d="M2353.72,-147.8C2441.44,-147.8 2591.65,-147.8 2591.65,-147.8 2591.65,-147.8 2591.65,-168.55 2591.65,-168.55"/>
<polygon fill="black" stroke="black" points="2588.15,-168.55 2591.65,-178.55 2595.15,-168.55 2588.15,-168.55"/>
</g>
<!-- WvrItWorksComponent  -->
<g id="node38" class="node">
<title>WvrItWorksComponent </title>
<polygon fill="#fb8072" stroke="black" points="2531.58,-214.8 2376.42,-214.8 2376.42,-178.8 2531.58,-178.8 2531.58,-214.8"/>
<text text-anchor="middle" x="2454" y="-192.6" font-family="Times,serif" font-size="14.00">WvrItWorksComponent </text>
</g>
<!-- WvrSharedModule&#45;&gt;WvrItWorksComponent  -->
<g id="edge37" class="edge">
<title>WvrSharedModule&#45;&gt;WvrItWorksComponent </title>
<path fill="none" stroke="black" stroke-dasharray="5,2" d="M2353.97,-148.8C2389.12,-148.8 2426.15,-148.8 2426.15,-148.8 2426.15,-148.8 2426.15,-168.65 2426.15,-168.65"/>
<polygon fill="black" stroke="black" points="2422.65,-168.65 2426.15,-178.65 2429.65,-168.65 2422.65,-168.65"/>
</g>
<!-- WvrListComponent  -->
<g id="node39" class="node">
<title>WvrListComponent </title>
<polygon fill="#fb8072" stroke="black" points="2357.99,-214.8 2226.01,-214.8 2226.01,-178.8 2357.99,-178.8 2357.99,-214.8"/>
<text text-anchor="middle" x="2292" y="-192.6" font-family="Times,serif" font-size="14.00">WvrListComponent </text>
</g>
<!-- WvrSharedModule&#45;&gt;WvrListComponent  -->
<g id="edge38" class="edge">
<title>WvrSharedModule&#45;&gt;WvrListComponent </title>
<path fill="none" stroke="black" stroke-dasharray="5,2" d="M2292,-149.91C2292,-149.91 2292,-168.79 2292,-168.79"/>
<polygon fill="black" stroke="black" points="2288.5,-168.79 2292,-178.79 2295.5,-168.79 2288.5,-168.79"/>
</g>
<!-- WvrListItemComponent  -->
<g id="node40" class="node">
<title>WvrListItemComponent </title>
<polygon fill="#fb8072" stroke="black" points="2208.64,-214.8 2051.36,-214.8 2051.36,-178.8 2208.64,-178.8 2208.64,-214.8"/>
<text text-anchor="middle" x="2130" y="-192.6" font-family="Times,serif" font-size="14.00">WvrListItemComponent </text>
</g>
<!-- WvrSharedModule&#45;&gt;WvrListItemComponent  -->
<g id="edge39" class="edge">
<title>WvrSharedModule&#45;&gt;WvrListItemComponent </title>
<path fill="none" stroke="black" stroke-dasharray="5,2" d="M2230.13,-148.8C2176.34,-148.8 2106.98,-148.8 2106.98,-148.8 2106.98,-148.8 2106.98,-168.65 2106.98,-168.65"/>
<polygon fill="black" stroke="black" points="2103.48,-168.65 2106.98,-178.65 2110.48,-168.65 2103.48,-168.65"/>
</g>
<!-- WvrManifestComponent  -->
<g id="node41" class="node">
<title>WvrManifestComponent </title>
<polygon fill="#fb8072" stroke="black" points="2033.97,-214.8 1874.03,-214.8 1874.03,-178.8 2033.97,-178.8 2033.97,-214.8"/>
<text text-anchor="middle" x="1954" y="-192.6" font-family="Times,serif" font-size="14.00">WvrManifestComponent </text>
</g>
<!-- WvrSharedModule&#45;&gt;WvrManifestComponent  -->
<g id="edge40" class="edge">
<title>WvrSharedModule&#45;&gt;WvrManifestComponent </title>
<path fill="none" stroke="black" stroke-dasharray="5,2" d="M2230.21,-147.8C2127.45,-147.8 1932.59,-147.8 1932.59,-147.8 1932.59,-147.8 1932.59,-168.55 1932.59,-168.55"/>
<polygon fill="black" stroke="black" points="1929.09,-168.55 1932.59,-178.55 1936.09,-168.55 1929.09,-168.55"/>
</g>
<!-- WvrManifestEntryComponent  -->
<g id="node42" class="node">
<title>WvrManifestEntryComponent </title>
<polygon fill="#fb8072" stroke="black" points="1856.08,-214.8 1665.92,-214.8 1665.92,-178.8 1856.08,-178.8 1856.08,-214.8"/>
<text text-anchor="middle" x="1761" y="-192.6" font-family="Times,serif" font-size="14.00">WvrManifestEntryComponent </text>
</g>
<!-- WvrSharedModule&#45;&gt;WvrManifestEntryComponent  -->
<g id="edge41" class="edge">
<title>WvrSharedModule&#45;&gt;WvrManifestEntryComponent </title>
<path fill="none" stroke="black" stroke-dasharray="5,2" d="M2230.16,-145.8C2091.21,-145.8 1766.38,-145.8 1766.38,-145.8 1766.38,-145.8 1766.38,-168.68 1766.38,-168.68"/>
<polygon fill="black" stroke="black" points="1762.88,-168.68 1766.38,-178.68 1769.88,-168.68 1762.88,-168.68"/>
</g>
<!-- WvrMessageManifestComponent  -->
<g id="node43" class="node">
<title>WvrMessageManifestComponent </title>
<polygon fill="#fb8072" stroke="black" points="1647.46,-214.8 1438.54,-214.8 1438.54,-178.8 1647.46,-178.8 1647.46,-214.8"/>
<text text-anchor="middle" x="1543" y="-192.6" font-family="Times,serif" font-size="14.00">WvrMessageManifestComponent </text>
</g>
<!-- WvrSharedModule&#45;&gt;WvrMessageManifestComponent  -->
<g id="edge42" class="edge">
<title>WvrSharedModule&#45;&gt;WvrMessageManifestComponent </title>
<path fill="none" stroke="black" stroke-dasharray="5,2" d="M2230.05,-144.8C2051.8,-144.8 1550.38,-144.8 1550.38,-144.8 1550.38,-144.8 1550.38,-168.61 1550.38,-168.61"/>
<polygon fill="black" stroke="black" points="1546.88,-168.61 1550.38,-178.61 1553.88,-168.61 1546.88,-168.61"/>
</g>
<!-- WvrMessageManifestEntryComponent  -->
<g id="node44" class="node">
<title>WvrMessageManifestEntryComponent </title>
<polygon fill="#fb8072" stroke="black" points="1420.56,-214.8 1181.44,-214.8 1181.44,-178.8 1420.56,-178.8 1420.56,-214.8"/>
<text text-anchor="middle" x="1301" y="-192.6" font-family="Times,serif" font-size="14.00">WvrMessageManifestEntryComponent </text>
</g>
<!-- WvrSharedModule&#45;&gt;WvrMessageManifestEntryComponent  -->
<g id="edge43" class="edge">
<title>WvrSharedModule&#45;&gt;WvrMessageManifestEntryComponent </title>
<path fill="none" stroke="black" stroke-dasharray="5,2" d="M2230.19,-142.8C2014.74,-142.8 1309.88,-142.8 1309.88,-142.8 1309.88,-142.8 1309.88,-168.52 1309.88,-168.52"/>
<polygon fill="black" stroke="black" points="1306.38,-168.52 1309.88,-178.52 1313.38,-168.52 1306.38,-168.52"/>
</g>
<!-- WvrModalComponent  -->
<g id="node45" class="node">
<title>WvrModalComponent </title>
<polygon fill="#fb8072" stroke="black" points="1163.26,-214.8 1016.74,-214.8 1016.74,-178.8 1163.26,-178.8 1163.26,-214.8"/>
<text text-anchor="middle" x="1090" y="-192.6" font-family="Times,serif" font-size="14.00">WvrModalComponent </text>
</g>
<!-- WvrSharedModule&#45;&gt;WvrModalComponent  -->
<g id="edge44" class="edge">
<title>WvrSharedModule&#45;&gt;WvrModalComponent </title>
<path fill="none" stroke="black" stroke-dasharray="5,2" d="M2230.05,-141.8C1985.56,-141.8 1100.88,-141.8 1100.88,-141.8 1100.88,-141.8 1100.88,-168.79 1100.88,-168.79"/>
<polygon fill="black" stroke="black" points="1097.38,-168.79 1100.88,-178.79 1104.38,-168.79 1097.38,-168.79"/>
</g>
<!-- WvrNavLiComponent  -->
<g id="node46" class="node">
<title>WvrNavLiComponent </title>
<polygon fill="#fb8072" stroke="black" points="998.97,-214.8 853.03,-214.8 853.03,-178.8 998.97,-178.8 998.97,-214.8"/>
<text text-anchor="middle" x="926" y="-192.6" font-family="Times,serif" font-size="14.00">WvrNavLiComponent </text>
</g>
<!-- WvrSharedModule&#45;&gt;WvrNavLiComponent  -->
<g id="edge45" class="edge">
<title>WvrSharedModule&#45;&gt;WvrNavLiComponent </title>
<path fill="none" stroke="black" stroke-dasharray="5,2" d="M2230.34,-139.8C1965.63,-139.8 938.88,-139.8 938.88,-139.8 938.88,-139.8 938.88,-168.76 938.88,-168.76"/>
<polygon fill="black" stroke="black" points="935.38,-168.76 938.88,-178.76 942.38,-168.76 935.38,-168.76"/>
</g>
<!-- WvrNavListComponent  -->
<g id="node47" class="node">
<title>WvrNavListComponent </title>
<polygon fill="#fb8072" stroke="black" points="835.31,-214.8 680.69,-214.8 680.69,-178.8 835.31,-178.8 835.31,-214.8"/>
<text text-anchor="middle" x="758" y="-192.6" font-family="Times,serif" font-size="14.00">WvrNavListComponent </text>
</g>
<!-- WvrSharedModule&#45;&gt;WvrNavListComponent  -->
<g id="edge46" class="edge">
<title>WvrSharedModule&#45;&gt;WvrNavListComponent </title>
<path fill="none" stroke="black" stroke-dasharray="5,2" d="M2230.07,-138.8C1944.95,-138.8 772.38,-138.8 772.38,-138.8 772.38,-138.8 772.38,-168.77 772.38,-168.77"/>
<polygon fill="black" stroke="black" points="768.88,-168.77 772.38,-178.77 775.88,-168.77 768.88,-168.77"/>
</g>
<!-- WvrTabsComponent  -->
<g id="node48" class="node">
<title>WvrTabsComponent </title>
<polygon fill="#fb8072" stroke="black" points="662.42,-214.8 525.58,-214.8 525.58,-178.8 662.42,-178.8 662.42,-214.8"/>
<text text-anchor="middle" x="594" y="-192.6" font-family="Times,serif" font-size="14.00">WvrTabsComponent </text>
</g>
<!-- WvrSharedModule&#45;&gt;WvrTabsComponent  -->
<g id="edge47" class="edge">
<title>WvrSharedModule&#45;&gt;WvrTabsComponent </title>
<path fill="none" stroke="black" stroke-dasharray="5,2" d="M2230.16,-137.8C1926.77,-137.8 610.38,-137.8 610.38,-137.8 610.38,-137.8 610.38,-168.78 610.38,-168.78"/>
<polygon fill="black" stroke="black" points="606.88,-168.78 610.38,-178.78 613.88,-168.78 606.88,-168.78"/>
</g>
<!-- WvrTextComponent  -->
<g id="node49" class="node">
<title>WvrTextComponent </title>
<polygon fill="#fb8072" stroke="black" points="507.86,-214.8 372.14,-214.8 372.14,-178.8 507.86,-178.8 507.86,-214.8"/>
<text text-anchor="middle" x="440" y="-192.6" font-family="Times,serif" font-size="14.00">WvrTextComponent </text>
</g>
<!-- WvrSharedModule&#45;&gt;WvrTextComponent  -->
<g id="edge48" class="edge">
<title>WvrSharedModule&#45;&gt;WvrTextComponent </title>
<path fill="none" stroke="black" stroke-dasharray="5,2" d="M2230.19,-135.8C1910.33,-135.8 457.88,-135.8 457.88,-135.8 457.88,-135.8 457.88,-168.5 457.88,-168.5"/>
<polygon fill="black" stroke="black" points="454.38,-168.5 457.88,-178.5 461.38,-168.5 454.38,-168.5"/>
</g>
<!-- WvrThemeComponent  -->
<g id="node50" class="node">
<title>WvrThemeComponent </title>
<polygon fill="#fb8072" stroke="black" points="354.08,-214.8 205.92,-214.8 205.92,-178.8 354.08,-178.8 354.08,-214.8"/>
<text text-anchor="middle" x="280" y="-192.6" font-family="Times,serif" font-size="14.00">WvrThemeComponent </text>
</g>
<!-- WvrSharedModule&#45;&gt;WvrThemeComponent  -->
<g id="edge49" class="edge">
<title>WvrSharedModule&#45;&gt;WvrThemeComponent </title>
<path fill="none" stroke="black" stroke-dasharray="5,2" d="M2230.2,-134.8C1893.95,-134.8 299.88,-134.8 299.88,-134.8 299.88,-134.8 299.88,-168.53 299.88,-168.53"/>
<polygon fill="black" stroke="black" points="296.38,-168.53 299.88,-178.53 303.38,-168.53 296.38,-168.53"/>
</g>
<!-- WvrWysiwygComponent  -->
<g id="node51" class="node">
<title>WvrWysiwygComponent </title>
<polygon fill="#fb8072" stroke="black" points="187.87,-214.8 24.13,-214.8 24.13,-178.8 187.87,-178.8 187.87,-214.8"/>
<text text-anchor="middle" x="106" y="-192.6" font-family="Times,serif" font-size="14.00">WvrWysiwygComponent </text>
</g>
<!-- WvrSharedModule&#45;&gt;WvrWysiwygComponent  -->
<g id="edge50" class="edge">
<title>WvrSharedModule&#45;&gt;WvrWysiwygComponent </title>
<path fill="none" stroke="black" stroke-dasharray="5,2" d="M2230.14,-132.8C1876.63,-132.8 127.88,-132.8 127.88,-132.8 127.88,-132.8 127.88,-168.63 127.88,-168.63"/>
<polygon fill="black" stroke="black" points="124.38,-168.63 127.88,-178.63 131.38,-168.63 124.38,-168.63"/>
</g>
</g>
</svg>
