<?xml version="1.0" encoding="UTF-8" standalone="no"?>
<!DOCTYPE svg PUBLIC "-//W3C//DTD SVG 1.1//EN"
 "http://www.w3.org/Graphics/SVG/1.1/DTD/svg11.dtd">
<!-- Generated by graphviz version 5.0.0 (20220707.1540)
 -->
<!-- Title: dependencies Pages: 1 -->
<svg width="5340pt" height="247pt"
 viewBox="0.00 0.00 5340.00 246.80" xmlns="http://www.w3.org/2000/svg" xmlns:xlink="http://www.w3.org/1999/xlink">
<g id="graph0" class="graph" transform="scale(1 1) rotate(0) translate(4 242.8)">
<title>dependencies</title>
<polygon fill="white" stroke="transparent" points="-4,4 -4,-242.8 5336,-242.8 5336,4 -4,4"/>
<text text-anchor="middle" x="2666" y="-8.2" font-family="sans-serif" font-size="14.00">dependencies</text>
<g id="clust1" class="cluster">
<title>cluster_WvrCoreModule</title>
<polygon fill="none" stroke="black" stroke-dasharray="1,5" points="8,-32.8 8,-157.8 1014,-157.8 1014,-32.8 8,-32.8"/>
</g>
<g id="clust6" class="cluster">
<title>cluster_WvrCoreModule_providers</title>
<polygon fill="none" stroke="black" points="16,-40.8 16,-92.8 1006,-92.8 1006,-40.8 16,-40.8"/>
</g>
<g id="clust7" class="cluster">
<title>cluster_WvrSharedModule</title>
<polygon fill="none" stroke="black" stroke-dasharray="1,5" points="1022,-32.8 1022,-230.8 5324,-230.8 5324,-32.8 1022,-32.8"/>
</g>
<g id="clust8" class="cluster">
<title>cluster_WvrSharedModule_declarations</title>
<polygon fill="none" stroke="black" points="1074,-40.8 1074,-92.8 5272,-92.8 5272,-40.8 1074,-40.8"/>
</g>
<g id="clust35" class="cluster">
<title>cluster_WvrSharedModule_exports</title>
<polygon fill="none" stroke="black" points="1030,-170.8 1030,-222.8 5316,-222.8 5316,-170.8 1030,-170.8"/>
</g>
<!-- ActionRegistryService -->
<g id="node1" class="node">
<title>ActionRegistryService</title>
<ellipse fill="#fdb462" stroke="black" cx="899" cy="-66.8" rx="99" ry="18"/>
<text text-anchor="middle" x="899" y="-62.6" font-family="Times,serif" font-size="14.00">ActionRegistryService</text>
</g>
<!-- WvrCoreModule -->
<g id="node6" class="node">
<title>WvrCoreModule</title>
<polygon fill="#8dd3c7" stroke="black" points="539.64,-149.8 536.64,-153.8 515.64,-153.8 512.64,-149.8 428.36,-149.8 428.36,-113.8 539.64,-113.8 539.64,-149.8"/>
<text text-anchor="middle" x="484" y="-127.6" font-family="Times,serif" font-size="14.00">WvrCoreModule</text>
</g>
<!-- ActionRegistryService&#45;&gt;WvrCoreModule -->
<g id="edge1" class="edge">
<title>ActionRegistryService&#45;&gt;WvrCoreModule</title>
<path fill="none" stroke="black" d="M899,-84.85C899,-99.17 899,-116.8 899,-116.8 899,-116.8 549.97,-116.8 549.97,-116.8"/>
<polygon fill="black" stroke="black" points="549.97,-113.3 539.97,-116.8 549.97,-120.3 549.97,-113.3"/>
</g>
<!-- AnimationService -->
<g id="node2" class="node">
<title>AnimationService</title>
<ellipse fill="#fdb462" stroke="black" cx="701" cy="-66.8" rx="81.1" ry="18"/>
<text text-anchor="middle" x="701" y="-62.6" font-family="Times,serif" font-size="14.00">AnimationService</text>
</g>
<!-- AnimationService&#45;&gt;WvrCoreModule -->
<g id="edge2" class="edge">
<title>AnimationService&#45;&gt;WvrCoreModule</title>
<path fill="none" stroke="black" d="M701,-85.05C701,-98.98 701,-115.8 701,-115.8 701,-115.8 549.88,-115.8 549.88,-115.8"/>
<polygon fill="black" stroke="black" points="549.88,-112.3 539.88,-115.8 549.88,-119.3 549.88,-112.3"/>
</g>
<!-- ComponentRegistryService -->
<g id="node3" class="node">
<title>ComponentRegistryService</title>
<ellipse fill="#fdb462" stroke="black" cx="484" cy="-66.8" rx="117.56" ry="18"/>
<text text-anchor="middle" x="484" y="-62.6" font-family="Times,serif" font-size="14.00">ComponentRegistryService</text>
</g>
<!-- ComponentRegistryService&#45;&gt;WvrCoreModule -->
<g id="edge3" class="edge">
<title>ComponentRegistryService&#45;&gt;WvrCoreModule</title>
<path fill="none" stroke="black" d="M484,-84.91C484,-84.91 484,-103.79 484,-103.79"/>
<polygon fill="black" stroke="black" points="480.5,-103.79 484,-113.79 487.5,-103.79 480.5,-103.79"/>
</g>
<!-- NgBindingsService -->
<g id="node4" class="node">
<title>NgBindingsService</title>
<ellipse fill="#fdb462" stroke="black" cx="262" cy="-66.8" rx="86.85" ry="18"/>
<text text-anchor="middle" x="262" y="-62.6" font-family="Times,serif" font-size="14.00">NgBindingsService</text>
</g>
<!-- NgBindingsService&#45;&gt;WvrCoreModule -->
<g id="edge4" class="edge">
<title>NgBindingsService&#45;&gt;WvrCoreModule</title>
<path fill="none" stroke="black" d="M262,-84.82C262,-102.17 262,-125.8 262,-125.8 262,-125.8 418.27,-125.8 418.27,-125.8"/>
<polygon fill="black" stroke="black" points="418.27,-129.3 428.27,-125.8 418.27,-122.3 418.27,-129.3"/>
</g>
<!-- ThemeService -->
<g id="node5" class="node">
<title>ThemeService</title>
<ellipse fill="#fdb462" stroke="black" cx="91" cy="-66.8" rx="66.61" ry="18"/>
<text text-anchor="middle" x="91" y="-62.6" font-family="Times,serif" font-size="14.00">ThemeService</text>
</g>
<!-- ThemeService&#45;&gt;WvrCoreModule -->
<g id="edge5" class="edge">
<title>ThemeService&#45;&gt;WvrCoreModule</title>
<path fill="none" stroke="black" d="M91,-85.08C91,-106.12 91,-137.8 91,-137.8 91,-137.8 418.11,-137.8 418.11,-137.8"/>
<polygon fill="black" stroke="black" points="418.11,-141.3 428.11,-137.8 418.11,-134.3 418.11,-141.3"/>
</g>
<!-- DefaultPipe -->
<g id="node7" class="node">
<title>DefaultPipe</title>
<polygon fill="#ffffb3" stroke="black" points="5264.37,-84.8 5181.63,-84.8 5181.63,-48.8 5264.37,-48.8 5264.37,-84.8"/>
<text text-anchor="middle" x="5223" y="-62.6" font-family="Times,serif" font-size="14.00">DefaultPipe</text>
</g>
<!-- WvrSharedModule -->
<g id="node32" class="node">
<title>WvrSharedModule</title>
<polygon fill="#8dd3c7" stroke="black" points="3367.8,-149.8 3364.8,-153.8 3343.8,-153.8 3340.8,-149.8 3244.2,-149.8 3244.2,-113.8 3367.8,-113.8 3367.8,-149.8"/>
<text text-anchor="middle" x="3306" y="-127.6" font-family="Times,serif" font-size="14.00">WvrSharedModule</text>
</g>
<!-- DefaultPipe&#45;&gt;WvrSharedModule -->
<g id="edge6" class="edge">
<title>DefaultPipe&#45;&gt;WvrSharedModule</title>
<path fill="none" stroke="black" d="M5192.6,-84.91C5192.6,-104.14 5192.6,-131.8 5192.6,-131.8 5192.6,-131.8 3377.7,-131.8 3377.7,-131.8"/>
<polygon fill="black" stroke="black" points="3377.7,-128.3 3367.7,-131.8 3377.7,-135.3 3377.7,-128.3"/>
</g>
<!-- SafePipe -->
<g id="node8" class="node">
<title>SafePipe</title>
<polygon fill="#ffffb3" stroke="black" points="5163.77,-84.8 5098.23,-84.8 5098.23,-48.8 5163.77,-48.8 5163.77,-84.8"/>
<text text-anchor="middle" x="5131" y="-62.6" font-family="Times,serif" font-size="14.00">SafePipe</text>
</g>
<!-- SafePipe&#45;&gt;WvrSharedModule -->
<g id="edge7" class="edge">
<title>SafePipe&#45;&gt;WvrSharedModule</title>
<path fill="none" stroke="black" d="M5107.18,-85.02C5107.18,-103.63 5107.18,-129.8 5107.18,-129.8 5107.18,-129.8 3377.74,-129.8 3377.74,-129.8"/>
<polygon fill="black" stroke="black" points="3377.74,-126.3 3367.74,-129.8 3377.74,-133.3 3377.74,-126.3"/>
</g>
<!-- WvrAlertComponent -->
<g id="node9" class="node">
<title>WvrAlertComponent</title>
<polygon fill="#ffffb3" stroke="black" points="5080.47,-84.8 4945.53,-84.8 4945.53,-48.8 5080.47,-48.8 5080.47,-84.8"/>
<text text-anchor="middle" x="5013" y="-62.6" font-family="Times,serif" font-size="14.00">WvrAlertComponent</text>
</g>
<!-- WvrAlertComponent&#45;&gt;WvrSharedModule -->
<g id="edge8" class="edge">
<title>WvrAlertComponent&#45;&gt;WvrSharedModule</title>
<path fill="none" stroke="black" d="M4952.71,-85.07C4952.71,-103.36 4952.71,-128.8 4952.71,-128.8 4952.71,-128.8 3378.04,-128.8 3378.04,-128.8"/>
<polygon fill="black" stroke="black" points="3378.04,-125.3 3368.04,-128.8 3378.04,-132.3 3378.04,-125.3"/>
</g>
<!-- WvrButtonComponent -->
<g id="node10" class="node">
<title>WvrButtonComponent</title>
<polygon fill="#ffffb3" stroke="black" points="4927.32,-84.8 4782.68,-84.8 4782.68,-48.8 4927.32,-48.8 4927.32,-84.8"/>
<text text-anchor="middle" x="4855" y="-62.6" font-family="Times,serif" font-size="14.00">WvrButtonComponent</text>
</g>
<!-- WvrButtonComponent&#45;&gt;WvrSharedModule -->
<g id="edge9" class="edge">
<title>WvrButtonComponent&#45;&gt;WvrSharedModule</title>
<path fill="none" stroke="black" d="M4788.65,-84.8C4788.65,-102.48 4788.65,-126.8 4788.65,-126.8 4788.65,-126.8 3377.82,-126.8 3377.82,-126.8"/>
<polygon fill="black" stroke="black" points="3377.82,-123.3 3367.82,-126.8 3377.82,-130.3 3377.82,-123.3"/>
</g>
<!-- WvrCardComponent -->
<g id="node11" class="node">
<title>WvrCardComponent</title>
<polygon fill="#ffffb3" stroke="black" points="4764.92,-84.8 4631.08,-84.8 4631.08,-48.8 4764.92,-48.8 4764.92,-84.8"/>
<text text-anchor="middle" x="4698" y="-62.6" font-family="Times,serif" font-size="14.00">WvrCardComponent</text>
</g>
<!-- WvrCardComponent&#45;&gt;WvrSharedModule -->
<g id="edge10" class="edge">
<title>WvrCardComponent&#45;&gt;WvrSharedModule</title>
<path fill="none" stroke="black" d="M4635.51,-84.82C4635.51,-102.17 4635.51,-125.8 4635.51,-125.8 4635.51,-125.8 3377.9,-125.8 3377.9,-125.8"/>
<polygon fill="black" stroke="black" points="3377.9,-122.3 3367.9,-125.8 3377.9,-129.3 3377.9,-122.3"/>
</g>
<!-- WvrColorPreviewComponent -->
<g id="node12" class="node">
<title>WvrColorPreviewComponent</title>
<polygon fill="#ffffb3" stroke="black" points="4612.97,-84.8 4429.03,-84.8 4429.03,-48.8 4612.97,-48.8 4612.97,-84.8"/>
<text text-anchor="middle" x="4521" y="-62.6" font-family="Times,serif" font-size="14.00">WvrColorPreviewComponent</text>
</g>
<!-- WvrColorPreviewComponent&#45;&gt;WvrSharedModule -->
<g id="edge11" class="edge">
<title>WvrColorPreviewComponent&#45;&gt;WvrSharedModule</title>
<path fill="none" stroke="black" d="M4443.22,-84.83C4443.22,-101.86 4443.22,-124.8 4443.22,-124.8 4443.22,-124.8 3377.95,-124.8 3377.95,-124.8"/>
<polygon fill="black" stroke="black" points="3377.95,-121.3 3367.95,-124.8 3377.95,-128.3 3377.95,-121.3"/>
</g>
<!-- WvrContentProjectionDirective -->
<g id="node13" class="node">
<title>WvrContentProjectionDirective</title>
<polygon fill="#ffffb3" stroke="black" points="4411.34,-84.8 4216.66,-84.8 4216.66,-48.8 4411.34,-48.8 4411.34,-84.8"/>
<text text-anchor="middle" x="4314" y="-62.6" font-family="Times,serif" font-size="14.00">WvrContentProjectionDirective</text>
</g>
<!-- WvrContentProjectionDirective&#45;&gt;WvrSharedModule -->
<g id="edge12" class="edge">
<title>WvrContentProjectionDirective&#45;&gt;WvrSharedModule</title>
<path fill="none" stroke="black" d="M4226.81,-84.83C4226.81,-101.2 4226.81,-122.8 4226.81,-122.8 4226.81,-122.8 3377.85,-122.8 3377.85,-122.8"/>
<polygon fill="black" stroke="black" points="3377.85,-119.3 3367.85,-122.8 3377.85,-126.3 3377.85,-119.3"/>
</g>
<!-- WvrDropdownComponent -->
<g id="node14" class="node">
<title>WvrDropdownComponent</title>
<polygon fill="#ffffb3" stroke="black" points="4199.09,-84.8 4032.91,-84.8 4032.91,-48.8 4199.09,-48.8 4199.09,-84.8"/>
<text text-anchor="middle" x="4116" y="-62.6" font-family="Times,serif" font-size="14.00">WvrDropdownComponent</text>
</g>
<!-- WvrDropdownComponent&#45;&gt;WvrSharedModule -->
<g id="edge13" class="edge">
<title>WvrDropdownComponent&#45;&gt;WvrSharedModule</title>
<path fill="none" stroke="black" d="M4040.58,-84.81C4040.58,-100.85 4040.58,-121.8 4040.58,-121.8 4040.58,-121.8 3377.68,-121.8 3377.68,-121.8"/>
<polygon fill="black" stroke="black" points="3377.68,-118.3 3367.68,-121.8 3377.68,-125.3 3377.68,-118.3"/>
</g>
<!-- WvrFooterComponent -->
<g id="node15" class="node">
<title>WvrFooterComponent</title>
<polygon fill="#ffffb3" stroke="black" points="4015.26,-84.8 3872.74,-84.8 3872.74,-48.8 4015.26,-48.8 4015.26,-84.8"/>
<text text-anchor="middle" x="3944" y="-62.6" font-family="Times,serif" font-size="14.00">WvrFooterComponent</text>
</g>
<!-- WvrFooterComponent&#45;&gt;WvrSharedModule -->
<g id="edge14" class="edge">
<title>WvrFooterComponent&#45;&gt;WvrSharedModule</title>
<path fill="none" stroke="black" d="M3878.25,-85.04C3878.25,-100.37 3878.25,-119.8 3878.25,-119.8 3878.25,-119.8 3377.78,-119.8 3377.78,-119.8"/>
<polygon fill="black" stroke="black" points="3377.78,-116.3 3367.78,-119.8 3377.78,-123.3 3377.78,-116.3"/>
</g>
<!-- WvrHeaderComponent -->
<g id="node16" class="node">
<title>WvrHeaderComponent</title>
<polygon fill="#ffffb3" stroke="black" points="3854.12,-84.8 3707.88,-84.8 3707.88,-48.8 3854.12,-48.8 3854.12,-84.8"/>
<text text-anchor="middle" x="3781" y="-62.6" font-family="Times,serif" font-size="14.00">WvrHeaderComponent</text>
</g>
<!-- WvrHeaderComponent&#45;&gt;WvrSharedModule -->
<g id="edge15" class="edge">
<title>WvrHeaderComponent&#45;&gt;WvrSharedModule</title>
<path fill="none" stroke="black" d="M3711.81,-84.99C3711.81,-99.98 3711.81,-118.8 3711.81,-118.8 3711.81,-118.8 3378.08,-118.8 3378.08,-118.8"/>
<polygon fill="black" stroke="black" points="3378.08,-115.3 3368.08,-118.8 3378.08,-122.3 3378.08,-115.3"/>
</g>
<!-- WvrIconComponent -->
<g id="node17" class="node">
<title>WvrIconComponent</title>
<polygon fill="#ffffb3" stroke="black" points="3689.58,-84.8 3558.42,-84.8 3558.42,-48.8 3689.58,-48.8 3689.58,-84.8"/>
<text text-anchor="middle" x="3624" y="-62.6" font-family="Times,serif" font-size="14.00">WvrIconComponent</text>
</g>
<!-- WvrIconComponent&#45;&gt;WvrSharedModule -->
<g id="edge16" class="edge">
<title>WvrIconComponent&#45;&gt;WvrSharedModule</title>
<path fill="none" stroke="black" d="M3647.6,-84.85C3647.6,-99.17 3647.6,-116.8 3647.6,-116.8 3647.6,-116.8 3377.86,-116.8 3377.86,-116.8"/>
<polygon fill="black" stroke="black" points="3377.86,-113.3 3367.86,-116.8 3377.86,-120.3 3377.86,-113.3"/>
</g>
<!-- WvrItWorksComponent -->
<g id="node18" class="node">
<title>WvrItWorksComponent</title>
<polygon fill="#ffffb3" stroke="black" points="3540.08,-84.8 3387.92,-84.8 3387.92,-48.8 3540.08,-48.8 3540.08,-84.8"/>
<text text-anchor="middle" x="3464" y="-62.6" font-family="Times,serif" font-size="14.00">WvrItWorksComponent</text>
</g>
<!-- WvrItWorksComponent&#45;&gt;WvrSharedModule -->
<g id="edge17" class="edge">
<title>WvrItWorksComponent&#45;&gt;WvrSharedModule</title>
<path fill="none" stroke="black" d="M3490.1,-85.05C3490.1,-98.98 3490.1,-115.8 3490.1,-115.8 3490.1,-115.8 3377.81,-115.8 3377.81,-115.8"/>
<polygon fill="black" stroke="black" points="3377.81,-112.3 3367.81,-115.8 3377.81,-119.3 3377.81,-112.3"/>
</g>
<!-- WvrListComponent -->
<g id="node19" class="node">
<title>WvrListComponent</title>
<polygon fill="#ffffb3" stroke="black" points="3369.99,-84.8 3242.01,-84.8 3242.01,-48.8 3369.99,-48.8 3369.99,-84.8"/>
<text text-anchor="middle" x="3306" y="-62.6" font-family="Times,serif" font-size="14.00">WvrListComponent</text>
</g>
<!-- WvrListComponent&#45;&gt;WvrSharedModule -->
<g id="edge18" class="edge">
<title>WvrListComponent&#45;&gt;WvrSharedModule</title>
<path fill="none" stroke="black" d="M3306,-84.91C3306,-84.91 3306,-103.79 3306,-103.79"/>
<polygon fill="black" stroke="black" points="3302.5,-103.79 3306,-113.79 3309.5,-103.79 3302.5,-103.79"/>
</g>
<!-- WvrListItemComponent -->
<g id="node20" class="node">
<title>WvrListItemComponent</title>
<polygon fill="#ffffb3" stroke="black" points="3223.64,-84.8 3070.36,-84.8 3070.36,-48.8 3223.64,-48.8 3223.64,-84.8"/>
<text text-anchor="middle" x="3147" y="-62.6" font-family="Times,serif" font-size="14.00">WvrListItemComponent</text>
</g>
<!-- WvrListItemComponent&#45;&gt;WvrSharedModule -->
<g id="edge19" class="edge">
<title>WvrListItemComponent&#45;&gt;WvrSharedModule</title>
<path fill="none" stroke="black" d="M3171.77,-84.92C3171.77,-99.58 3171.77,-117.8 3171.77,-117.8 3171.77,-117.8 3233.99,-117.8 3233.99,-117.8"/>
<polygon fill="black" stroke="black" points="3233.99,-121.3 3243.99,-117.8 3233.99,-114.3 3233.99,-121.3"/>
</g>
<!-- WvrManifestComponent -->
<g id="node21" class="node">
<title>WvrManifestComponent</title>
<polygon fill="#ffffb3" stroke="black" points="3051.97,-84.8 2896.03,-84.8 2896.03,-48.8 3051.97,-48.8 3051.97,-84.8"/>
<text text-anchor="middle" x="2974" y="-62.6" font-family="Times,serif" font-size="14.00">WvrManifestComponent</text>
</g>
<!-- WvrManifestComponent&#45;&gt;WvrSharedModule -->
<g id="edge20" class="edge">
<title>WvrManifestComponent&#45;&gt;WvrSharedModule</title>
<path fill="none" stroke="black" d="M2997.16,-85.04C2997.16,-100.37 2997.16,-119.8 2997.16,-119.8 2997.16,-119.8 3234.24,-119.8 3234.24,-119.8"/>
<polygon fill="black" stroke="black" points="3234.24,-123.3 3244.24,-119.8 3234.24,-116.3 3234.24,-123.3"/>
</g>
<!-- WvrManifestEntryComponent -->
<g id="node22" class="node">
<title>WvrManifestEntryComponent</title>
<polygon fill="#ffffb3" stroke="black" points="2877.58,-84.8 2690.42,-84.8 2690.42,-48.8 2877.58,-48.8 2877.58,-84.8"/>
<text text-anchor="middle" x="2784" y="-62.6" font-family="Times,serif" font-size="14.00">WvrManifestEntryComponent</text>
</g>
<!-- WvrManifestEntryComponent&#45;&gt;WvrSharedModule -->
<g id="edge21" class="edge">
<title>WvrManifestEntryComponent&#45;&gt;WvrSharedModule</title>
<path fill="none" stroke="black" d="M2873.91,-85.08C2873.91,-100.75 2873.91,-120.8 2873.91,-120.8 2873.91,-120.8 3234.09,-120.8 3234.09,-120.8"/>
<polygon fill="black" stroke="black" points="3234.09,-124.3 3244.09,-120.8 3234.09,-117.3 3234.09,-124.3"/>
</g>
<!-- WvrMessageManifestComponent -->
<g id="node23" class="node">
<title>WvrMessageManifestComponent</title>
<polygon fill="#ffffb3" stroke="black" points="2672.46,-84.8 2467.54,-84.8 2467.54,-48.8 2672.46,-48.8 2672.46,-84.8"/>
<text text-anchor="middle" x="2570" y="-62.6" font-family="Times,serif" font-size="14.00">WvrMessageManifestComponent</text>
</g>
<!-- WvrMessageManifestComponent&#45;&gt;WvrSharedModule -->
<g id="edge22" class="edge">
<title>WvrMessageManifestComponent&#45;&gt;WvrSharedModule</title>
<path fill="none" stroke="black" d="M2666.85,-84.81C2666.85,-100.85 2666.85,-121.8 2666.85,-121.8 2666.85,-121.8 3234.14,-121.8 3234.14,-121.8"/>
<polygon fill="black" stroke="black" points="3234.14,-125.3 3244.14,-121.8 3234.14,-118.3 3234.14,-125.3"/>
</g>
<!-- WvrMessageManifestEntryComponent -->
<g id="node24" class="node">
<title>WvrMessageManifestEntryComponent</title>
<polygon fill="#ffffb3" stroke="black" points="2449.06,-84.8 2212.94,-84.8 2212.94,-48.8 2449.06,-48.8 2449.06,-84.8"/>
<text text-anchor="middle" x="2331" y="-62.6" font-family="Times,serif" font-size="14.00">WvrMessageManifestEntryComponent</text>
</g>
<!-- WvrMessageManifestEntryComponent&#45;&gt;WvrSharedModule -->
<g id="edge23" class="edge">
<title>WvrMessageManifestEntryComponent&#45;&gt;WvrSharedModule</title>
<path fill="none" stroke="black" d="M2441.91,-84.84C2441.91,-101.53 2441.91,-123.8 2441.91,-123.8 2441.91,-123.8 3234.2,-123.8 3234.2,-123.8"/>
<polygon fill="black" stroke="black" points="3234.2,-127.3 3244.2,-123.8 3234.2,-120.3 3234.2,-127.3"/>
</g>
<!-- WvrModalComponent -->
<g id="node25" class="node">
<title>WvrModalComponent</title>
<polygon fill="#ffffb3" stroke="black" points="2195.26,-84.8 2052.74,-84.8 2052.74,-48.8 2195.26,-48.8 2195.26,-84.8"/>
<text text-anchor="middle" x="2124" y="-62.6" font-family="Times,serif" font-size="14.00">WvrModalComponent</text>
</g>
<!-- WvrModalComponent&#45;&gt;WvrSharedModule -->
<g id="edge24" class="edge">
<title>WvrModalComponent&#45;&gt;WvrSharedModule</title>
<path fill="none" stroke="black" d="M2186.17,-84.83C2186.17,-101.86 2186.17,-124.8 2186.17,-124.8 2186.17,-124.8 3234.2,-124.8 3234.2,-124.8"/>
<polygon fill="black" stroke="black" points="3234.2,-128.3 3244.2,-124.8 3234.2,-121.3 3234.2,-128.3"/>
</g>
<!-- WvrNavLiComponent -->
<g id="node26" class="node">
<title>WvrNavLiComponent</title>
<polygon fill="#ffffb3" stroke="black" points="2034.97,-84.8 1893.03,-84.8 1893.03,-48.8 2034.97,-48.8 2034.97,-84.8"/>
<text text-anchor="middle" x="1964" y="-62.6" font-family="Times,serif" font-size="14.00">WvrNavLiComponent</text>
</g>
<!-- WvrNavLiComponent&#45;&gt;WvrSharedModule -->
<g id="edge25" class="edge">
<title>WvrNavLiComponent&#45;&gt;WvrSharedModule</title>
<path fill="none" stroke="black" d="M2021.8,-84.82C2021.8,-102.17 2021.8,-125.8 2021.8,-125.8 2021.8,-125.8 3234.06,-125.8 3234.06,-125.8"/>
<polygon fill="black" stroke="black" points="3234.06,-129.3 3244.06,-125.8 3234.06,-122.3 3234.06,-129.3"/>
</g>
<!-- WvrNavListComponent -->
<g id="node27" class="node">
<title>WvrNavListComponent</title>
<polygon fill="#ffffb3" stroke="black" points="1874.81,-84.8 1723.19,-84.8 1723.19,-48.8 1874.81,-48.8 1874.81,-84.8"/>
<text text-anchor="middle" x="1799" y="-62.6" font-family="Times,serif" font-size="14.00">WvrNavListComponent</text>
</g>
<!-- WvrNavListComponent&#45;&gt;WvrSharedModule -->
<g id="edge26" class="edge">
<title>WvrNavListComponent&#45;&gt;WvrSharedModule</title>
<path fill="none" stroke="black" d="M1870.96,-85.1C1870.96,-103.07 1870.96,-127.8 1870.96,-127.8 1870.96,-127.8 3234.34,-127.8 3234.34,-127.8"/>
<polygon fill="black" stroke="black" points="3234.34,-131.3 3244.34,-127.8 3234.34,-124.3 3234.34,-131.3"/>
</g>
<!-- WvrTabsComponent -->
<g id="node28" class="node">
<title>WvrTabsComponent</title>
<polygon fill="#ffffb3" stroke="black" points="1705.92,-84.8 1572.08,-84.8 1572.08,-48.8 1705.92,-48.8 1705.92,-84.8"/>
<text text-anchor="middle" x="1639" y="-62.6" font-family="Times,serif" font-size="14.00">WvrTabsComponent</text>
</g>
<!-- WvrTabsComponent&#45;&gt;WvrSharedModule -->
<g id="edge27" class="edge">
<title>WvrTabsComponent&#45;&gt;WvrSharedModule</title>
<path fill="none" stroke="black" d="M1700.15,-85.07C1700.15,-103.36 1700.15,-128.8 1700.15,-128.8 1700.15,-128.8 3234.03,-128.8 3234.03,-128.8"/>
<polygon fill="black" stroke="black" points="3234.03,-132.3 3244.03,-128.8 3234.03,-125.3 3234.03,-132.3"/>
</g>
<!-- WvrTextComponent -->
<g id="node29" class="node">
<title>WvrTextComponent</title>
<polygon fill="#ffffb3" stroke="black" points="1553.86,-84.8 1422.14,-84.8 1422.14,-48.8 1553.86,-48.8 1553.86,-84.8"/>
<text text-anchor="middle" x="1488" y="-62.6" font-family="Times,serif" font-size="14.00">WvrTextComponent</text>
</g>
<!-- WvrTextComponent&#45;&gt;WvrSharedModule -->
<g id="edge28" class="edge">
<title>WvrTextComponent&#45;&gt;WvrSharedModule</title>
<path fill="none" stroke="black" d="M1546.74,-85.02C1546.74,-103.63 1546.74,-129.8 1546.74,-129.8 1546.74,-129.8 3234.16,-129.8 3234.16,-129.8"/>
<polygon fill="black" stroke="black" points="3234.16,-133.3 3244.16,-129.8 3234.16,-126.3 3234.16,-133.3"/>
</g>
<!-- WvrThemeComponent -->
<g id="node30" class="node">
<title>WvrThemeComponent</title>
<polygon fill="#ffffb3" stroke="black" points="1404.58,-84.8 1259.42,-84.8 1259.42,-48.8 1404.58,-48.8 1404.58,-84.8"/>
<text text-anchor="middle" x="1332" y="-62.6" font-family="Times,serif" font-size="14.00">WvrThemeComponent</text>
</g>
<!-- WvrThemeComponent&#45;&gt;WvrSharedModule -->
<g id="edge29" class="edge">
<title>WvrThemeComponent&#45;&gt;WvrSharedModule</title>
<path fill="none" stroke="black" d="M1395.43,-84.91C1395.43,-104.14 1395.43,-131.8 1395.43,-131.8 1395.43,-131.8 3234.33,-131.8 3234.33,-131.8"/>
<polygon fill="black" stroke="black" points="3234.33,-135.3 3244.33,-131.8 3234.33,-128.3 3234.33,-135.3"/>
</g>
<!-- WvrWysiwygComponent -->
<g id="node31" class="node">
<title>WvrWysiwygComponent</title>
<polygon fill="#ffffb3" stroke="black" points="1241.87,-84.8 1082.13,-84.8 1082.13,-48.8 1241.87,-48.8 1241.87,-84.8"/>
<text text-anchor="middle" x="1162" y="-62.6" font-family="Times,serif" font-size="14.00">WvrWysiwygComponent</text>
</g>
<!-- WvrWysiwygComponent&#45;&gt;WvrSharedModule -->
<g id="edge30" class="edge">
<title>WvrWysiwygComponent&#45;&gt;WvrSharedModule</title>
<path fill="none" stroke="black" d="M1230.82,-84.83C1230.82,-104.38 1230.82,-132.8 1230.82,-132.8 1230.82,-132.8 3234.18,-132.8 3234.18,-132.8"/>
<polygon fill="black" stroke="black" points="3234.18,-136.3 3244.18,-132.8 3234.18,-129.3 3234.18,-136.3"/>
</g>
<!-- DefaultPipe  -->
<g id="node33" class="node">
<title>DefaultPipe </title>
<polygon fill="#fb8072" stroke="black" points="5308.37,-214.8 5221.63,-214.8 5221.63,-178.8 5308.37,-178.8 5308.37,-214.8"/>
<text text-anchor="middle" x="5265" y="-192.6" font-family="Times,serif" font-size="14.00">DefaultPipe </text>
</g>
<!-- WvrSharedModule&#45;&gt;DefaultPipe  -->
<g id="edge31" class="edge">
<title>WvrSharedModule&#45;&gt;DefaultPipe </title>
<path fill="none" stroke="black" stroke-dasharray="5,2" d="M3367.71,-132.8C3698.14,-132.8 5243.12,-132.8 5243.12,-132.8 5243.12,-132.8 5243.12,-168.63 5243.12,-168.63"/>
<polygon fill="black" stroke="black" points="5239.63,-168.63 5243.12,-178.63 5246.63,-168.63 5239.63,-168.63"/>
</g>
<!-- SafePipe  -->
<g id="node34" class="node">
<title>SafePipe </title>
<polygon fill="#fb8072" stroke="black" points="5203.77,-214.8 5134.23,-214.8 5134.23,-178.8 5203.77,-178.8 5203.77,-214.8"/>
<text text-anchor="middle" x="5169" y="-192.6" font-family="Times,serif" font-size="14.00">SafePipe </text>
</g>
<!-- WvrSharedModule&#45;&gt;SafePipe  -->
<g id="edge32" class="edge">
<title>WvrSharedModule&#45;&gt;SafePipe </title>
<path fill="none" stroke="black" stroke-dasharray="5,2" d="M3367.85,-134.8C3688.74,-134.8 5149.12,-134.8 5149.12,-134.8 5149.12,-134.8 5149.12,-168.53 5149.12,-168.53"/>
<polygon fill="black" stroke="black" points="5145.63,-168.53 5149.12,-178.53 5152.63,-168.53 5145.63,-168.53"/>
</g>
<!-- WvrAlertComponent  -->
<g id="node35" class="node">
<title>WvrAlertComponent </title>
<polygon fill="#fb8072" stroke="black" points="5116.47,-214.8 4977.53,-214.8 4977.53,-178.8 5116.47,-178.8 5116.47,-214.8"/>
<text text-anchor="middle" x="5047" y="-192.6" font-family="Times,serif" font-size="14.00">WvrAlertComponent </text>
</g>
<!-- WvrSharedModule&#45;&gt;WvrAlertComponent  -->
<g id="edge33" class="edge">
<title>WvrSharedModule&#45;&gt;WvrAlertComponent </title>
<path fill="none" stroke="black" stroke-dasharray="5,2" d="M3367.83,-135.8C3675.77,-135.8 5029.12,-135.8 5029.12,-135.8 5029.12,-135.8 5029.12,-168.5 5029.12,-168.5"/>
<polygon fill="black" stroke="black" points="5025.63,-168.5 5029.12,-178.5 5032.63,-168.5 5025.63,-168.5"/>
</g>
<!-- WvrButtonComponent  -->
<g id="node36" class="node">
<title>WvrButtonComponent </title>
<polygon fill="#fb8072" stroke="black" points="4959.82,-214.8 4812.18,-214.8 4812.18,-178.8 4959.82,-178.8 4959.82,-214.8"/>
<text text-anchor="middle" x="4886" y="-192.6" font-family="Times,serif" font-size="14.00">WvrButtonComponent </text>
</g>
<!-- WvrSharedModule&#45;&gt;WvrButtonComponent  -->
<g id="edge34" class="edge">
<title>WvrSharedModule&#45;&gt;WvrButtonComponent </title>
<path fill="none" stroke="black" stroke-dasharray="5,2" d="M3367.78,-137.8C3657.73,-137.8 4869.62,-137.8 4869.62,-137.8 4869.62,-137.8 4869.62,-168.78 4869.62,-168.78"/>
<polygon fill="black" stroke="black" points="4866.13,-168.78 4869.62,-178.78 4873.13,-168.78 4866.13,-168.78"/>
</g>
<!-- WvrCardComponent  -->
<g id="node37" class="node">
<title>WvrCardComponent </title>
<polygon fill="#fb8072" stroke="black" points="4794.42,-214.8 4657.58,-214.8 4657.58,-178.8 4794.42,-178.8 4794.42,-214.8"/>
<text text-anchor="middle" x="4726" y="-192.6" font-family="Times,serif" font-size="14.00">WvrCardComponent </text>
</g>
<!-- WvrSharedModule&#45;&gt;WvrCardComponent  -->
<g id="edge35" class="edge">
<title>WvrSharedModule&#45;&gt;WvrCardComponent </title>
<path fill="none" stroke="black" stroke-dasharray="5,2" d="M3367.73,-138.8C3638.93,-138.8 4711.12,-138.8 4711.12,-138.8 4711.12,-138.8 4711.12,-168.77 4711.12,-168.77"/>
<polygon fill="black" stroke="black" points="4707.63,-168.77 4711.12,-178.77 4714.63,-168.77 4707.63,-168.77"/>
</g>
<!-- WvrColorPreviewComponent  -->
<g id="node38" class="node">
<title>WvrColorPreviewComponent </title>
<polygon fill="#fb8072" stroke="black" points="4639.97,-214.8 4452.03,-214.8 4452.03,-178.8 4639.97,-178.8 4639.97,-214.8"/>
<text text-anchor="middle" x="4546" y="-192.6" font-family="Times,serif" font-size="14.00">WvrColorPreviewComponent </text>
</g>
<!-- WvrSharedModule&#45;&gt;WvrColorPreviewComponent  -->
<g id="edge36" class="edge">
<title>WvrSharedModule&#45;&gt;WvrColorPreviewComponent </title>
<path fill="none" stroke="black" stroke-dasharray="5,2" d="M3367.67,-139.8C3616.41,-139.8 4532.62,-139.8 4532.62,-139.8 4532.62,-139.8 4532.62,-168.76 4532.62,-168.76"/>
<polygon fill="black" stroke="black" points="4529.13,-168.76 4532.62,-178.76 4536.13,-168.76 4529.13,-168.76"/>
</g>
<!-- WvrContentProjectionDirective  -->
<g id="node39" class="node">
<title>WvrContentProjectionDirective </title>
<polygon fill="#fb8072" stroke="black" points="4434.34,-214.8 4235.66,-214.8 4235.66,-178.8 4434.34,-178.8 4434.34,-214.8"/>
<text text-anchor="middle" x="4335" y="-192.6" font-family="Times,serif" font-size="14.00">WvrContentProjectionDirective </text>
</g>
<!-- WvrSharedModule&#45;&gt;WvrContentProjectionDirective  -->
<g id="edge37" class="edge">
<title>WvrSharedModule&#45;&gt;WvrContentProjectionDirective </title>
<path fill="none" stroke="black" stroke-dasharray="5,2" d="M3367.74,-141.8C3588.22,-141.8 4323.62,-141.8 4323.62,-141.8 4323.62,-141.8 4323.62,-168.79 4323.62,-168.79"/>
<polygon fill="black" stroke="black" points="4320.13,-168.79 4323.62,-178.79 4327.13,-168.79 4320.13,-168.79"/>
</g>
<!-- WvrDropdownComponent  -->
<g id="node40" class="node">
<title>WvrDropdownComponent </title>
<polygon fill="#fb8072" stroke="black" points="4217.59,-214.8 4048.41,-214.8 4048.41,-178.8 4217.59,-178.8 4217.59,-214.8"/>
<text text-anchor="middle" x="4133" y="-192.6" font-family="Times,serif" font-size="14.00">WvrDropdownComponent </text>
</g>
<!-- WvrSharedModule&#45;&gt;WvrDropdownComponent  -->
<g id="edge38" class="edge">
<title>WvrSharedModule&#45;&gt;WvrDropdownComponent </title>
<path fill="none" stroke="black" stroke-dasharray="5,2" d="M3367.79,-142.8C3558.27,-142.8 4123.62,-142.8 4123.62,-142.8 4123.62,-142.8 4123.62,-168.52 4123.62,-168.52"/>
<polygon fill="black" stroke="black" points="4120.13,-168.52 4123.62,-178.52 4127.13,-168.52 4120.13,-168.52"/>
</g>
<!-- WvrFooterComponent  -->
<g id="node41" class="node">
<title>WvrFooterComponent </title>
<polygon fill="#fb8072" stroke="black" points="4030.26,-214.8 3883.74,-214.8 3883.74,-178.8 4030.26,-178.8 4030.26,-214.8"/>
<text text-anchor="middle" x="3957" y="-192.6" font-family="Times,serif" font-size="14.00">WvrFooterComponent </text>
</g>
<!-- WvrSharedModule&#45;&gt;WvrFooterComponent  -->
<g id="edge39" class="edge">
<title>WvrSharedModule&#45;&gt;WvrFooterComponent </title>
<path fill="none" stroke="black" stroke-dasharray="5,2" d="M3367.71,-144.8C3528.81,-144.8 3949.62,-144.8 3949.62,-144.8 3949.62,-144.8 3949.62,-168.61 3949.62,-168.61"/>
<polygon fill="black" stroke="black" points="3946.13,-168.61 3949.62,-178.61 3953.13,-168.61 3946.13,-168.61"/>
</g>
<!-- WvrHeaderComponent  -->
<g id="node42" class="node">
<title>WvrHeaderComponent </title>
<polygon fill="#fb8072" stroke="black" points="3866.12,-214.8 3715.88,-214.8 3715.88,-178.8 3866.12,-178.8 3866.12,-214.8"/>
<text text-anchor="middle" x="3791" y="-192.6" font-family="Times,serif" font-size="14.00">WvrHeaderComponent </text>
</g>
<!-- WvrSharedModule&#45;&gt;WvrHeaderComponent  -->
<g id="edge40" class="edge">
<title>WvrSharedModule&#45;&gt;WvrHeaderComponent </title>
<path fill="none" stroke="black" stroke-dasharray="5,2" d="M3367.66,-145.8C3497.06,-145.8 3785.12,-145.8 3785.12,-145.8 3785.12,-145.8 3785.12,-168.68 3785.12,-168.68"/>
<polygon fill="black" stroke="black" points="3781.63,-168.68 3785.12,-178.68 3788.63,-168.68 3781.63,-168.68"/>
</g>
<!-- WvrIconComponent  -->
<g id="node43" class="node">
<title>WvrIconComponent </title>
<polygon fill="#fb8072" stroke="black" points="3698.08,-214.8 3563.92,-214.8 3563.92,-178.8 3698.08,-178.8 3698.08,-214.8"/>
<text text-anchor="middle" x="3631" y="-192.6" font-family="Times,serif" font-size="14.00">WvrIconComponent </text>
</g>
<!-- WvrSharedModule&#45;&gt;WvrIconComponent  -->
<g id="edge41" class="edge">
<title>WvrSharedModule&#45;&gt;WvrIconComponent </title>
<path fill="none" stroke="black" stroke-dasharray="5,2" d="M3367.72,-147.8C3455.44,-147.8 3605.65,-147.8 3605.65,-147.8 3605.65,-147.8 3605.65,-168.55 3605.65,-168.55"/>
<polygon fill="black" stroke="black" points="3602.15,-168.55 3605.65,-178.55 3609.15,-168.55 3602.15,-168.55"/>
</g>
<!-- WvrItWorksComponent  -->
<g id="node44" class="node">
<title>WvrItWorksComponent </title>
<polygon fill="#fb8072" stroke="black" points="3545.58,-214.8 3390.42,-214.8 3390.42,-178.8 3545.58,-178.8 3545.58,-214.8"/>
<text text-anchor="middle" x="3468" y="-192.6" font-family="Times,serif" font-size="14.00">WvrItWorksComponent </text>
</g>
<!-- WvrSharedModule&#45;&gt;WvrItWorksComponent  -->
<g id="edge42" class="edge">
<title>WvrSharedModule&#45;&gt;WvrItWorksComponent </title>
<path fill="none" stroke="black" stroke-dasharray="5,2" d="M3367.97,-148.8C3403.12,-148.8 3440.15,-148.8 3440.15,-148.8 3440.15,-148.8 3440.15,-168.65 3440.15,-168.65"/>
<polygon fill="black" stroke="black" points="3436.65,-168.65 3440.15,-178.65 3443.65,-168.65 3436.65,-168.65"/>
</g>
<!-- WvrListComponent  -->
<g id="node45" class="node">
<title>WvrListComponent </title>
<polygon fill="#fb8072" stroke="black" points="3371.99,-214.8 3240.01,-214.8 3240.01,-178.8 3371.99,-178.8 3371.99,-214.8"/>
<text text-anchor="middle" x="3306" y="-192.6" font-family="Times,serif" font-size="14.00">WvrListComponent </text>
</g>
<!-- WvrSharedModule&#45;&gt;WvrListComponent  -->
<g id="edge43" class="edge">
<title>WvrSharedModule&#45;&gt;WvrListComponent </title>
<path fill="none" stroke="black" stroke-dasharray="5,2" d="M3306,-149.91C3306,-149.91 3306,-168.79 3306,-168.79"/>
<polygon fill="black" stroke="black" points="3302.5,-168.79 3306,-178.79 3309.5,-168.79 3302.5,-168.79"/>
</g>
<!-- WvrListItemComponent  -->
<g id="node46" class="node">
<title>WvrListItemComponent </title>
<polygon fill="#fb8072" stroke="black" points="3222.64,-214.8 3065.36,-214.8 3065.36,-178.8 3222.64,-178.8 3222.64,-214.8"/>
<text text-anchor="middle" x="3144" y="-192.6" font-family="Times,serif" font-size="14.00">WvrListItemComponent </text>
</g>
<!-- WvrSharedModule&#45;&gt;WvrListItemComponent  -->
<g id="edge44" class="edge">
<title>WvrSharedModule&#45;&gt;WvrListItemComponent </title>
<path fill="none" stroke="black" stroke-dasharray="5,2" d="M3244.13,-148.8C3190.34,-148.8 3120.98,-148.8 3120.98,-148.8 3120.98,-148.8 3120.98,-168.65 3120.98,-168.65"/>
<polygon fill="black" stroke="black" points="3117.48,-168.65 3120.98,-178.65 3124.48,-168.65 3117.48,-168.65"/>
</g>
<!-- WvrManifestComponent  -->
<g id="node47" class="node">
<title>WvrManifestComponent </title>
<polygon fill="#fb8072" stroke="black" points="3047.97,-214.8 2888.03,-214.8 2888.03,-178.8 3047.97,-178.8 3047.97,-214.8"/>
<text text-anchor="middle" x="2968" y="-192.6" font-family="Times,serif" font-size="14.00">WvrManifestComponent </text>
</g>
<!-- WvrSharedModule&#45;&gt;WvrManifestComponent  -->
<g id="edge45" class="edge">
<title>WvrSharedModule&#45;&gt;WvrManifestComponent </title>
<path fill="none" stroke="black" stroke-dasharray="5,2" d="M3244.21,-147.8C3141.45,-147.8 2946.59,-147.8 2946.59,-147.8 2946.59,-147.8 2946.59,-168.55 2946.59,-168.55"/>
<polygon fill="black" stroke="black" points="2943.09,-168.55 2946.59,-178.55 2950.09,-168.55 2943.09,-168.55"/>
</g>
<!-- WvrManifestEntryComponent  -->
<g id="node48" class="node">
<title>WvrManifestEntryComponent </title>
<polygon fill="#fb8072" stroke="black" points="2870.08,-214.8 2679.92,-214.8 2679.92,-178.8 2870.08,-178.8 2870.08,-214.8"/>
<text text-anchor="middle" x="2775" y="-192.6" font-family="Times,serif" font-size="14.00">WvrManifestEntryComponent </text>
</g>
<!-- WvrSharedModule&#45;&gt;WvrManifestEntryComponent  -->
<g id="edge46" class="edge">
<title>WvrSharedModule&#45;&gt;WvrManifestEntryComponent </title>
<path fill="none" stroke="black" stroke-dasharray="5,2" d="M3244.16,-145.8C3105.21,-145.8 2780.38,-145.8 2780.38,-145.8 2780.38,-145.8 2780.38,-168.68 2780.38,-168.68"/>
<polygon fill="black" stroke="black" points="2776.88,-168.68 2780.38,-178.68 2783.88,-168.68 2776.88,-168.68"/>
</g>
<!-- WvrMessageManifestComponent  -->
<g id="node49" class="node">
<title>WvrMessageManifestComponent </title>
<polygon fill="#fb8072" stroke="black" points="2661.46,-214.8 2452.54,-214.8 2452.54,-178.8 2661.46,-178.8 2661.46,-214.8"/>
<text text-anchor="middle" x="2557" y="-192.6" font-family="Times,serif" font-size="14.00">WvrMessageManifestComponent </text>
</g>
<!-- WvrSharedModule&#45;&gt;WvrMessageManifestComponent  -->
<g id="edge47" class="edge">
<title>WvrSharedModule&#45;&gt;WvrMessageManifestComponent </title>
<path fill="none" stroke="black" stroke-dasharray="5,2" d="M3244.05,-144.8C3065.8,-144.8 2564.38,-144.8 2564.38,-144.8 2564.38,-144.8 2564.38,-168.61 2564.38,-168.61"/>
<polygon fill="black" stroke="black" points="2560.88,-168.61 2564.38,-178.61 2567.88,-168.61 2560.88,-168.61"/>
</g>
<!-- WvrMessageManifestEntryComponent  -->
<g id="node50" class="node">
<title>WvrMessageManifestEntryComponent </title>
<polygon fill="#fb8072" stroke="black" points="2434.56,-214.8 2195.44,-214.8 2195.44,-178.8 2434.56,-178.8 2434.56,-214.8"/>
<text text-anchor="middle" x="2315" y="-192.6" font-family="Times,serif" font-size="14.00">WvrMessageManifestEntryComponent </text>
</g>
<!-- WvrSharedModule&#45;&gt;WvrMessageManifestEntryComponent  -->
<g id="edge48" class="edge">
<title>WvrSharedModule&#45;&gt;WvrMessageManifestEntryComponent </title>
<path fill="none" stroke="black" stroke-dasharray="5,2" d="M3244.19,-143.8C3028.74,-143.8 2323.88,-143.8 2323.88,-143.8 2323.88,-143.8 2323.88,-168.56 2323.88,-168.56"/>
<polygon fill="black" stroke="black" points="2320.38,-168.56 2323.88,-178.56 2327.38,-168.56 2320.38,-168.56"/>
</g>
<!-- WvrModalComponent  -->
<g id="node51" class="node">
<title>WvrModalComponent </title>
<polygon fill="#fb8072" stroke="black" points="2177.26,-214.8 2030.74,-214.8 2030.74,-178.8 2177.26,-178.8 2177.26,-214.8"/>
<text text-anchor="middle" x="2104" y="-192.6" font-family="Times,serif" font-size="14.00">WvrModalComponent </text>
</g>
<!-- WvrSharedModule&#45;&gt;WvrModalComponent  -->
<g id="edge49" class="edge">
<title>WvrSharedModule&#45;&gt;WvrModalComponent </title>
<path fill="none" stroke="black" stroke-dasharray="5,2" d="M3244.05,-141.8C2999.56,-141.8 2114.88,-141.8 2114.88,-141.8 2114.88,-141.8 2114.88,-168.79 2114.88,-168.79"/>
<polygon fill="black" stroke="black" points="2111.38,-168.79 2114.88,-178.79 2118.38,-168.79 2111.38,-168.79"/>
</g>
<!-- WvrNavLiComponent  -->
<g id="node52" class="node">
<title>WvrNavLiComponent </title>
<polygon fill="#fb8072" stroke="black" points="2012.97,-214.8 1867.03,-214.8 1867.03,-178.8 2012.97,-178.8 2012.97,-214.8"/>
<text text-anchor="middle" x="1940" y="-192.6" font-family="Times,serif" font-size="14.00">WvrNavLiComponent </text>
</g>
<!-- WvrSharedModule&#45;&gt;WvrNavLiComponent  -->
<g id="edge50" class="edge">
<title>WvrSharedModule&#45;&gt;WvrNavLiComponent </title>
<path fill="none" stroke="black" stroke-dasharray="5,2" d="M3244.34,-140.8C2979.63,-140.8 1952.88,-140.8 1952.88,-140.8 1952.88,-140.8 1952.88,-168.77 1952.88,-168.77"/>
<polygon fill="black" stroke="black" points="1949.38,-168.77 1952.88,-178.77 1956.38,-168.77 1949.38,-168.77"/>
</g>
<!-- WvrNavListComponent  -->
<g id="node53" class="node">
<title>WvrNavListComponent </title>
<polygon fill="#fb8072" stroke="black" points="1849.31,-214.8 1694.69,-214.8 1694.69,-178.8 1849.31,-178.8 1849.31,-214.8"/>
<text text-anchor="middle" x="1772" y="-192.6" font-family="Times,serif" font-size="14.00">WvrNavListComponent </text>
</g>
<!-- WvrSharedModule&#45;&gt;WvrNavListComponent  -->
<g id="edge51" class="edge">
<title>WvrSharedModule&#45;&gt;WvrNavListComponent </title>
<path fill="none" stroke="black" stroke-dasharray="5,2" d="M3244.07,-139.8C2958.95,-139.8 1786.38,-139.8 1786.38,-139.8 1786.38,-139.8 1786.38,-168.76 1786.38,-168.76"/>
<polygon fill="black" stroke="black" points="1782.88,-168.76 1786.38,-178.76 1789.88,-168.76 1782.88,-168.76"/>
</g>
<!-- WvrTabsComponent  -->
<g id="node54" class="node">
<title>WvrTabsComponent </title>
<polygon fill="#fb8072" stroke="black" points="1676.42,-214.8 1539.58,-214.8 1539.58,-178.8 1676.42,-178.8 1676.42,-214.8"/>
<text text-anchor="middle" x="1608" y="-192.6" font-family="Times,serif" font-size="14.00">WvrTabsComponent </text>
</g>
<!-- WvrSharedModule&#45;&gt;WvrTabsComponent  -->
<g id="edge52" class="edge">
<title>WvrSharedModule&#45;&gt;WvrTabsComponent </title>
<path fill="none" stroke="black" stroke-dasharray="5,2" d="M3244.16,-137.8C2940.77,-137.8 1624.38,-137.8 1624.38,-137.8 1624.38,-137.8 1624.38,-168.78 1624.38,-168.78"/>
<polygon fill="black" stroke="black" points="1620.88,-168.78 1624.38,-178.78 1627.88,-168.78 1620.88,-168.78"/>
</g>
<!-- WvrTextComponent  -->
<g id="node55" class="node">
<title>WvrTextComponent </title>
<polygon fill="#fb8072" stroke="black" points="1521.86,-214.8 1386.14,-214.8 1386.14,-178.8 1521.86,-178.8 1521.86,-214.8"/>
<text text-anchor="middle" x="1454" y="-192.6" font-family="Times,serif" font-size="14.00">WvrTextComponent </text>
</g>
<!-- WvrSharedModule&#45;&gt;WvrTextComponent  -->
<g id="edge53" class="edge">
<title>WvrSharedModule&#45;&gt;WvrTextComponent </title>
<path fill="none" stroke="black" stroke-dasharray="5,2" d="M3244.19,-136.8C2924.33,-136.8 1471.88,-136.8 1471.88,-136.8 1471.88,-136.8 1471.88,-168.8 1471.88,-168.8"/>
<polygon fill="black" stroke="black" points="1468.38,-168.8 1471.88,-178.8 1475.38,-168.8 1468.38,-168.8"/>
</g>
<!-- WvrThemeComponent  -->
<g id="node56" class="node">
<title>WvrThemeComponent </title>
<polygon fill="#fb8072" stroke="black" points="1368.08,-214.8 1219.92,-214.8 1219.92,-178.8 1368.08,-178.8 1368.08,-214.8"/>
<text text-anchor="middle" x="1294" y="-192.6" font-family="Times,serif" font-size="14.00">WvrThemeComponent </text>
</g>
<!-- WvrSharedModule&#45;&gt;WvrThemeComponent  -->
<g id="edge54" class="edge">
<title>WvrSharedModule&#45;&gt;WvrThemeComponent </title>
<path fill="none" stroke="black" stroke-dasharray="5,2" d="M3244.2,-135.8C2907.95,-135.8 1313.88,-135.8 1313.88,-135.8 1313.88,-135.8 1313.88,-168.5 1313.88,-168.5"/>
<polygon fill="black" stroke="black" points="1310.38,-168.5 1313.88,-178.5 1317.38,-168.5 1310.38,-168.5"/>
</g>
<!-- WvrWysiwygComponent  -->
<g id="node57" class="node">
<title>WvrWysiwygComponent </title>
<polygon fill="#fb8072" stroke="black" points="1201.87,-214.8 1038.13,-214.8 1038.13,-178.8 1201.87,-178.8 1201.87,-214.8"/>
<text text-anchor="middle" x="1120" y="-192.6" font-family="Times,serif" font-size="14.00">WvrWysiwygComponent </text>
</g>
<!-- WvrSharedModule&#45;&gt;WvrWysiwygComponent  -->
<g id="edge55" class="edge">
<title>WvrSharedModule&#45;&gt;WvrWysiwygComponent </title>
<path fill="none" stroke="black" stroke-dasharray="5,2" d="M3244.14,-133.8C2890.63,-133.8 1141.88,-133.8 1141.88,-133.8 1141.88,-133.8 1141.88,-168.58 1141.88,-168.58"/>
<polygon fill="black" stroke="black" points="1138.38,-168.58 1141.88,-178.58 1145.38,-168.58 1138.38,-168.58"/>
</g>
</g>
</svg>
