<?xml version="1.0" encoding="UTF-8" standalone="no"?>
<!DOCTYPE svg PUBLIC "-//W3C//DTD SVG 1.1//EN"
 "http://www.w3.org/Graphics/SVG/1.1/DTD/svg11.dtd">
<!-- Generated by graphviz version 2.47.0 (20210316.0004)
 -->
<!-- Title: dependencies Pages: 1 -->
<svg width="1030pt" height="211pt"
 viewBox="0.00 0.00 1030.00 211.00" xmlns="http://www.w3.org/2000/svg" xmlns:xlink="http://www.w3.org/1999/xlink">
<g id="graph0" class="graph" transform="scale(1 1) rotate(0) translate(4 207)">
<title>dependencies</title>
<polygon fill="white" stroke="transparent" points="-4,4 -4,-207 1026,-207 1026,4 -4,4"/>
<text text-anchor="start" x="490.01" y="-42.4" font-family="Times-12" font-weight="bold" font-size="14.00">Legend</text>
<polygon fill="#ffffb3" stroke="transparent" points="277,-10 277,-30 297,-30 297,-10 277,-10"/>
<text text-anchor="start" x="300.63" y="-15.4" font-family="Times-12" font-size="14.00"> &#160;Declarations</text>
<polygon fill="#8dd3c7" stroke="transparent" points="390,-10 390,-30 410,-30 410,-10 390,-10"/>
<text text-anchor="start" x="413.73" y="-15.4" font-family="Times-12" font-size="14.00"> &#160;Module</text>
<polygon fill="#80b1d3" stroke="transparent" points="476,-10 476,-30 496,-30 496,-10 476,-10"/>
<text text-anchor="start" x="499.78" y="-15.4" font-family="Times-12" font-size="14.00"> &#160;Bootstrap</text>
<polygon fill="#fdb462" stroke="transparent" points="573,-10 573,-30 593,-30 593,-10 573,-10"/>
<text text-anchor="start" x="596.67" y="-15.4" font-family="Times-12" font-size="14.00"> &#160;Providers</text>
<polygon fill="#fb8072" stroke="transparent" points="669,-10 669,-30 689,-30 689,-10 669,-10"/>
<text text-anchor="start" x="692.73" y="-15.4" font-family="Times-12" font-size="14.00"> &#160;Exports</text>
<g id="clust1" class="cluster">
<title>cluster_WvrCoreModule</title>
<polygon fill="none" stroke="black" stroke-dasharray="1,5" points="8,-70 8,-195 1014,-195 1014,-70 8,-70"/>
</g>
<g id="clust6" class="cluster">
<title>cluster_WvrCoreModule_providers</title>
<polygon fill="none" stroke="black" points="16,-78 16,-130 1006,-130 1006,-78 16,-78"/>
</g>
<!-- ActionRegistryService -->
<g id="node1" class="node">
<title>ActionRegistryService</title>
<ellipse fill="#fdb462" stroke="black" cx="899" cy="-104" rx="98.99" ry="18"/>
<text text-anchor="middle" x="899" y="-99.8" font-family="Times,serif" font-size="14.00">ActionRegistryService</text>
</g>
<!-- WvrCoreModule -->
<g id="node6" class="node">
<title>WvrCoreModule</title>
<polygon fill="#8dd3c7" stroke="black" points="539.64,-187 536.64,-191 515.64,-191 512.64,-187 428.36,-187 428.36,-151 539.64,-151 539.64,-187"/>
<text text-anchor="middle" x="484" y="-164.8" font-family="Times,serif" font-size="14.00">WvrCoreModule</text>
</g>
<!-- ActionRegistryService&#45;&gt;WvrCoreModule -->
<g id="edge1" class="edge">
<title>ActionRegistryService&#45;&gt;WvrCoreModule</title>
<path fill="none" stroke="black" d="M899,-122.28C899,-143.32 899,-175 899,-175 899,-175 549.97,-175 549.97,-175"/>
<polygon fill="black" stroke="black" points="549.97,-171.5 539.97,-175 549.97,-178.5 549.97,-171.5"/>
</g>
<!-- AnimationService -->
<g id="node2" class="node">
<title>AnimationService</title>
<ellipse fill="#fdb462" stroke="black" cx="701" cy="-104" rx="81.1" ry="18"/>
<text text-anchor="middle" x="701" y="-99.8" font-family="Times,serif" font-size="14.00">AnimationService</text>
</g>
<!-- AnimationService&#45;&gt;WvrCoreModule -->
<g id="edge2" class="edge">
<title>AnimationService&#45;&gt;WvrCoreModule</title>
<path fill="none" stroke="black" d="M701,-122.02C701,-139.37 701,-163 701,-163 701,-163 549.88,-163 549.88,-163"/>
<polygon fill="black" stroke="black" points="549.88,-159.5 539.88,-163 549.88,-166.5 549.88,-159.5"/>
</g>
<!-- ComponentRegistryService -->
<g id="node3" class="node">
<title>ComponentRegistryService</title>
<ellipse fill="#fdb462" stroke="black" cx="484" cy="-104" rx="117.56" ry="18"/>
<text text-anchor="middle" x="484" y="-99.8" font-family="Times,serif" font-size="14.00">ComponentRegistryService</text>
</g>
<!-- ComponentRegistryService&#45;&gt;WvrCoreModule -->
<g id="edge3" class="edge">
<title>ComponentRegistryService&#45;&gt;WvrCoreModule</title>
<path fill="none" stroke="black" d="M484,-122.11C484,-122.11 484,-140.99 484,-140.99"/>
<polygon fill="black" stroke="black" points="480.5,-140.99 484,-150.99 487.5,-140.99 480.5,-140.99"/>
</g>
<!-- NgBindingsService -->
<g id="node4" class="node">
<title>NgBindingsService</title>
<ellipse fill="#fdb462" stroke="black" cx="262" cy="-104" rx="86.84" ry="18"/>
<text text-anchor="middle" x="262" y="-99.8" font-family="Times,serif" font-size="14.00">NgBindingsService</text>
</g>
<!-- NgBindingsService&#45;&gt;WvrCoreModule -->
<g id="edge4" class="edge">
<title>NgBindingsService&#45;&gt;WvrCoreModule</title>
<path fill="none" stroke="black" d="M262,-122.02C262,-139.37 262,-163 262,-163 262,-163 418.27,-163 418.27,-163"/>
<polygon fill="black" stroke="black" points="418.27,-166.5 428.27,-163 418.27,-159.5 418.27,-166.5"/>
</g>
<!-- ThemeService -->
<g id="node5" class="node">
<title>ThemeService</title>
<ellipse fill="#fdb462" stroke="black" cx="91" cy="-104" rx="66.61" ry="18"/>
<text text-anchor="middle" x="91" y="-99.8" font-family="Times,serif" font-size="14.00">ThemeService</text>
</g>
<!-- ThemeService&#45;&gt;WvrCoreModule -->
<g id="edge5" class="edge">
<title>ThemeService&#45;&gt;WvrCoreModule</title>
<path fill="none" stroke="black" d="M91,-122.28C91,-143.32 91,-175 91,-175 91,-175 418.11,-175 418.11,-175"/>
<polygon fill="black" stroke="black" points="418.11,-178.5 428.11,-175 418.11,-171.5 418.11,-178.5"/>
</g>
</g>
</svg>
