<?xml version="1.0" encoding="UTF-8" standalone="no"?>
<!DOCTYPE svg PUBLIC "-//W3C//DTD SVG 1.1//EN"
 "http://www.w3.org/Graphics/SVG/1.1/DTD/svg11.dtd">
<!-- Generated by graphviz version 5.0.0 (20220707.1540)
 -->
<!-- Title: dependencies Pages: 1 -->
<svg width="1030pt" height="174pt"
 viewBox="0.00 0.00 1030.00 173.80" xmlns="http://www.w3.org/2000/svg" xmlns:xlink="http://www.w3.org/1999/xlink">
<g id="graph0" class="graph" transform="scale(1 1) rotate(0) translate(4 169.8)">
<title>dependencies</title>
<polygon fill="white" stroke="transparent" points="-4,4 -4,-169.8 1026,-169.8 1026,4 -4,4"/>
<text text-anchor="middle" x="511" y="-8.2" font-family="sans-serif" font-size="14.00">dependencies</text>
<g id="clust1" class="cluster">
<title>cluster_WvrCoreModule</title>
<polygon fill="none" stroke="black" stroke-dasharray="1,5" points="8,-32.8 8,-157.8 1014,-157.8 1014,-32.8 8,-32.8"/>
</g>
<g id="clust6" class="cluster">
<title>cluster_WvrCoreModule_providers</title>
<polygon fill="none" stroke="black" points="16,-40.8 16,-92.8 1006,-92.8 1006,-40.8 16,-40.8"/>
</g>
<!-- ActionRegistryService -->
<g id="node1" class="node">
<title>ActionRegistryService</title>
<ellipse fill="#fdb462" stroke="black" cx="899" cy="-66.8" rx="99" ry="18"/>
<text text-anchor="middle" x="899" y="-62.6" font-family="Times,serif" font-size="14.00">ActionRegistryService</text>
</g>
<!-- WvrCoreModule -->
<g id="node6" class="node">
<title>WvrCoreModule</title>
<polygon fill="#8dd3c7" stroke="black" points="539.64,-149.8 536.64,-153.8 515.64,-153.8 512.64,-149.8 428.36,-149.8 428.36,-113.8 539.64,-113.8 539.64,-149.8"/>
<text text-anchor="middle" x="484" y="-127.6" font-family="Times,serif" font-size="14.00">WvrCoreModule</text>
</g>
<!-- ActionRegistryService&#45;&gt;WvrCoreModule -->
<g id="edge1" class="edge">
<title>ActionRegistryService&#45;&gt;WvrCoreModule</title>
<path fill="none" stroke="black" d="M899,-85.08C899,-106.12 899,-137.8 899,-137.8 899,-137.8 549.97,-137.8 549.97,-137.8"/>
<polygon fill="black" stroke="black" points="549.97,-134.3 539.97,-137.8 549.97,-141.3 549.97,-134.3"/>
</g>
<!-- AnimationService -->
<g id="node2" class="node">
<title>AnimationService</title>
<ellipse fill="#fdb462" stroke="black" cx="701" cy="-66.8" rx="81.1" ry="18"/>
<text text-anchor="middle" x="701" y="-62.6" font-family="Times,serif" font-size="14.00">AnimationService</text>
</g>
<!-- AnimationService&#45;&gt;WvrCoreModule -->
<g id="edge2" class="edge">
<title>AnimationService&#45;&gt;WvrCoreModule</title>
<path fill="none" stroke="black" d="M701,-84.82C701,-102.17 701,-125.8 701,-125.8 701,-125.8 549.88,-125.8 549.88,-125.8"/>
<polygon fill="black" stroke="black" points="549.88,-122.3 539.88,-125.8 549.88,-129.3 549.88,-122.3"/>
</g>
<!-- ComponentRegistryService -->
<g id="node3" class="node">
<title>ComponentRegistryService</title>
<ellipse fill="#fdb462" stroke="black" cx="484" cy="-66.8" rx="117.56" ry="18"/>
<text text-anchor="middle" x="484" y="-62.6" font-family="Times,serif" font-size="14.00">ComponentRegistryService</text>
</g>
<!-- ComponentRegistryService&#45;&gt;WvrCoreModule -->
<g id="edge3" class="edge">
<title>ComponentRegistryService&#45;&gt;WvrCoreModule</title>
<path fill="none" stroke="black" d="M484,-84.91C484,-84.91 484,-103.79 484,-103.79"/>
<polygon fill="black" stroke="black" points="480.5,-103.79 484,-113.79 487.5,-103.79 480.5,-103.79"/>
</g>
<!-- NgBindingsService -->
<g id="node4" class="node">
<title>NgBindingsService</title>
<ellipse fill="#fdb462" stroke="black" cx="262" cy="-66.8" rx="86.85" ry="18"/>
<text text-anchor="middle" x="262" y="-62.6" font-family="Times,serif" font-size="14.00">NgBindingsService</text>
</g>
<!-- NgBindingsService&#45;&gt;WvrCoreModule -->
<g id="edge4" class="edge">
<title>NgBindingsService&#45;&gt;WvrCoreModule</title>
<path fill="none" stroke="black" d="M262,-84.82C262,-102.17 262,-125.8 262,-125.8 262,-125.8 418.27,-125.8 418.27,-125.8"/>
<polygon fill="black" stroke="black" points="418.27,-129.3 428.27,-125.8 418.27,-122.3 418.27,-129.3"/>
</g>
<!-- ThemeService -->
<g id="node5" class="node">
<title>ThemeService</title>
<ellipse fill="#fdb462" stroke="black" cx="91" cy="-66.8" rx="66.61" ry="18"/>
<text text-anchor="middle" x="91" y="-62.6" font-family="Times,serif" font-size="14.00">ThemeService</text>
</g>
<!-- ThemeService&#45;&gt;WvrCoreModule -->
<g id="edge5" class="edge">
<title>ThemeService&#45;&gt;WvrCoreModule</title>
<path fill="none" stroke="black" d="M91,-85.08C91,-106.12 91,-137.8 91,-137.8 91,-137.8 418.11,-137.8 418.11,-137.8"/>
<polygon fill="black" stroke="black" points="418.11,-141.3 428.11,-137.8 418.11,-134.3 418.11,-141.3"/>
</g>
</g>
</svg>
