<?xml version="1.0" encoding="UTF-8" standalone="no"?>
<!DOCTYPE svg PUBLIC "-//W3C//DTD SVG 1.1//EN"
 "http://www.w3.org/Graphics/SVG/1.1/DTD/svg11.dtd">
<!-- Generated by graphviz version 2.47.0 (20210316.0004)
 -->
<!-- Title: dependencies Pages: 1 -->
<svg width="1164pt" height="211pt"
 viewBox="0.00 0.00 1164.00 211.00" xmlns="http://www.w3.org/2000/svg" xmlns:xlink="http://www.w3.org/1999/xlink">
<g id="graph0" class="graph" transform="scale(1 1) rotate(0) translate(4 207)">
<title>dependencies</title>
<polygon fill="white" stroke="transparent" points="-4,4 -4,-207 1160,-207 1160,4 -4,4"/>
<text text-anchor="start" x="557.01" y="-42.4" font-family="sans-serif" font-weight="bold" font-size="14.00">Legend</text>
<polygon fill="#ffffb3" stroke="transparent" points="344,-10 344,-30 364,-30 364,-10 344,-10"/>
<text text-anchor="start" x="367.63" y="-15.4" font-family="sans-serif" font-size="14.00"> &#160;Declarations</text>
<polygon fill="#8dd3c7" stroke="transparent" points="457,-10 457,-30 477,-30 477,-10 457,-10"/>
<text text-anchor="start" x="480.73" y="-15.4" font-family="sans-serif" font-size="14.00"> &#160;Module</text>
<polygon fill="#80b1d3" stroke="transparent" points="543,-10 543,-30 563,-30 563,-10 543,-10"/>
<text text-anchor="start" x="566.78" y="-15.4" font-family="sans-serif" font-size="14.00"> &#160;Bootstrap</text>
<polygon fill="#fdb462" stroke="transparent" points="640,-10 640,-30 660,-30 660,-10 640,-10"/>
<text text-anchor="start" x="663.67" y="-15.4" font-family="sans-serif" font-size="14.00"> &#160;Providers</text>
<polygon fill="#fb8072" stroke="transparent" points="736,-10 736,-30 756,-30 756,-10 736,-10"/>
<text text-anchor="start" x="759.73" y="-15.4" font-family="sans-serif" font-size="14.00"> &#160;Exports</text>
<g id="clust1" class="cluster">
<title>cluster_WvrCoreModule</title>
<polygon fill="none" stroke="black" stroke-dasharray="1,5" points="8,-70 8,-195 1148,-195 1148,-70 8,-70"/>
</g>
<g id="clust6" class="cluster">
<title>cluster_WvrCoreModule_providers</title>
<polygon fill="none" stroke="black" points="16,-78 16,-130 1140,-130 1140,-78 16,-78"/>
</g>
<!-- ActionRegistryService -->
<g id="node1" class="node">
<title>ActionRegistryService</title>
<ellipse fill="#fdb462" stroke="black" cx="1033" cy="-104" rx="98.99" ry="18"/>
<text text-anchor="middle" x="1033" y="-99.8" font-family="Times,serif" font-size="14.00">ActionRegistryService</text>
</g>
<!-- WvrCoreModule -->
<g id="node7" class="node">
<title>WvrCoreModule</title>
<polygon fill="#8dd3c7" stroke="black" points="571.64,-187 568.64,-191 547.64,-191 544.64,-187 460.36,-187 460.36,-151 571.64,-151 571.64,-187"/>
<text text-anchor="middle" x="516" y="-164.8" font-family="Times,serif" font-size="14.00">WvrCoreModule</text>
</g>
<!-- ActionRegistryService&#45;&gt;WvrCoreModule -->
<g id="edge1" class="edge">
<title>ActionRegistryService&#45;&gt;WvrCoreModule</title>
<path fill="none" stroke="black" d="M1033,-122.28C1033,-143.32 1033,-175 1033,-175 1033,-175 581.82,-175 581.82,-175"/>
<polygon fill="black" stroke="black" points="581.82,-171.5 571.82,-175 581.82,-178.5 581.82,-171.5"/>
</g>
<!-- AnimationService -->
<g id="node2" class="node">
<title>AnimationService</title>
<ellipse fill="#fdb462" stroke="black" cx="835" cy="-104" rx="81.1" ry="18"/>
<text text-anchor="middle" x="835" y="-99.8" font-family="Times,serif" font-size="14.00">AnimationService</text>
</g>
<!-- AnimationService&#45;&gt;WvrCoreModule -->
<g id="edge2" class="edge">
<title>AnimationService&#45;&gt;WvrCoreModule</title>
<path fill="none" stroke="black" d="M835,-122.02C835,-139.37 835,-163 835,-163 835,-163 581.93,-163 581.93,-163"/>
<polygon fill="black" stroke="black" points="581.93,-159.5 571.93,-163 581.93,-166.5 581.93,-159.5"/>
</g>
<!-- ComponentRegistryService -->
<g id="node3" class="node">
<title>ComponentRegistryService</title>
<ellipse fill="#fdb462" stroke="black" cx="618" cy="-104" rx="117.56" ry="18"/>
<text text-anchor="middle" x="618" y="-99.8" font-family="Times,serif" font-size="14.00">ComponentRegistryService</text>
</g>
<!-- ComponentRegistryService&#45;&gt;WvrCoreModule -->
<g id="edge3" class="edge">
<title>ComponentRegistryService&#45;&gt;WvrCoreModule</title>
<path fill="none" stroke="black" d="M536.02,-117.15C536.02,-117.15 536.02,-140.69 536.02,-140.69"/>
<polygon fill="black" stroke="black" points="532.52,-140.69 536.02,-150.69 539.52,-140.69 532.52,-140.69"/>
</g>
<!-- MobileService -->
<g id="node4" class="node">
<title>MobileService</title>
<ellipse fill="#fdb462" stroke="black" cx="414" cy="-104" rx="67.77" ry="18"/>
<text text-anchor="middle" x="414" y="-99.8" font-family="Times,serif" font-size="14.00">MobileService</text>
</g>
<!-- MobileService&#45;&gt;WvrCoreModule -->
<g id="edge4" class="edge">
<title>MobileService&#45;&gt;WvrCoreModule</title>
<path fill="none" stroke="black" d="M471.03,-113.87C471.03,-113.87 471.03,-140.91 471.03,-140.91"/>
<polygon fill="black" stroke="black" points="467.53,-140.91 471.03,-150.91 474.53,-140.91 467.53,-140.91"/>
</g>
<!-- TemplateService -->
<g id="node5" class="node">
<title>TemplateService</title>
<ellipse fill="#fdb462" stroke="black" cx="252" cy="-104" rx="76.42" ry="18"/>
<text text-anchor="middle" x="252" y="-99.8" font-family="Times,serif" font-size="14.00">TemplateService</text>
</g>
<!-- TemplateService&#45;&gt;WvrCoreModule -->
<g id="edge5" class="edge">
<title>TemplateService&#45;&gt;WvrCoreModule</title>
<path fill="none" stroke="black" d="M252,-122.02C252,-139.37 252,-163 252,-163 252,-163 450.33,-163 450.33,-163"/>
<polygon fill="black" stroke="black" points="450.34,-166.5 460.33,-163 450.33,-159.5 450.34,-166.5"/>
</g>
<!-- ThemeService -->
<g id="node6" class="node">
<title>ThemeService</title>
<ellipse fill="#fdb462" stroke="black" cx="91" cy="-104" rx="66.61" ry="18"/>
<text text-anchor="middle" x="91" y="-99.8" font-family="Times,serif" font-size="14.00">ThemeService</text>
</g>
<!-- ThemeService&#45;&gt;WvrCoreModule -->
<g id="edge6" class="edge">
<title>ThemeService&#45;&gt;WvrCoreModule</title>
<path fill="none" stroke="black" d="M91,-122.28C91,-143.32 91,-175 91,-175 91,-175 450,-175 450,-175"/>
<polygon fill="black" stroke="black" points="450,-178.5 460,-175 450,-171.5 450,-178.5"/>
</g>
</g>
</svg>
